<!DOCTYPE svg PUBLIC "-//W3C//DTD SVG 1.1//EN" "http://www.w3.org/Graphics/SVG/1.1/DTD/svg11.dtd">
<!-- Uploaded to: SVG Repo, www.svgrepo.com, Transformed by: SVG Repo Mixer Tools -->
<svg version="1.1" id="Layer_1" xmlns="http://www.w3.org/2000/svg" xmlns:xlink="http://www.w3.org/1999/xlink" viewBox="0 0 390.206 390.206" xml:space="preserve" width="800px" height="800px" fill="#8f7661">
<g id="SVGRepo_bgCarrier" stroke-width="0"/>
<g id="SVGRepo_tracerCarrier" stroke-linecap="round" stroke-linejoin="round"/>
<g id="SVGRepo_iconCarrier"> <path style="fill:#FFFFFF;" d="M21.657,70.723h30.901c5.947,0,10.861,4.848,10.861,10.861S58.57,92.444,52.558,92.444H21.657v21.657 h9.244c5.947,0,10.861,4.848,10.861,10.861c0,6.012-4.848,10.861-10.861,10.861h-9.244v232.533h162.069V21.98H21.657V70.723z"/> <rect x="43.055" y="43.636" style="fill:#ffddc2;" width="119.208" height="302.933"/> <g> <polygon style="fill:#e8be9c;" points="250.376,352.582 294.271,308.687 250.376,264.727 "/> <polygon style="fill:#e8be9c;" points="353.358,367.709 309.463,323.814 265.568,367.709 "/> <polygon style="fill:#e8be9c;" points="265.568,249.6 309.463,293.495 353.358,249.6 "/> <polygon style="fill:#e8be9c;" points="368.549,352.582 368.549,264.727 324.655,308.687 "/> </g> <g> <polygon style="fill:#FFFFFF;" points="353.358,227.879 309.463,183.984 265.568,227.879 "/> <polygon style="fill:#FFFFFF;" points="368.549,212.752 368.549,124.962 324.655,168.857 "/> <polygon style="fill:#FFFFFF;" points="250.376,212.752 294.271,168.857 250.376,124.962 "/> <polygon style="fill:#FFFFFF;" points="265.568,109.77 309.463,153.665 353.358,109.77 "/> </g> <g> <path style="fill:#8f7661;" d="M379.345,88.048h-139.83c-5.947,0-10.861,4.848-10.861,10.861V378.57 c0,5.947,4.848,10.861,10.861,10.861h139.83c5.947,0,10.861-4.848,10.861-10.861V98.909 C390.206,92.962,385.358,88.048,379.345,88.048z M265.568,249.6h87.79l-43.895,43.895L265.568,249.6z M353.358,367.709h-87.79 l43.895-43.895L353.358,367.709z M294.271,308.687l-43.895,43.895v-87.855L294.271,308.687z M368.549,352.582l-43.895-43.895 l43.895-43.895V352.582z M265.568,109.77h87.79l-43.895,43.895L265.568,109.77z M353.358,227.879h-87.79l43.895-43.895 L353.358,227.879z M294.271,168.857l-43.895,43.895v-87.79L294.271,168.857z M368.549,212.752l-43.895-43.895l43.895-43.895 V212.752z"/> <path style="fill:#8f7661;" d="M158.255,208.937c5.947,0,10.861-4.848,10.861-10.861v-16.808c0-5.947-4.848-10.861-10.861-10.861 c-5.947,0-10.861,4.848-10.861,10.861v16.808C147.394,204.089,152.307,208.937,158.255,208.937z"/> <path style="fill:#8f7661;" d="M194.586,0.259H10.861C4.913,0.259,0,5.107,0,11.119v367.968c0,5.948,4.848,10.861,10.861,10.861 h183.725c5.947,0,10.861-4.849,10.861-10.861V11.119C205.382,5.172,200.533,0.259,194.586,0.259z M183.725,367.709H21.657V135.758 h9.244c5.947,0,10.861-4.848,10.861-10.861c0-6.012-4.848-10.861-10.861-10.861h-9.244V92.38h30.901 c5.947,0,10.861-4.848,10.861-10.861s-4.913-10.796-10.861-10.796H21.657V21.915h162.069V367.709z"/> </g> </g>
</svg>