<!DOCTYPE svg PUBLIC "-//W3C//DTD SVG 1.1//EN" "http://www.w3.org/Graphics/SVG/1.1/DTD/svg11.dtd">
<!-- Uploaded to: SVG Repo, www.svgrepo.com, Transformed by: SVG Repo Mixer Tools -->
<svg version="1.1" id="Layer_1" xmlns="http://www.w3.org/2000/svg" xmlns:xlink="http://www.w3.org/1999/xlink" viewBox="-39.09 -39.09 469.03 469.03" xml:space="preserve" width="800px" height="800px" fill="#8f7661" transform="rotate(0)matrix(1, 0, 0, 1, 0, 0)" stroke="#8f7661">
<g id="SVGRepo_bgCarrier" stroke-width="0"/>
<g id="SVGRepo_tracerCarrier" stroke-linecap="round" stroke-linejoin="round"/>
<g id="SVGRepo_iconCarrier"> <g> <rect x="21.657" y="340.073" style="fill:#e8be9c;" width="42.279" height="27.669"/> <rect x="151.725" y="340.073" style="fill:#e8be9c;" width="44.412" height="27.669"/> <rect x="85.657" y="340.073" style="fill:#e8be9c;" width="44.412" height="27.669"/> <rect x="217.341" y="340.073" style="fill:#e8be9c;" width="42.279" height="27.669"/> <path style="fill:#e8be9c;" d="M329.503,59.378c10.279,0,18.424-8.145,18.424-18.424s-8.145-18.424-18.424-18.424 s-18.424,8.145-18.424,18.424S319.224,59.378,329.503,59.378z"/> </g> <g> <polygon style="fill:#FFFFFF;" points="152.824,64.226 186.44,97.842 220.057,64.226 "/> <polygon style="fill:#FFFFFF;" points="220.057,162.36 186.44,128.743 152.824,162.36 "/> <polygon style="fill:#FFFFFF;" points="235.766,79.418 201.632,113.551 235.766,147.168 "/> <polygon style="fill:#FFFFFF;" points="137.115,79.418 137.115,147.168 171.248,113.551 "/> </g> <g> <path style="fill:#8f7661;" d="M329.503,81.034c22.238,0,40.081-17.907,40.081-40.081S351.677,0.873,329.503,0.873 s-40.081,17.907-40.081,40.081C289.422,63.127,307.265,81.034,329.503,81.034z M329.503,23.046 c10.279,0,18.424,8.145,18.424,18.424s-8.145,18.424-18.424,18.424s-18.424-8.145-18.424-18.424S319.224,23.046,329.503,23.046z"/> <path style="fill:#8f7661;" d="M126.255,184.016h120.307c5.947,0,10.861-4.848,10.861-10.861V53.43 c0-5.947-4.848-10.861-10.861-10.861H126.255c-5.947,0-10.861,4.848-10.861,10.861v119.79 C115.459,179.103,120.307,184.016,126.255,184.016z M220.057,162.36h-67.232l33.616-33.616L220.057,162.36z M152.824,64.226h67.749 l-33.616,33.616L152.824,64.226z M201.632,113.551l33.616-33.616v67.75L201.632,113.551z M137.115,79.418l33.616,33.616 l-33.616,33.616C137.115,146.65,137.115,79.418,137.115,79.418z"/> </g> <path style="fill:#ffddc2;" d="M367.968,151.499v99.168h-70.465v-52.04c18.424-10.279,34.133-24.954,44.994-43.378 c2.715-5.43,0.517-11.895-4.331-14.61c-5.43-2.715-11.96-0.517-14.61,4.331c-0.517,1.099-8.145,15.192-25.988,28.186v-21.657 c0-19.523,15.709-35.232,35.232-35.232C352.323,116.267,367.968,131.976,367.968,151.499z"/> <path style="fill:#8f7661;" d="M333.317,95.127c-31.418,0-56.889,25.471-56.889,56.889v34.133 c-22.756,10.279-55.273,15.709-99.749,4.848c-5.947-1.616-11.895,2.198-12.994,8.145c-1.616,5.947,2.198,11.895,8.145,12.994 c34.133,10.279,72.081,8.663,104.598-3.232v52.558c0,5.947,4.848,10.861,10.861,10.861h10.279v106.796 c0,5.947,4.848,10.861,10.861,10.861c5.947,0,10.861-4.848,10.861-10.861V272.323h28.703v106.796 c0,5.947,4.848,10.861,10.861,10.861s10.861-4.848,10.861-10.861V272.323h10.279c5.947,0,10.861-4.848,10.861-10.861V152.016 C390.206,120.598,364.735,95.127,333.317,95.127z M368.549,250.667h-71.046v-52.04c18.424-10.279,34.133-24.954,44.994-43.378 c2.715-5.43,0.517-11.895-4.331-14.61c-5.43-2.715-11.895-0.517-14.61,4.331c-0.517,1.099-8.145,15.192-25.988,28.186v-21.657 c0-19.523,15.709-35.232,35.232-35.232s35.232,15.709,35.232,35.232v99.168H368.549z"/> <path style="fill:#ffddc2;" d="M120.307,220.347v98.133H21.657v-98.133h38.465v9.244c0,5.43,3.814,10.279,9.244,11.378 c7.046,1.099,12.477-4.331,12.477-10.861v-9.762H120.307z"/> <path style="fill:#8f7661;" d="M270.416,318.416h-128.97v-96.453c0-12.994-10.861-23.855-23.855-23.855H23.855 C10.861,198.109,0,208.97,0,221.964v156.638c0,5.947,4.848,10.861,10.861,10.861h259.62c5.947,0,10.861-4.848,10.861-10.861v-49.325 C281.277,323.329,276.428,318.416,270.416,318.416z M21.657,220.347L21.657,220.347h38.465v9.244c0,5.43,3.814,10.279,9.244,11.378 c7.046,1.099,12.477-4.331,12.477-10.861v-9.762h38.465v98.069H21.657V220.347z M85.657,340.073h44.412v27.669H85.657V340.073z M21.657,340.073h42.279v27.669H21.657V340.073z M151.725,367.741v-27.669h44.412v27.669H151.725z M259.62,367.741h-42.279v-27.669 h42.279V367.741z"/> </g>
</svg>