<svg id="_0271_order_confirmed_1" xmlns="http://www.w3.org/2000/svg" viewBox="0 0 500 500" data-imageid="order-confirmed-1-29" imageName="Order Confirmed 1" class="illustrations_image" style="width: 166px;"><defs><style>.cls-1_order-confirmed-1-29{fill:#fff;}.cls-2_order-confirmed-1-29{fill:#f4a28c;}.cls-3_order-confirmed-1-29{fill:#a5a5a5;}.cls-4_order-confirmed-1-29{fill:#ce8172;}.cls-5_order-confirmed-1-29{opacity:.44;}.cls-5_order-confirmed-1-29,.cls-6_order-confirmed-1-29,.cls-7_order-confirmed-1-29,.cls-8_order-confirmed-1-29,.cls-9_order-confirmed-1-29{fill:none;}.cls-10_order-confirmed-1-29{fill:#e6e6e6;}.cls-6_order-confirmed-1-29{opacity:.09;}.cls-7_order-confirmed-1-29{opacity:.31;}.cls-8_order-confirmed-1-29{opacity:.3;}.cls-11_order-confirmed-1-29{fill:#24285b;}.cls-12_order-confirmed-1-29{fill:#000001;}.cls-13_order-confirmed-1-29{fill:#ffd200;}.cls-9_order-confirmed-1-29{opacity:.49;}.cls-14_order-confirmed-1-29{fill:#68e1fd;}</style></defs><g id="bg_order-confirmed-1-29" class="cls-8_order-confirmed-1-29"><path class="cls-10_order-confirmed-1-29" d="m129.11,98.02c-40.91,18.96-71.26,67.03-77.25,125.17-5.04,49,7.01,103.14,77.93,118.57,138.01,30.02,267.26,38.57,300.26-42.41,33-80.98,26.89-190.15-47.19-228.68-49.81-25.9-173.85-9.67-253.75,27.35Z"/></g><g id="shopping_cart_order-confirmed-1-29"><path class="cls-14_order-confirmed-1-29 targetColor" d="m315.98,124.06s69.54,19.38,49.58,79.15l-40.96-3.25-8.62-75.89Z" style="fill: rgb(254, 220, 191);"/><g class="cls-5_order-confirmed-1-29"><path class="cls-1_order-confirmed-1-29" d="m315.98,124.06s69.54,19.38,49.58,79.15l-40.96-3.25-8.62-75.89Z"/></g><path class="cls-14_order-confirmed-1-29 targetColor" d="m248.6,108.43l30.83,5.4s111.34,12.08,63.03,102.41c-48.32,90.33-168.06,39.96-168.06,39.96,0,0-103.16-159.47,74.2-147.77Z" style="fill: rgb(254, 220, 191);"/><polygon class="cls-2_order-confirmed-1-29" points="257.77 52.51 247.34 108.83 280.8 129.27 273.75 69.96 257.77 52.51"/><g class="cls-7_order-confirmed-1-29"><path class="cls-4_order-confirmed-1-29" d="m275.25,79.2s-5.8-1.33-10.07-6.36c0,0,.18,10.48,11.43,21.12l-1.35-14.76Z"/></g><rect class="cls-10_order-confirmed-1-29" x="66.19" y="203.21" width="367.62" height="225.41" rx="13.88" ry="13.88"/><polygon class="cls-10_order-confirmed-1-29" points="133.49 384.83 171.76 480.89 212.22 384.83 133.49 384.83"/><path class="cls-2_order-confirmed-1-29" d="m365.56,203.21s-23.11-16.38-32.56-4.3c-9.45,12.08,11.55,30.14,32.56,4.3Z"/><path class="cls-2_order-confirmed-1-29" d="m283.35,48.51s3.44,17.14,1.82,28.97c-.66,4.8-5.16,8.21-9.95,7.48-5.95-.9-13.73-3.85-16.69-12.81l-6.89-14.59s-4-9.29,5-17.43c9-8.14,25.13-2.17,26.71,8.38Z"/><path class="cls-2_order-confirmed-1-29" d="m284.96,59.42l5.59,6.15c1.38,1.52.71,3.96-1.25,4.56l-6.5,1.99,2.16-12.7Z"/><path class="cls-11_order-confirmed-1-29" d="m252.17,75.65l-5.95-23.01s-13.25-2.32-9.23-10.97c4.02-8.65,9.3-2.87,9.54-12.81s8.32-11.93,14.02-6.32c5.71,5.61,3.07-2.2,10.21-3.24s9.02,2.16,9.17,7.59c.14,5.43,10.47-.32,13.09,6.55,2.63,6.87,2.98,13.54-14.79,14.58s-5.1,15.72-26.06,27.63Z"/><path class="cls-2_order-confirmed-1-29" d="m266.55,65.45s-.88-6.67-5.85-5.59c-4.97,1.08-3.76,10.73,3.17,10.86l2.67-5.27Z"/><g class="cls-6_order-confirmed-1-29"><path class="cls-12_order-confirmed-1-29" d="m178.68,116.47s39.19,22.1,44.36,86.74h-39.48l-4.88-86.74Z"/></g><path class="cls-14_order-confirmed-1-29 targetColor" d="m178.68,116.47s-58.58,17.02-49.47,86.74h62.32s6.52-60.45-12.85-86.74Z" style="fill: rgb(254, 220, 191);"/><g class="cls-5_order-confirmed-1-29"><path class="cls-1_order-confirmed-1-29" d="m178.68,116.47s-58.58,17.02-49.47,86.74h62.32s6.52-60.45-12.85-86.74Z"/></g><path class="cls-2_order-confirmed-1-29" d="m223.04,203.21s11.31-23.21,27.71-14.2c16.4,9,8,25.01-27.71,14.2Z"/><rect class="cls-13_order-confirmed-1-29" x="173.77" y="254.28" width="32.3" height="35.62"/><g class="cls-6_order-confirmed-1-29"><rect class="cls-12_order-confirmed-1-29" x="173.77" y="254.28" width="32.3" height="35.62"/></g><rect class="cls-13_order-confirmed-1-29" x="151.18" y="268.2" width="32.56" height="32.56"/><path class="cls-11_order-confirmed-1-29" d="m206.96,343.86h-49.51c-5.49,0-10.18-3.92-11.17-9.31l-9.63-52.67c-.73-4.01-4.23-6.92-8.3-6.92h-22.24c-.55,0-1-.45-1-1s.45-1,1-1h22.24c5.04,0,9.36,3.6,10.27,8.56l9.63,52.67c.81,4.45,4.68,7.67,9.2,7.67h49.51c.55,0,1,.45,1,1s-.45,1-1,1Z"/><path class="cls-11_order-confirmed-1-29" d="m138.18,284.7h78.24c6.04,0,10.25,6,8.18,11.68l-6.35,17.48c-2.81,7.74-10.17,12.89-18.4,12.89h-52.08l-9.59-42.05Z"/><circle class="cls-11_order-confirmed-1-29" cx="159.5" cy="357.74" r="6.83"/><circle class="cls-11_order-confirmed-1-29" cx="199.24" cy="357.74" r="6.83"/><circle class="cls-14_order-confirmed-1-29 targetColor" cx="217.47" cy="290.45" r="18.39" style="fill: rgb(254, 220, 191);"/><path class="cls-1_order-confirmed-1-29" d="m216.01,297.67c-.31,0-.61-.15-.8-.4l-4.69-6.22c-.33-.44-.24-1.07.2-1.4.44-.33,1.07-.24,1.4.2l3.82,5.06,6.8-10.73c.29-.47.91-.61,1.38-.31.47.3.6.91.31,1.38l-7.57,11.95c-.18.28-.48.45-.8.46-.01,0-.03,0-.04,0Z"/><rect class="cls-3_order-confirmed-1-29" x="277.31" y="256.45" width="61.45" height="18.19"/><g class="cls-9_order-confirmed-1-29"><rect class="cls-3_order-confirmed-1-29" x="277.31" y="290.64" width="112.91" height="18.19"/></g><rect class="cls-13_order-confirmed-1-29" x="277.31" y="326.75" width="112.91" height="30.99"/></g></svg>