<svg id="_0270_order_confirmation" xmlns="http://www.w3.org/2000/svg" viewBox="0 0 500 500" data-imageid="order-confirmed-2-48" imageName="Order Confirmed 2" class="illustrations_image" style="width: 166px;"><defs><style>.cls-1_order-confirmed-2-48{fill:#fff;}.cls-2_order-confirmed-2-48{fill:#f4a28c;}.cls-3_order-confirmed-2-48{opacity:.43;}.cls-3_order-confirmed-2-48,.cls-4_order-confirmed-2-48,.cls-5_order-confirmed-2-48,.cls-6_order-confirmed-2-48,.cls-7_order-confirmed-2-48,.cls-8_order-confirmed-2-48,.cls-9_order-confirmed-2-48{fill:none;}.cls-10_order-confirmed-2-48{fill:#a5a5a5;}.cls-4_order-confirmed-2-48{opacity:.37;}.cls-11_order-confirmed-2-48{fill:#ce8172;}.cls-5_order-confirmed-2-48{opacity:.44;}.cls-12_order-confirmed-2-48{fill:#e6e6e6;}.cls-6_order-confirmed-2-48{opacity:.09;}.cls-7_order-confirmed-2-48{opacity:.08;}.cls-8_order-confirmed-2-48{opacity:.47;}.cls-9_order-confirmed-2-48{opacity:.31;}.cls-13_order-confirmed-2-48{fill:#24285b;}.cls-14_order-confirmed-2-48{fill:#000001;}.cls-15_order-confirmed-2-48{fill:#ffd200;}.cls-16_order-confirmed-2-48{fill:#68e1fd;}</style></defs><g id="person_order-confirmed-2-48"><path class="cls-16_order-confirmed-2-48 targetColor" d="m151.99,262.4s42.83,91.19-10.86,101.27c-53.7,10.08-67.4-50.36-67.4-50.36l-19.42,12.52s21.21,69.75,80.29,69.69c59.08-.07,99.07-19.26,97.93-82.21-1.14-62.95-80.53-50.91-80.53-50.91Z" style="fill: rgb(254, 220, 191);"/><g class="cls-5_order-confirmed-2-48"><path class="cls-1_order-confirmed-2-48" d="m151.99,262.4s42.83,91.19-10.86,101.27c-53.7,10.08-67.4-50.36-67.4-50.36l-19.42,12.52s21.21,69.75,80.29,69.69c59.08-.07,99.07-19.26,97.93-82.21-1.14-62.95-80.53-50.91-80.53-50.91Z"/></g><path class="cls-16_order-confirmed-2-48 targetColor" d="m215.46,129.6l-17.03,5.33-25.52,10.64s-53.48,45.94-34.06,94.78c19.42,48.84,107.1,94.62,107.1,94.62l34.69-45.15-65.18-160.22Z" style="fill: rgb(254, 220, 191);"/><polygon class="cls-12_order-confirmed-2-48" points="53.3 208.11 63.44 233.57 74.16 208.11 53.3 208.11"/><path class="cls-2_order-confirmed-2-48" d="m147.46,91.77s3.36,14.9,8.87,23.76c2.24,3.59,7.04,4.71,10.6,2.42,4.42-2.84,9.58-7.96,8.75-16.16l.3-14.09s-.12-8.84-10.2-12.12c-10.08-3.28-20.82,7.23-18.31,16.2Z"/><polygon class="cls-2_order-confirmed-2-48" points="175.93 90.25 198.43 134.94 172.91 145.58 166.79 108.78 175.93 90.25"/><path class="cls-13_order-confirmed-2-48" d="m151.26,91.23c2.58-.68,7.24-2.18,13.08-5.31,0,0-2.53,7.78,4.24,13.31,6.77,5.53,13.19.14,13.19.14l-6.2-18.61c-1.63-5.48-6.12-9.65-11.72-10.82-2.29-.48-4.78-.88-7.21-1.06-6.07-.44-12.8,5.66-18.79,3.56-2.62-.92-5.28,1.33-4.83,4.07.97,5.95,4.84,14.57,13.52,15.23,1.59.12,3.17-.12,4.71-.52Z"/><path class="cls-2_order-confirmed-2-48" d="m166.89,99.29s-1.68-5.63,2.67-6.54c4.35-.91,6.82,7.22,1.34,9.8l-4.01-3.25Z"/><path class="cls-2_order-confirmed-2-48" d="m150.06,101.05l-2.27,6.9c-.56,1.7.84,3.41,2.62,3.19l5.9-.73-6.25-9.36Z"/><g class="cls-9_order-confirmed-2-48"><path class="cls-11_order-confirmed-2-48" d="m167.78,116.9s4.54-2.54,6.9-7.79c0,0,2.4,8.84-4.43,20.5l-2.47-12.71Z"/></g><path class="cls-2_order-confirmed-2-48" d="m71.03,315.04s-6.06-22.04-16.72-24.7c-10.66-2.67,3.65,33.13,3.65,33.13l13.07-8.43Z"/><rect class="cls-15_order-confirmed-2-48" x="55.2" y="266.56" width="24.27" height="39.56" transform="translate(-74.12 28.44) rotate(-15.51)"/><rect class="cls-12_order-confirmed-2-48" x="20.03" y="154.31" width="87.4" height="61.69"/><g class="cls-3_order-confirmed-2-48"><path class="cls-10_order-confirmed-2-48" d="m61.76,198.88c-.49,0-.94-.24-1.22-.63l-11.13-15.67c-.48-.68-.32-1.61.35-2.09.67-.48,1.61-.32,2.09.35l9.88,13.92,15.55-22.67c.47-.68,1.4-.86,2.09-.39.68.47.86,1.4.39,2.09l-16.77,24.45c-.28.4-.74.65-1.23.65h-.01Z"/></g></g><g id="order_order-confirmed-2-48"><g class="cls-4_order-confirmed-2-48"><polygon class="cls-1_order-confirmed-2-48" points="307.96 202.04 307.96 223.95 294.95 216.44 294.95 194.53 307.96 202.04"/></g><g id="order-2_order-confirmed-2-48"><rect class="cls-12_order-confirmed-2-48" x="187.91" y="57.76" width="292.06" height="384.47"/><g class="cls-7_order-confirmed-2-48"><ellipse class="cls-14_order-confirmed-2-48" cx="334.91" cy="266.92" rx="82.9" ry="35.36"/></g><circle class="cls-15_order-confirmed-2-48" cx="224.68" cy="89.81" r="10.58"/><circle class="cls-16_order-confirmed-2-48 targetColor" cx="254.48" cy="89.81" r="10.58" style="fill: rgb(254, 220, 191);"/><circle class="cls-13_order-confirmed-2-48" cx="283.01" cy="89.81" r="10.58"/><polygon class="cls-15_order-confirmed-2-48" points="396.09 179.81 332.82 143.29 269.55 179.81 269.55 252.87 332.82 289.4 396.09 252.87 396.09 179.81"/><rect class="cls-13_order-confirmed-2-48" x="254.48" y="341.02" width="123.53" height="32.82" rx="6.98" ry="6.98"/><circle class="cls-16_order-confirmed-2-48 targetColor" cx="389.43" cy="357.43" r="28.38" style="fill: rgb(254, 220, 191);"/><path class="cls-1_order-confirmed-2-48" d="m387.14,370.01c-.47,0-.91-.22-1.2-.6l-7.99-10.61c-.5-.66-.37-1.6.3-2.1.66-.5,1.6-.37,2.1.29l6.69,8.88,11.75-18.56c.44-.7,1.37-.91,2.07-.46.7.44.91,1.37.46,2.07l-12.91,20.39c-.26.42-.71.68-1.21.7-.02,0-.04,0-.06,0Z"/><g class="cls-8_order-confirmed-2-48"><polygon class="cls-1_order-confirmed-2-48" points="269.55 179.81 332.82 216.34 396.09 179.81 332.82 143.29 269.55 179.81"/></g><g class="cls-8_order-confirmed-2-48"><polygon class="cls-1_order-confirmed-2-48" points="295.2 194.4 307.54 201.52 370.6 165.1 358.26 157.97 295.2 194.4"/></g><g class="cls-6_order-confirmed-2-48"><polygon class="cls-14_order-confirmed-2-48" points="332.82 216.34 332.82 289.4 396.09 252.87 396.09 179.81 332.82 216.34"/></g><g class="cls-6_order-confirmed-2-48"><polygon class="cls-14_order-confirmed-2-48" points="321.82 258.47 321.82 273.49 308.82 265.98 308.82 250.96 321.82 258.47"/></g><g class="cls-8_order-confirmed-2-48"><polygon class="cls-1_order-confirmed-2-48" points="371.52 194.07 359.18 201.19 296.12 164.77 308.46 157.65 371.52 194.07"/></g><g class="cls-4_order-confirmed-2-48"><polygon class="cls-1_order-confirmed-2-48" points="358.76 201.71 358.76 223.62 371.76 216.11 371.76 194.2 358.76 201.71"/></g></g></g></svg>