<svg id="_0066_calling" xmlns="http://www.w3.org/2000/svg" viewBox="0 0 500 500" data-imageid="calling-94" imageName="Calling" class="illustrations_image" style="width: 166px;"><defs><style>.cls-1_calling-94{fill:#fff;}.cls-2_calling-94{fill:#f4a28c;}.cls-3_calling-94{opacity:.46;}.cls-3_calling-94,.cls-4_calling-94,.cls-5_calling-94,.cls-6_calling-94,.cls-7_calling-94{fill:none;}.cls-4_calling-94{opacity:.51;}.cls-8_calling-94{fill:#e6e6e6;}.cls-5_calling-94{opacity:.03;}.cls-6_calling-94{opacity:.08;}.cls-7_calling-94{opacity:.27;}.cls-9_calling-94{fill:#24285b;}.cls-10_calling-94{fill:#000001;}.cls-11_calling-94{fill:#ffd200;}.cls-12_calling-94{fill:#68e1fd;}</style></defs><g id="sd_calling-94" class="cls-5_calling-94"><ellipse class="cls-10_calling-94" cx="259.15" cy="453.38" rx="165.46" ry="24.08"/></g><g id="bg_calling-94"><g class="cls-7_calling-94"><path class="cls-8_calling-94" d="m135.38,92.41c-65.84,24.01-107.56,106.11-94.51,189.88,6.86,44.03,28.46,85.35,80.04,104.83,137.54,51.96,280.99,17.04,323.53-63.94,42.54-80.98,8.19-254.82-132.64-260.22-68.98-2.64-131.05,12.9-176.42,29.45Z"/></g></g><g id="person_calling-94"><path class="cls-11_calling-94" d="m367.87,366.55h-3.78v-6.09c0-3.46-2.81-6.28-6.27-6.28h-22.32c-3.46,0-6.27,2.81-6.27,6.28v6.09h-3.78v-6.09c0-5.54,4.51-10.06,10.05-10.06h22.32c5.54,0,10.05,4.51,10.05,10.06v6.09Z"/><g class="cls-4_calling-94"><path class="cls-1_calling-94" d="m367.87,366.55h-3.78v-6.09c0-3.46-2.81-6.28-6.27-6.28h-22.32c-3.46,0-6.27,2.81-6.27,6.28v6.09h-3.78v-6.09c0-5.54,4.51-10.06,10.05-10.06h22.32c5.54,0,10.05,4.51,10.05,10.06v6.09Z"/></g><rect class="cls-11_calling-94" x="192.67" y="62.16" width="20.78" height="40.63" transform="translate(77.34 -97.05) rotate(32.89)"/><path class="cls-12_calling-94 targetColor" d="m112.28,171.67s35.77-39.64,94.19-50.06l-27.1,76.52s-37.8,20.28-73.24,18.88l6.14-45.34Z" style="fill: rgb(121, 179, 111);"/><g class="cls-6_calling-94"><path class="cls-10_calling-94" d="m112.28,171.67s35.77-39.64,94.19-50.06l-27.1,76.52s-37.8,20.28-73.24,18.88l6.14-45.34Z"/></g><path class="cls-12_calling-94 targetColor" d="m223.02,444.23s-1.16,6.83-6.87,8.36c-5.71,1.53-6.22,7.47-.74,8.02,5.48.54,17.73-8.57,17.73-8.57l-1.88-8.3-8.25.49Z" style="fill: rgb(121, 179, 111);"/><path class="cls-12_calling-94 targetColor" d="m315.06,446.14s2.72,6.37,8.63,6.53c5.91.15,7.79,5.82,2.59,7.62-5.2,1.81-19.24-4.2-19.24-4.2l-.11-8.51,8.13-1.44Z" style="fill: rgb(121, 179, 111);"/><ellipse class="cls-11_calling-94" cx="293.62" cy="52.79" rx="36.35" ry="30.25"/><polygon class="cls-11_calling-94" points="268.28 66.6 255.33 88.61 276.64 72.8 268.28 66.6"/><path class="cls-9_calling-94" d="m283.79,52.79c0,2.48-2.01,4.49-4.49,4.49s-4.49-2.01-4.49-4.49,2.01-4.49,4.49-4.49,4.49,2.01,4.49,4.49Z"/><path class="cls-9_calling-94" d="m298.19,52.79c0,2.48-2.01,4.49-4.49,4.49s-4.49-2.01-4.49-4.49,2.01-4.49,4.49-4.49,4.49,2.01,4.49,4.49Z"/><path class="cls-9_calling-94" d="m312.42,52.79c0,2.48-2.01,4.49-4.49,4.49s-4.49-2.01-4.49-4.49,2.01-4.49,4.49-4.49,4.49,2.01,4.49,4.49Z"/><path class="cls-2_calling-94" d="m204.9,68s-1.89,13.07-.18,21.93c.69,3.59,4.23,5.98,7.81,5.23,4.45-.93,10.2-3.47,12.06-10.35l4.6-11.29s2.63-7.17-4.49-12.94c-7.13-5.77-19.05-.6-19.8,7.42Z"/><polygon class="cls-2_calling-94" points="229 78.44 237.29 120.91 213.56 123.81 216.97 92.55 229 78.44"/><path class="cls-9_calling-94" d="m231.01,67.8l-.75,16.95s-6.85,2.37-10.61-4.19c-3.76-6.56.69-12.06.69-12.06-5.68.72-17.74.71-20.04.46-1.37-.15-4.4.31-4.22-5.67,0,0-1.68-9.77,5.16-11.65,6.84-1.89,31.4,2.48,29.76,16.17Z"/><path class="cls-12_calling-94 targetColor" d="m197.16,117.65s99.26-19.03,133.18,0c33.92,19.03-37.22,196.05-37.22,196.05l-104.56-3.31s-91.49-174.54,8.61-192.74Z" style="fill: rgb(121, 179, 111);"/><g class="cls-6_calling-94"><path class="cls-10_calling-94" d="m292.7,142.05s4.62,47.24-4.2,94.49c-8.82,47.25-51.21,75.39-51.21,75.39l55.83,1.77s22.04-58.21,27.3-77.45c5.26-19.24-27.71-94.2-27.71-94.2Z"/></g><path class="cls-1_calling-94" d="m206.47,116.03l42.69-6.84-32.33,145.61s-29.08-79.6-10.36-138.77Z"/><path class="cls-12_calling-94 targetColor" d="m248.83,110.71l17.76,51.49-24.7,20.56,6.94,26.06-31.99,45.99s17.52-109.91,31.99-144.1Z" style="fill: rgb(121, 179, 111);"/><g class="cls-6_calling-94"><path class="cls-10_calling-94" d="m248.83,110.71l17.76,51.49-24.7,20.56,6.94,26.06-31.99,45.99s17.52-109.91,31.99-144.1Z"/></g><polygon class="cls-1_calling-94" points="206.47 116.03 215.15 109.19 233.73 102.65 241.88 111.58 218.57 122.19 206.47 116.03"/><polygon class="cls-9_calling-94" points="212.17 118.93 216.84 112.42 224.18 119.64 214.79 130.04 212.17 118.93"/><path class="cls-9_calling-94" d="m213.88,126.19s-11.12,47.23-7.94,88.24c0,0,6.32,33.45,10.89,40.38l11.07-61.76s-8.88-47.89-7.21-71.81l-6.8,4.96Z"/><path class="cls-12_calling-94 targetColor" d="m337.08,123.12c22.86,23.72,40.62,80.91,19.37,215.07l-23.87,5.81s.27-43.07-10.78-100.87c-4.94-25.81-12.47-51.04-21.89-75.58-2.05-5.34-4.28-11.93-6.32-19.63-6.82-25.71,25.04-43.95,43.49-24.8Z" style="fill: rgb(121, 179, 111);"/><g class="cls-3_calling-94"><path class="cls-1_calling-94" d="m337.08,123.12c22.86,23.72,40.62,80.91,19.37,215.07l-23.87,5.81s.27-43.07-10.78-100.87c-4.94-25.81-12.47-51.04-21.89-75.58-2.05-5.34-4.28-11.93-6.32-19.63-6.82-25.71,25.04-43.95,43.49-24.8Z"/></g><path class="cls-9_calling-94" d="m188.56,310.39l28.28,134.05h20.46l-4.67-82.53c-.91-16.01,8.97-30.67,24.15-35.84l36.34-12.37-104.56-3.31Z"/><path class="cls-9_calling-94" d="m293.12,313.7l27.86,135.15h-19.88l-31.75-75.47c-7.94-18.87-22.76-34.01-41.46-42.34h0s65.22-17.34,65.22-17.34Z"/><path class="cls-12_calling-94 targetColor" d="m170.14,93.58l9.92,13.11s-42.52,97.25-66.62,108.79c-24.1,11.55-59.53-40.36,56.7-121.9Z" style="fill: rgb(121, 179, 111);"/><path class="cls-2_calling-94" d="m180.06,89.2s4.85-13.78,15.66-6.72c10.8,7.05-15.66,24.21-15.66,24.21l-7.56-7.35,7.56-10.14Z"/><path class="cls-2_calling-94" d="m339.51,342.32s-6.33,10.13,0,16.43c6.33,6.3,17.49,12.44,16.95-20.56l-16.95,4.12Z"/><rect class="cls-11_calling-94" x="302.52" y="365.28" width="92.77" height="52.45"/><g class="cls-6_calling-94"><path class="cls-10_calling-94" d="m376.39,365.28s15.75,50.64-56.7,52.45h75.6v-52.45h-18.9Z"/></g><g class="cls-6_calling-94"><path class="cls-10_calling-94" d="m206.47,116.03s-21.03,22.55-26.41,48.54l15.84,20.16-10.5,14.34s9.97,37.54,31.43,55.73c0,0-30.07-78.58-10.36-138.77Z"/></g><g class="cls-6_calling-94"><path class="cls-10_calling-94" d="m222.66,275.09c0,2.48-2.01,4.49-4.49,4.49s-4.49-2.01-4.49-4.49,2.01-4.49,4.49-4.49,4.49,2.01,4.49,4.49Z"/></g><g class="cls-6_calling-94"><path class="cls-10_calling-94" d="m224.68,296.6c0,2.48-2.01,4.49-4.49,4.49s-4.49-2.01-4.49-4.49,2.01-4.49,4.49-4.49,4.49,2.01,4.49,4.49Z"/></g></g></svg>