<svg id="_0364_customer_service_1" xmlns="http://www.w3.org/2000/svg" viewBox="0 0 500 500" data-imageid="customer-service-1-51" imageName="Customer Service 1" class="illustrations_image" style="width: 166px;"><defs><style>.cls-1_customer-service-1-51{fill:#fff;}.cls-2_customer-service-1-51{fill:#f4a28c;}.cls-3_customer-service-1-51{opacity:.46;}.cls-3_customer-service-1-51,.cls-4_customer-service-1-51,.cls-5_customer-service-1-51,.cls-6_customer-service-1-51,.cls-7_customer-service-1-51,.cls-8_customer-service-1-51{fill:none;}.cls-9_customer-service-1-51{fill:#a5a5a5;}.cls-10_customer-service-1-51{fill:#e6e6e6;}.cls-4_customer-service-1-51{opacity:.03;}.cls-5_customer-service-1-51{opacity:.09;}.cls-6_customer-service-1-51{opacity:.08;}.cls-11_customer-service-1-51{fill:#24285b;}.cls-12_customer-service-1-51{fill:#000001;}.cls-7_customer-service-1-51{opacity:.61;}.cls-8_customer-service-1-51{opacity:.33;}.cls-13_customer-service-1-51{fill:#ffd200;}.cls-14_customer-service-1-51{fill:#68e1fd;}</style></defs><g id="sd_customer-service-1-51" class="cls-4_customer-service-1-51"><ellipse class="cls-12_customer-service-1-51" cx="250" cy="433.77" rx="236.26" ry="34.83"/></g><g id="monitor_customer-service-1-51"><polygon class="cls-9_customer-service-1-51" points="132.92 196.68 122.55 242.45 181.05 242.45 178.66 236.29 155.96 236.29 159.85 198.31 132.92 196.68"/><rect class="cls-14_customer-service-1-51 targetColor" x="70.67" y="106.92" width="144.6" height="98.22" style="fill: rgb(106, 179, 95);"/><g class="cls-3_customer-service-1-51"><rect class="cls-1_customer-service-1-51" x="86.47" y="121.47" width="31.74" height="39.35"/></g><g class="cls-3_customer-service-1-51"><rect class="cls-1_customer-service-1-51" x="126.89" y="121.47" width="72.57" height="39.35"/></g><g class="cls-3_customer-service-1-51"><rect class="cls-1_customer-service-1-51" x="86.47" y="168.92" width="112.99" height="21.66"/></g><rect class="cls-10_customer-service-1-51" x="70.67" y="196.68" width="144.6" height="18.59"/><circle class="cls-9_customer-service-1-51" cx="148.34" cy="205.32" r="5.38"/></g><g id="table_customer-service-1-51"><rect class="cls-10_customer-service-1-51" x="299.79" y="205.13" width="74.63" height="37.49"/><rect class="cls-9_customer-service-1-51" x="54.16" y="253.81" width="380.31" height="166.89"/><rect class="cls-10_customer-service-1-51" x="54.16" y="242.63" width="380.31" height="26.18"/><rect class="cls-10_customer-service-1-51" x="54.16" y="268.81" width="19.32" height="151.9"/><g class="cls-7_customer-service-1-51"><rect class="cls-10_customer-service-1-51" x="73.48" y="268.81" width="80.66" height="151.9"/></g><rect class="cls-9_customer-service-1-51" x="82" y="280.58" width="63.62" height="31.44"/><rect class="cls-9_customer-service-1-51" x="82" y="329.71" width="63.62" height="31.44"/><circle class="cls-9_customer-service-1-51" cx="112.63" cy="296.92" r="4.81"/><circle class="cls-9_customer-service-1-51" cx="112.63" cy="345.44" r="4.81"/><rect class="cls-9_customer-service-1-51" x="85.69" y="378.01" width="54.27" height="42.69"/></g><g id="cs_customer-service-1-51"><circle class="cls-11_customer-service-1-51" cx="418.38" cy="49.61" r="18.22"/><path class="cls-14_customer-service-1-51 targetColor" d="m314.76,427.49s2.79,6.13-2.68,7.48c-5.47,1.35-6.07,7-.86,7.62s17.05-7.82,17.05-7.82l-2.06-10.08-11.46,2.8Z" style="fill: rgb(106, 179, 95);"/><path class="cls-14_customer-service-1-51 targetColor" d="m360.09,428.13s4.33,5.49-1.14,6.84c-5.47,1.35-6.07,7-.86,7.62s17.05-7.82,17.05-7.82l-2.06-10.08-12.99,3.43Z" style="fill: rgb(106, 179, 95);"/><rect class="cls-13_customer-service-1-51" x="398.69" y="340.63" width="16.12" height="86.86"/><g class="cls-6_customer-service-1-51"><rect class="cls-12_customer-service-1-51" x="398.69" y="340.63" width="16.12" height="86.86"/></g><rect class="cls-10_customer-service-1-51" x="414.82" y="268.81" width="19.32" height="151.9"/><g class="cls-6_customer-service-1-51"><path class="cls-12_customer-service-1-51" d="m336.47,242.63l-28.84-.18-34.19,53.02c-18.07,28.03-20.18,63.47-5.54,93.43l15.53,31.8h150.71l.33-67.85,1.21-103.08-99.21-7.14Z"/></g><path class="cls-13_customer-service-1-51" d="m370.7,292.12s-17.81-118.25,23.75-138.61c41.56-20.36,108.58-1.54,78.04,144.71l-1.51,16.26c-2.03,21.75-20.28,38.38-42.12,38.38h-84.35c-15.48,0-20.21-21.19-6.11-27.57,4.34-1.96,9.34-3.65,15.1-4.88,8.82-1.89,15.38-9.32,16.25-18.29l.97-9.99Z"/><path class="cls-2_customer-service-1-51" d="m342.85,276.3l-39.54,40.43c-16.27,16.64-20.56,41.6-10.79,62.72l22.23,48.03,11.46-2.8-11.02-43.17c-4.48-17.56,3.17-35.96,18.78-45.17l45.21-26.67-36.33-33.39Z"/><path class="cls-2_customer-service-1-51" d="m342.85,276.3l92.82,5.49s-.15,32.92-11.2,40.36c-6.12,4.13-28.87,12.31-47.94,18.78-15.59,5.3-23.99,22.18-18.78,37.8l15.32,45.95-12.99,3.43-28.05-55.05c-8.24-16.18-4.21-35.9,9.71-47.55l27.99-23.42-26.89-25.81Z"/><polygon class="cls-13_customer-service-1-51" points="398.69 413.63 414.82 413.63 440.82 442.62 375.14 442.62 398.69 413.63"/><g class="cls-8_customer-service-1-51"><polygon class="cls-1_customer-service-1-51" points="398.69 413.63 414.82 413.63 440.82 442.62 375.14 442.62 398.69 413.63"/></g><path class="cls-11_customer-service-1-51" d="m444.19,271.43s12.98,32.29-16.26,50.75c-29.23,18.45-62.92,13.24-66.55,34.9,0,0-76.3-30.45-76.65-30.79s40.81-55.09,74.98-59.88l87.34,5.03"/><path class="cls-14_customer-service-1-51 targetColor" d="m370.27,102.77s-1.2.56-3.29,1.6c-15.15,7.53-85.09,36.9-81.91,64.59,3.63,31.52,90.92,15.06,90.92,15.06l15.56-54.07s-57.55,22.24-59.22,18.17l43.66-35.6" style="fill: rgb(106, 179, 95);"/><g class="cls-3_customer-service-1-51"><path class="cls-1_customer-service-1-51" d="m370.27,102.77s-1.2.56-3.29,1.6c-15.15,7.53-85.09,36.9-81.91,64.59,3.63,31.52,90.92,15.06,90.92,15.06l15.56-54.07s-57.55,22.24-59.22,18.17l43.66-35.6"/></g><path class="cls-2_customer-service-1-51" d="m379.17,96.96c1.02.49,1.92,1.23,2.59,2.14,1.32,1.79,1.7,4.23,1,6.34-.82,2.48-2.94,4.29-5.05,5.85-.42.31-.85.62-1.35.78-.87.27-1.84.03-2.61-.46s-1.38-1.19-1.94-1.91c-1.78-2.25-2.14-5.49-1.35-8.19.72-2.47,2.76-5.22,5.54-5.27,1.09-.02,2.18.24,3.17.71Z"/><path class="cls-2_customer-service-1-51" d="m422.29,125.23c-2.69-3.23-8.28-11.68-8.41-26.22l-11.58,2.07s-1.83,21.9-6.89,27.19l.12.11,26.76-3.16Z"/><g class="cls-5_customer-service-1-51"><path class="cls-12_customer-service-1-51" d="m422.29,125.23c-2.69-3.23-8.28-11.68-8.41-26.22l-11.58,2.07s-1.83,21.9-6.89,27.19l.12.11,26.76-3.16Z"/></g><path class="cls-2_customer-service-1-51" d="m393.51,83.87s.4,26.16,14.15,27.07c13.76.91,8.89-28.67,8.89-28.67,0,0-1.92-15.57-10.03-16.59-8.12-1.02-16.84-.34-13.02,18.19Z"/><path class="cls-2_customer-service-1-51" d="m394.02,89.89s-7.21-1.35-6.43,2.21c.78,3.57.15,8.5,7.99,5.45l-1.56-7.66Z"/><path class="cls-2_customer-service-1-51" d="m415.45,86.03s8.04-2.84,7.99.81c-.05,3.65.29,8.44-7.99,7.01v-7.81Z"/><path class="cls-11_customer-service-1-51" d="m393.06,89.12c.51.37,1.1.55,1.73.32.81-.29,1.34-1.05,1.76-1.8,2.04-3.55,2.89-7.77,2.39-11.83,1.22,2.74,2.61,5.46,4.67,7.66,2.05,2.19,4.86,3.82,7.86,3.9,8.93.23,7.61-9.75,6.51-15.74-.72-3.91-1.95-8.37-5.4-10.76-1.69-1.18-2.94-1.12-4.85-1.14-2.17-.03-4.26-.62-6.46-.52-2.49.12-5,.89-6.9,2.51-1.59,1.36-2.66,3.23-3.47,5.16-2.68,6.36-2.23,13.14.27,19.53.31.8.98,2.06,1.87,2.71Z"/><path class="cls-14_customer-service-1-51 targetColor" d="m453.74,215.5c-5.39,18.92-11.72,37.59-16.92,52.06-31.38.92-75.85,9.6-76.77-.74-.51-5.59,7.19-5.09,4.98-12.83-1.3-4.57-6.27-26.38-8.45-31.53-11.86-28.03-5.29-58,8.21-76,22.44-29.91,64.51-32.4,93.03-16.4,13.89,7.8,6.82,47.15-4.09,85.44Z" style="fill: rgb(106, 179, 95);"/><path class="cls-1_customer-service-1-51" d="m397.58,123.59c-1.36.92-18.56,40.64-8.48,92.1,0,0,14.75-70.35,29.61-95.92,0,0-13.72.26-21.14,3.82Z"/><g class="cls-6_customer-service-1-51"><path class="cls-12_customer-service-1-51" d="m458.25,226.17l-10.19,40.44-11.24.97-76.74,6.57c-.51-5.59,7.17-12.4,4.95-20.15,27.65-4.71,60.87-11.97,48.53-48.43-13.61-40.17,7.24-67.9,7.24-67.9l32.94,77.85,4.51,10.66Z"/></g><path class="cls-14_customer-service-1-51 targetColor" d="m419.63,142.39c1.56-12.5,13.74-20.91,25.97-17.87,16.26,4.04,36.68,16.83,39.74,55.16,5.18,65.05-13.24,95.76-13.24,95.76h-101.83v-12.87l70.75-8.63s-26.97-66.73-21.38-111.55Z" style="fill: rgb(106, 179, 95);"/><g class="cls-3_customer-service-1-51"><path class="cls-1_customer-service-1-51" d="m419.63,142.39c1.56-12.5,13.74-20.91,25.97-17.87,16.26,4.04,36.68,16.83,39.74,55.16,5.18,65.05-13.24,95.76-13.24,95.76h-101.83v-12.87l70.75-8.63s-26.97-66.73-21.38-111.55Z"/></g><path class="cls-13_customer-service-1-51" d="m392.72,123.35s-8.16,1.5-11.13-2.92c-2.97-4.42-6.47-27.49-6.82-29.8-.35-2.31,5.84-9.97,7.94-8.49,2.1,1.48,6.12,9.63,4.49,11.23-1.65,1.61-5.6,3.82-5.6,3.82,0,0,1.23,13.63,3.95,15.61,2.72,1.98,7.17-1.36,8.65,1.17s2.65,9.03-1.48,9.37Z"/><path class="cls-11_customer-service-1-51" d="m351.26,266.1c-1.76,0-3.44-.17-5.02-.55-4.48-1.09-8.15-4.07-11.83-7.3-2.93-2.57-5.86-5.21-8.71-7.84l-1.18-1.09c-2.53-2.34-5.15-4.77-7.88-6.95-10.6-8.5-23.88-14.04-37.37-15.62l.21-1.81c13.83,1.62,27.43,7.3,38.3,16.01,2.78,2.23,5.42,4.67,7.98,7.04l1.18,1.09c2.84,2.62,5.76,5.25,8.68,7.81,3.63,3.19,6.97,5.91,11.05,6.9,9.49,2.3,24.72-3.97,32.63-8.75,5.33-3.21,8.82-6.7,10.66-10.67,1.89-4.07,1.75-8.7-.2-12.01-1.44,1.66-3.07,3.08-4.86,4.2-2.22,1.39-4.23,2-6.12,1.85-2.21-.17-4.66-1.68-5.09-4.22-.26-1.57.34-2.98.89-3.89,1.31-2.16,3.67-3.58,6.48-3.9,3.25-.37,6.55.75,8.67,2.92.02.02.04.04.06.07,1.98-2.79,3.44-6.14,4.25-9.81,1.19-5.45,1.03-11.71-.49-19.14-.53-2.59-1.22-5.26-2.67-7.4-1.42,2.66-4.01,4.8-6.48,5.31-1.63.34-3.12-.05-4.3-1.11-1.21-1.09-1.72-2.74-1.41-4.54.37-2.08,1.77-3.89,3.57-4.61,2.88-1.16,5.91-.1,8.04,1.63,3.25-9.16,1.55-21.25.29-30.26-.27-1.91-.54-3.82-.82-5.74-1.61-11.13-3.27-22.64-3.09-34.13l1.82.03c-.18,11.34,1.47,22.78,3.07,33.84.28,1.92.55,3.83.82,5.74,1.32,9.45,3.11,22.24-.68,31.92,2.08,2.55,2.96,5.8,3.6,8.94,1.57,7.68,1.73,14.19.48,19.89-.89,4.09-2.57,7.82-4.85,10.89,2.59,3.86,2.9,9.44.65,14.28-2,4.3-5.72,8.05-11.37,11.46-6,3.63-18.67,9.51-28.98,9.51Zm31.03-37.95c-.34,0-.69.02-1.03.06-2.28.26-4.1,1.34-5.13,3.03-.55.91-.78,1.85-.65,2.64.26,1.54,1.95,2.59,3.44,2.71,1.48.12,3.13-.4,5.01-1.57,1.75-1.1,3.34-2.51,4.72-4.16-.08-.09-.16-.17-.24-.26-1.51-1.55-3.78-2.44-6.12-2.44Zm2.47-38.71c-.62,0-1.23.11-1.82.35-1.21.49-2.2,1.79-2.45,3.24-.21,1.17.1,2.21.83,2.87.74.67,1.66.89,2.71.68,2.02-.41,4.36-2.48,5.45-4.8.04-.08.07-.17.11-.25-1.29-1.2-3.06-2.08-4.82-2.08Z"/><polygon class="cls-13_customer-service-1-51" points="284.73 242.63 235.47 242.63 240.18 219.27 280.02 219.27 284.73 242.63"/><rect class="cls-13_customer-service-1-51" x="245" y="212.34" width="6.93" height="6.93"/><rect class="cls-13_customer-service-1-51" x="268.27" y="212.34" width="6.93" height="6.93"/><path class="cls-2_customer-service-1-51" d="m369.93,264.45s-38.34-11.11-33.74,10.57h33.74v-10.57Z"/><rect class="cls-10_customer-service-1-51" x="238.8" y="31.39" width="102.44" height="61.78" rx="21.71" ry="21.71"/><path class="cls-10_customer-service-1-51" d="m308.73,90.26s9.61,13.29,29,9.37c0,0-17.16.49-22.01-14.57l-6.98,5.19Z"/><g class="cls-6_customer-service-1-51"><circle class="cls-12_customer-service-1-51" cx="269.6" cy="62.28" r="6.08"/></g><g class="cls-6_customer-service-1-51"><circle class="cls-12_customer-service-1-51" cx="290.02" cy="62.28" r="6.08"/></g><g class="cls-6_customer-service-1-51"><circle class="cls-12_customer-service-1-51" cx="310.44" cy="62.28" r="6.08"/></g></g></svg>