<!DOCTYPE svg PUBLIC "-//W3C//DTD SVG 1.1//EN" "http://www.w3.org/Graphics/SVG/1.1/DTD/svg11.dtd">
<!-- Uploaded to: SVG Repo, www.svgrepo.com, Transformed by: SVG Repo Mixer Tools -->
<svg height="800px" width="800px" version="1.1" id="Layer_1" xmlns="http://www.w3.org/2000/svg" xmlns:xlink="http://www.w3.org/1999/xlink" viewBox="0 0 512 512" xml:space="preserve" fill="#8F7661" stroke="#8F7661">
<g id="SVGRepo_bgCarrier" stroke-width="0"/>
<g id="SVGRepo_tracerCarrier" stroke-linecap="round" stroke-linejoin="round"/>
<g id="SVGRepo_iconCarrier"> <g transform="translate(1 1)"> <path style="fill:#FFDDC2;" d="M127.925,459.8v1.707l-17.067,40.96H76.725c0,0-0.853-16.213-0.853-42.667H127.925z"/> <path style="fill:#FFDDC2;" d="M142.432,92.867c-8.533,8.533-14.507,17.067-14.507,17.067 c-63.147,98.133-51.2,392.533-51.2,392.533h34.133l24.747-59.733C127.072,202.947,142.432,93.72,142.432,92.867"/> <path style="fill:#e8be9c;" d="M78.432,348.867h55.467c0-28.16,0-53.76,0-76.8H84.405C81.845,297.667,79.285,324.12,78.432,348.867 "/> <g> <path style="fill:#FFDDC2;" d="M367.712,92.867c8.533,8.533,14.507,17.067,14.507,17.067c57.173,98.133,51.2,392.533,51.2,392.533 h-34.133l-24.747-59.733C383.072,202.947,368.565,93.72,367.712,92.867"/> <path style="fill:#FFDDC2;" d="M375.392,434.2L375.392,434.2c7.68-238.933-6.827-340.48-6.827-341.333 c-9.387-9.387-20.48-18.773-28.16-17.067c0,0,9.387-68.267-85.333-68.267S169.739,75.8,169.739,75.8 c-7.68-1.707-17.92,7.68-27.307,17.067c0,0.853-15.36,101.547-6.827,341.333c16.213,21.333,41.813,34.133,68.267,34.133h103.253 C333.579,468.333,359.179,455.533,375.392,434.2"/> </g> <g> <path style="fill:#FFDDC2;" d="M307.125,468.333H203.872c-18.773,0-36.693-5.973-51.2-17.067v42.667 c0,5.12,3.413,8.533,8.533,8.533h187.733c5.12,0,8.533-3.413,8.533-8.533V452.12C342.965,462.36,325.045,468.333,307.125,468.333"/> <path style="fill:#FFDDC2;" d="M383.072,459.8v1.707l17.067,40.96h34.133c0,0,0-16.213,0-42.667H383.072z"/> </g> <g> <path style="fill:#FFDDC2;" d="M135.605,434.2c13.653,18.773,34.987,30.72,58.027,33.28 c11.947-46.08,18.773-101.547,18.773-161.28c0-93.013-17.067-175.787-43.52-230.4l0,0c-5.973-0.853-14.507,5.973-23.04,13.653 c-0.853,1.707-2.56,2.56-3.413,3.413c0,0-9.387,66.56-9.387,209.067C133.045,340.333,133.899,384.707,135.605,434.2"/> <path style="fill:#FFDDC2;" d="M341.259,75.8L341.259,75.8c-26.453,54.613-43.52,137.387-43.52,230.4 c0,59.733,6.827,115.2,18.773,161.28c23.04-2.56,44.373-14.507,58.88-33.28c1.707-49.493,2.56-93.867,2.56-131.413 c0-142.507-9.387-209.067-9.387-209.067c-0.853-0.853-2.56-2.56-3.413-3.413C356.619,81.773,347.232,74.947,341.259,75.8"/> </g> <path style="fill:#e8be9c;" d="M377.099,348.867h52.907c-1.707-24.747-3.413-51.2-6.827-76.8h-46.08 C377.952,295.107,377.952,320.707,377.099,348.867"/> <path style="fill:#FFDDC2;" d="M383.072,109.933c0,0-6.827-8.533-14.507-17.067c0,0,0.853,8.533,2.56,26.453 c51.2,106.667,46.08,383.147,46.08,383.147h17.067C434.272,502.467,440.245,208.067,383.072,109.933"/> <path style="fill:#e8be9c;" d="M424.032,272.067h-17.067c2.56,25.6,5.12,52.053,6.827,76.8h17.067 C429.152,324.12,426.592,297.667,424.032,272.067"/> <path style="fill:#e8be9c;" d="M127.072,109.933c0,0,6.827-8.533,14.507-17.067c0,0-0.853,8.533-2.56,26.453 c-51.2,106.667-46.08,383.147-46.08,383.147H75.872C75.872,502.467,69.899,208.067,127.072,109.933"/> <g> <path style="fill:#e8be9c;" d="M212.405,306.2c0-11.947,0-23.04-0.853-34.133h-78.507c0,23.04,0,48.64,0,76.8h77.653 C211.552,335.213,212.405,320.707,212.405,306.2"/> <path style="fill:#e8be9c;" d="M297.739,306.2c0,14.507,0.853,29.013,0.853,42.667h78.507c0-28.16,0-53.76,0-76.8h-79.36 C297.739,283.16,297.739,294.253,297.739,306.2"/> </g> <path d="M110.859,511H76.725c-4.267,0-8.533-3.413-8.533-8.533c-0.853-11.947-11.093-297.813,52.053-396.8 c0.853-0.853,7.68-9.387,16.213-17.92c2.56-3.413,6.827-4.267,10.24-2.56c3.413,1.707,5.12,5.12,4.267,9.387 c0,0.853-15.36,109.227-6.827,348.16c0,0.853,0,2.56-0.853,3.413l-24.747,59.733C116.832,509.293,114.272,511,110.859,511z M84.405,493.933h20.48l22.187-52.907c-5.973-168.96,0-273.067,4.267-320C80.139,210.627,83.552,447,84.405,493.933z"/> <path d="M434.272,511h-34.133c-3.413,0-6.827-1.707-7.68-5.12l-24.747-59.733c-0.853-0.853-0.853-2.56-0.853-3.413 c7.68-239.787-6.827-347.307-6.827-348.16c-0.853-3.413,1.707-6.827,4.267-8.533c3.413-2.56,7.68-1.707,10.24,0.853 c8.533,8.533,15.36,17.067,15.36,17.92l0.853,0.853c57.173,98.987,52.053,384.853,52.053,396.8 C442.805,507.587,438.539,511,434.272,511z M405.259,493.933h20.48c0-46.933,0-279.893-46.08-372.053 c4.267,47.787,9.387,151.893,4.267,319.147L405.259,493.933z"/> <path d="M307.125,476.867H203.872c-29.013,0-57.173-13.653-75.093-37.547c-0.853-1.707-1.707-3.413-1.707-5.12 c-8.533-241.493,6.827-341.333,6.827-342.187c0-1.707,0.853-3.413,2.56-4.267c7.68-8.533,16.213-16.213,24.747-19.627 c0-9.387,2.56-26.453,15.36-41.813C192.779,8.387,219.232-1,255.072-1s62.293,9.387,78.507,27.307 c11.947,15.36,15.36,32.427,15.36,41.813c6.827,2.56,15.36,8.533,25.6,18.773c0.853,0.853,1.707,2.56,2.56,4.267 c0,0.853,15.36,101.547,6.827,343.04c0,1.707-0.853,3.413-1.707,5.12C364.299,463.213,336.139,476.867,307.125,476.867z M144.139,430.787c14.507,17.92,36.693,29.013,59.733,29.013h103.253c23.04,0,45.227-11.093,59.733-29.013 c6.827-213.333-4.267-316.587-6.827-334.507c-12.8-11.947-17.92-11.947-17.92-11.947c-2.56,0.853-5.12,0-7.68-1.707 c-1.707-1.707-3.413-5.12-2.56-7.68c0,0,2.56-20.48-11.947-36.693c-12.8-14.507-34.133-22.187-64.853-22.187 s-52.907,7.68-64.853,21.333c-14.507,16.213-11.947,36.693-11.947,37.547c0,2.56-0.853,5.973-2.56,7.68 c-2.56,1.707-5.12,1.707-7.68,1.707c-0.853,0-5.12,0.853-17.067,12.8C148.405,114.2,136.459,216.6,144.139,430.787z"/> <path d="M348.939,511H161.205c-9.387,0-17.067-7.68-17.067-17.067v-42.667c0-3.413,1.707-5.973,5.12-7.68 c2.56-1.707,5.973-0.853,8.533,0.853c13.653,10.24,29.013,15.36,46.08,15.36h103.253c16.213,0,31.573-5.12,45.227-15.36 c2.56-1.707,5.973-2.56,8.533-0.853s4.267,4.267,4.267,7.68v42.667C366.005,503.32,358.325,511,348.939,511z M161.205,466.627 v27.307h187.733v-27.307c-12.8,6.827-27.307,10.24-41.813,10.24H203.872C189.365,476.867,174.005,473.453,161.205,466.627z"/> <path d="M434.272,511h-34.133c-3.413,0-6.827-1.707-7.68-5.12l-17.067-40.96c-0.853-1.707-0.853-2.56-0.853-3.413V459.8 c0-5.12,3.413-8.533,8.533-8.533h51.2c5.12,0,8.533,3.413,8.533,8.533c0,26.453,0,42.667,0,42.667 C442.805,507.587,438.539,511,434.272,511z M405.259,493.933h20.48c0-5.973,0-14.507,0-25.6h-30.72L405.259,493.933z"/> <path d="M110.859,511H76.725c-4.267,0-8.533-3.413-8.533-8.533c0,0-0.853-17.067-0.853-42.667c0-2.56,0.853-4.267,2.56-5.973 s3.413-2.56,5.973-2.56h52.053c5.12,0,8.533,3.413,8.533,8.533v1.707c0,0.853,0,2.56-0.853,3.413l-17.067,40.96 C116.832,509.293,114.272,511,110.859,511z M84.405,493.933h20.48l10.24-25.6h-30.72C84.405,479.427,84.405,487.96,84.405,493.933z "/> <path d="M430.005,357.4h-52.907c-2.56,0-4.267-0.853-5.973-2.56s-2.56-3.413-2.56-5.973c0-26.453,0-52.053,0-76.8 c0-2.56,0.853-4.267,2.56-5.973c1.707-1.707,3.413-2.56,5.973-2.56h46.08c4.267,0,7.68,3.413,8.533,7.68 c2.56,23.893,5.12,49.493,6.827,77.653c0,2.56-0.853,4.267-2.56,5.973C435.125,356.547,432.565,357.4,430.005,357.4z M385.632,340.333h34.987c-1.707-21.333-3.413-40.96-5.12-59.733h-29.867C386.485,299.373,386.485,319.853,385.632,340.333z"/> <path d="M133.045,357.4H78.432c-2.56,0-4.267-0.853-5.973-2.56c-1.707-1.707-2.56-4.267-2.56-5.973 c1.707-27.307,3.413-53.76,5.973-77.653c0.853-4.267,4.267-7.68,8.533-7.68h48.64c2.56,0,4.267,0.853,5.973,2.56 s2.56,3.413,2.56,5.973c0,23.893,0,50.347,0,76.8c0,2.56-0.853,4.267-2.56,5.973C138.165,356.547,135.605,357.4,133.045,357.4z M86.965,340.333h37.547c0-20.48,0-40.96,0-59.733H92.085C90.379,299.373,88.672,319.853,86.965,340.333z"/> <path d="M210.699,357.4h-77.653c-4.267,0-8.533-3.413-8.533-8.533c0-26.453,0-52.053,0-76.8c0-4.267,4.267-8.533,8.533-8.533 h78.507c4.267,0,8.533,3.413,8.533,8.533c0.853,11.093,0.853,23.04,0.853,34.133c0,13.653-0.853,28.16-0.853,43.52 C219.232,353.987,215.819,357.4,210.699,357.4z M141.579,340.333h61.44c0.853-11.947,0.853-23.04,0.853-34.133 c0-8.533,0-17.067-0.853-25.6h-61.44C141.579,300.227,141.579,319.853,141.579,340.333z"/> <path d="M377.099,357.4h-78.507c-4.267,0-8.533-3.413-8.533-7.68c-0.853-15.36-0.853-29.867-0.853-43.52 c0-11.093,0-23.04,0.853-34.133c0-4.267,4.267-8.533,8.533-8.533h79.36c4.267,0,8.533,3.413,8.533,8.533c0,23.893,0,50.347,0,76.8 C385.632,353.987,382.219,357.4,377.099,357.4z M307.125,340.333h62.293c0-20.48,0-40.96,0-59.733h-63.147 c0,8.533-0.853,17.067-0.853,25.6C306.272,317.293,306.272,328.387,307.125,340.333z"/> <path d="M178.272,220.867h-17.067c-5.12,0-8.533-3.413-8.533-8.533c0-5.12,3.413-8.533,8.533-8.533h17.067 c5.12,0,8.533,3.413,8.533,8.533C186.805,217.453,182.539,220.867,178.272,220.867z"/> <path d="M192.779,476.013h-0.853c-24.747-3.413-47.787-16.213-63.147-36.693c-0.853-1.707-1.707-3.413-1.707-5.12 c-1.707-46.08-2.56-90.453-2.56-132.267c0-143.36,9.387-209.92,9.387-210.773c0-1.707,0.853-3.413,2.56-4.267 c0.853-0.853,2.56-2.56,3.413-3.413c12.8-12.8,21.333-17.067,29.867-16.213c2.56,0,5.12,2.56,6.827,5.12 c28.16,58.027,44.373,143.36,44.373,233.813c0,58.027-6.827,114.347-19.627,163.84 C200.459,473.453,197.045,476.013,192.779,476.013z M144.139,430.787c11.093,13.653,26.453,23.04,42.667,26.453 c11.093-46.08,17.067-98.133,17.067-151.893c0-85.333-14.507-164.693-39.253-220.16c-2.56,1.707-5.973,4.267-11.947,10.24 l-0.853,0.853c-1.707,13.653-8.533,79.36-9.387,205.653C141.579,342.893,142.432,386.413,144.139,430.787z"/> <path d="M316.512,476.013c-4.267,0-7.68-2.56-8.533-6.827c-11.947-48.64-18.773-104.96-18.773-162.987 c0-90.453,16.213-175.787,44.373-233.813c0.853-2.56,3.413-5.12,5.973-5.12c8.533-0.853,17.92,4.267,30.72,16.213 c1.707,0.853,2.56,2.56,4.267,3.413c0.853,0.853,1.707,2.56,2.56,4.267c0,0.853,9.387,67.413,9.387,210.773 c0,41.813-0.853,86.187-2.56,132.267c0,1.707-0.853,3.413-1.707,5.12c-15.36,20.48-39.253,34.133-64,36.693 C317.365,476.013,317.365,476.013,316.512,476.013z M345.525,86.04c-24.747,55.467-39.253,134.827-39.253,220.16 c0,53.76,5.973,105.813,17.067,151.893c17.067-3.413,32.427-12.8,43.52-27.307c1.707-45.227,2.56-88.747,2.56-128.853 c0-125.44-7.68-191.147-9.387-205.653l-0.853-0.853C352.352,90.307,348.085,86.893,345.525,86.04z"/> <path d="M339.552,87.747h-0.853c-3.413,0-6.827-2.56-7.68-6.827c-3.413-14.507-33.28-30.72-75.947-30.72 s-72.533,16.213-75.947,30.72c-0.853,4.267-4.267,6.827-8.533,6.827c-4.267,0-7.68-3.413-7.68-6.827l-1.707-5.973v-0.853 c0-6.827,0-30.72,17.92-49.493C195.339,7.533,220.939-1,255.925-1c35.84,0,62.293,9.387,78.507,28.16 c14.507,17.067,16.213,36.693,16.213,45.227c0.853,2.56,0.853,5.12,0,7.68l-1.707,3.413 C345.525,86.04,342.965,87.747,339.552,87.747z M255.072,16.067c-29.867,0-51.2,6.827-64,20.48c-5.12,5.12-7.68,10.24-9.387,15.36 c16.213-11.093,43.52-18.773,73.387-18.773s56.32,7.68,73.387,18.773c-1.707-5.12-4.267-10.24-8.533-14.507 C307.125,23.747,285.792,16.067,255.072,16.067z"/> <path d="M272.139,118.467h-34.133c-5.12,0-8.533-3.413-8.533-8.533s3.413-8.533,8.533-8.533h34.133c5.12,0,8.533,3.413,8.533,8.533 S276.405,118.467,272.139,118.467z"/> </g> </g>
</svg>