<!DOCTYPE svg PUBLIC "-//W3C//DTD SVG 1.1//EN" "http://www.w3.org/Graphics/SVG/1.1/DTD/svg11.dtd">
<!-- Uploaded to: SVG Repo, www.svgrepo.com, Transformed by: SVG Repo Mixer Tools -->
<svg height="800px" width="800px" version="1.1" id="Layer_1" xmlns="http://www.w3.org/2000/svg" xmlns:xlink="http://www.w3.org/1999/xlink" viewBox="0 0 512 512" xml:space="preserve" fill="#8F7661" stroke="#8F7661">
<g id="SVGRepo_bgCarrier" stroke-width="0"/>
<g id="SVGRepo_tracerCarrier" stroke-linecap="round" stroke-linejoin="round"/>
<g id="SVGRepo_iconCarrier"> <path style="fill:#FFDDC2;" d="M448.43,375.123H26.917c-10.122,0-18.327-8.205-18.327-18.327V81.897 c0-10.122,8.205-18.327,18.327-18.327H448.43c10.122,0,18.327,8.205,18.327,18.327v274.899 C466.756,366.918,458.552,375.123,448.43,375.123z"/> <path style="fill:#e8be9c;" d="M466.756,301.817H365.96c-20.243,0-36.653,16.41-36.653,36.653v36.653H448.43 c10.122,0,18.327-8.205,18.327-18.327V301.817z"/> <path style="fill:#c99f7e;" d="M146.04,201.02H72.734c-5.06,0-9.163-4.103-9.163-9.163v-54.98c0-5.06,4.103-9.163,9.163-9.163 h73.306c5.06,0,9.163,4.103,9.163,9.163v54.98C155.204,196.917,151.101,201.02,146.04,201.02z"/> <circle style="fill:#e8be9c;" cx="315.562" cy="159.785" r="41.235"/> <circle style="fill:#c99f7e;" cx="370.541" cy="159.785" r="41.235"/> <path style="fill:#ab8163;" d="M329.306,159.785c0,12.164,5.366,22.986,13.745,30.533c8.379-7.547,13.745-18.369,13.745-30.533 s-5.366-22.986-13.745-30.533C334.673,136.799,329.306,147.621,329.306,159.785z"/> <path style="fill:#e8be9c;" d="M485.083,448.43h-109.96c-10.122,0-18.327-8.205-18.327-18.327v-82.47 c0-10.122,8.205-18.327,18.327-18.327h109.96c10.122,0,18.327,8.205,18.327,18.327v82.47 C503.409,440.225,495.205,448.43,485.083,448.43z"/> <path style="fill:#c99f7e;" d="M393.45,384.286v-54.98h-18.327c-10.122,0-18.327,8.205-18.327,18.327v82.47 c0,10.122,8.205,18.327,18.327,18.327h109.96c10.121,0,18.327-8.206,18.327-18.327v-9.163h-73.306 C409.86,420.94,393.45,404.529,393.45,384.286z"/> <circle style="fill:#c99f7e;" cx="430.103" cy="379.705" r="13.745"/> <path d="M320.143,366.532H26.917c-5.369,0-9.736-4.367-9.736-9.736V81.897c0-5.369,4.367-9.736,9.736-9.736H448.43 c5.369,0,9.736,4.367,9.736,9.736v119.125c0,4.744,3.846,8.591,8.591,8.591c4.744,0,8.591-3.846,8.591-8.591V81.897 c0-14.842-12.075-26.917-26.917-26.917H26.917C12.075,54.98,0,67.055,0,81.897v274.899c0,14.842,12.075,26.917,26.917,26.917 h293.226c4.744,0,8.591-3.846,8.591-8.591S324.887,366.532,320.143,366.532z"/> <path d="M163.794,191.857v-54.98c0-9.79-7.964-17.754-17.754-17.754H72.734c-9.79,0-17.754,7.964-17.754,17.754v54.98 c0,9.79,7.964,17.754,17.754,17.754h73.306C155.83,209.611,163.794,201.647,163.794,191.857z M146.613,136.877v54.98 c0,0.316-0.257,0.573-0.573,0.573h-37.226v-19.472h9.736c4.744,0,8.591-3.846,8.591-8.591c0-4.744-3.846-8.591-8.591-8.591h-9.736 v-19.472h37.226C146.356,136.304,146.613,136.561,146.613,136.877z M72.161,191.857v-54.98c0-0.316,0.257-0.573,0.573-0.573h18.899 v56.125H72.734C72.418,192.43,72.161,192.173,72.161,191.857z"/> <path d="M343.074,118.242c-8.113-5.377-17.668-8.282-27.513-8.282c-27.474,0-49.826,22.352-49.826,49.826 s22.352,49.826,49.826,49.826c10.148,0,19.593-3.057,27.476-8.288c8.114,5.372,17.681,8.288,27.504,8.288 c27.474,0,49.826-22.352,49.826-49.826s-22.352-49.826-49.826-49.826C360.396,109.96,350.955,113.015,343.074,118.242z M282.917,159.785c0-18,14.644-32.644,32.644-32.644c5.123,0,10.124,1.207,14.629,3.466c-5.953,8.208-9.475,18.287-9.475,29.178 c0,10.593,3.37,20.765,9.455,29.179c-4.4,2.212-9.359,3.465-14.61,3.465C297.561,192.43,282.917,177.785,282.917,159.785z M403.186,159.785c0,18-14.644,32.644-32.644,32.644c-5.114,0-10.12-1.21-14.628-3.468c5.952-8.208,9.474-18.285,9.474-29.176 c0-4.744-3.846-8.591-8.591-8.591s-8.591,3.846-8.591,8.591c0,6.469-1.899,12.501-5.159,17.579 c-3.324-5.196-5.15-11.273-5.15-17.579c0-18,14.644-32.644,32.644-32.644S403.186,141.785,403.186,159.785z"/> <path d="M63.57,256.573c-4.744,0-8.591,3.846-8.591,8.591c0,4.744,3.846,8.591,8.591,8.591h73.306c4.744,0,8.591-3.846,8.591-8.591 c0-4.744-3.846-8.591-8.591-8.591H63.57z"/> <path d="M329.306,311.553H63.57c-4.744,0-8.591,3.846-8.591,8.591c0,4.744,3.846,8.591,8.591,8.591h265.736 c4.744,0,8.591-3.846,8.591-8.591C337.897,315.399,334.051,311.553,329.306,311.553z"/> <path d="M173.53,256.573c-4.744,0-8.591,3.846-8.591,8.591c0,4.744,3.846,8.591,8.591,8.591h73.306c4.744,0,8.591-3.846,8.591-8.591 c0-4.744-3.846-8.591-8.591-8.591H173.53z"/> <path d="M338.47,256.573h-54.98c-4.744,0-8.591,3.846-8.591,8.591c0,4.744,3.846,8.591,8.591,8.591h54.98 c4.744,0,8.591-3.846,8.591-8.591C347.06,260.419,343.214,256.573,338.47,256.573z"/> <path d="M493.673,322.129V283.49c0-35.053-28.517-63.57-63.57-63.57s-63.57,28.517-63.57,63.57v38.639 c-10.641,3.594-18.327,13.665-18.327,25.504v82.47c0,14.842,12.075,26.917,26.917,26.917h109.96 c14.842,0,26.917-12.075,26.917-26.917v-82.47C512,335.794,504.314,325.724,493.673,322.129z M430.103,237.101 c25.579,0,46.389,20.81,46.389,46.389v37.226h-92.779V283.49C383.714,257.911,404.524,237.101,430.103,237.101z M494.819,430.103 c0,5.369-4.367,9.736-9.736,9.736h-109.96c-5.369,0-9.736-4.367-9.736-9.736v-82.47c0-5.369,4.367-9.736,9.736-9.736h109.96 c5.369,0,9.736,4.367,9.736,9.736V430.103z"/> <path d="M430.103,357.369c-12.315,0-22.336,10.02-22.336,22.336c0,9.273,5.681,17.24,13.745,20.613v11.459 c0,4.744,3.846,8.591,8.591,8.591s8.591-3.846,8.591-8.591v-11.459c8.064-3.373,13.745-11.34,13.745-20.613 C452.438,367.389,442.418,357.369,430.103,357.369z M430.103,374.55c2.842,0,5.154,2.313,5.154,5.154 c0,2.842-2.313,5.154-5.154,5.154s-5.154-2.313-5.154-5.154C424.949,376.863,427.261,374.55,430.103,374.55z"/> </g>
</svg>