<!DOCTYPE svg PUBLIC "-//W3C//DTD SVG 1.1//EN" "http://www.w3.org/Graphics/SVG/1.1/DTD/svg11.dtd">
<!-- Uploaded to: SVG Repo, www.svgrepo.com, Transformed by: SVG Repo Mixer Tools -->
<svg height="800px" width="800px" version="1.1" id="Layer_1" xmlns="http://www.w3.org/2000/svg" xmlns:xlink="http://www.w3.org/1999/xlink" viewBox="0 0 389.902 389.902" xml:space="preserve" fill="#8f7661" stroke="#8f7661">
<g id="SVGRepo_bgCarrier" stroke-width="0"/>
<g id="SVGRepo_tracerCarrier" stroke-linecap="round" stroke-linejoin="round"/>
<g id="SVGRepo_iconCarrier"> <path style="fill:#FFFFFF;" d="M21.657,322.854h6.529c4.848-24.372,26.57-42.279,52.04-42.279s47.127,18.424,52.04,42.279h119.725 c4.848-24.372,26.57-42.279,52.04-42.279c25.471,0,47.127,18.424,52.04,42.279h11.895v-59.087H21.139v59.087H21.657z"/> <g> <path style="fill:#e8be9c;" d="M80.743,301.714c-17.325,0-31.418,14.093-31.418,31.418c0,17.325,14.093,31.418,31.418,31.418 s31.418-14.093,31.418-31.418C112.162,315.807,98.069,301.714,80.743,301.714z"/> <path style="fill:#e8be9c;" d="M336.032,333.65c0-17.325-14.093-31.418-31.418-31.418s-31.418,14.093-31.418,31.418 s14.093,31.418,31.418,31.418C321.939,365.068,336.032,350.975,336.032,333.65z"/> <polygon style="fill:#e8be9c;" points="263.37,71.379 263.37,242.046 368.549,242.046 368.549,169.965 314.311,71.379 "/> </g> <g> <polygon style="fill:#ffddc2;" points="36.848,24.769 112.743,100.599 188.574,24.769 "/> <polygon style="fill:#ffddc2;" points="188.574,207.395 112.743,131.5 36.848,207.395 "/> <polygon style="fill:#ffddc2;" points="21.657,39.896 21.657,192.203 97.552,115.791 "/> <polygon style="fill:#ffddc2;" points="204.347,39.896 128.453,115.791 204.347,192.203 "/> </g> <g> <path style="fill:#8f7661;" d="M389.107,161.884L330.02,55.088c-2.198-3.232-5.43-5.43-9.762-5.43h-67.685 c-5.947,0-10.861,4.848-10.861,10.861v182.109H10.861C4.913,242.628,0,247.476,0,253.488v80.226 c0,5.947,4.848,10.861,10.861,10.861h17.325c4.848,24.372,26.57,42.279,52.04,42.279s47.127-18.424,52.04-42.279h119.725 c4.848,24.372,26.57,42.279,52.04,42.279c25.471,0,47.127-18.424,52.04-42.279h22.756c5.948,0,10.861-4.848,10.861-10.861V167.25 C390.206,165.116,389.689,163.5,389.107,161.884z M368.549,322.854h-11.895c-4.848-24.372-26.57-42.279-52.04-42.279 c-25.471,0-47.127,18.424-52.04,42.279h-119.79c-4.848-24.372-26.57-42.279-52.04-42.279s-47.127,18.424-52.04,42.279h-7.046 v-59.087h346.828v59.087H368.549z M304.549,365.068c-17.325,0-31.418-14.093-31.418-31.418c0-17.325,14.093-31.418,31.418-31.418 c17.325,0,31.418,14.093,31.418,31.418C335.968,350.975,321.939,365.068,304.549,365.068z M80.743,365.068 c-17.325,0-31.418-14.093-31.418-31.418c0-17.325,14.093-31.418,31.418-31.418s31.418,14.093,31.418,31.418 C112.162,350.975,98.069,365.068,80.743,365.068z M368.549,242.046H263.37V71.379h50.941l54.174,98.651v72.016H368.549z"/> <path style="fill:#8f7661;" d="M10.861,229.052h204.283c5.947,0,10.861-4.848,10.861-10.861V13.908 c0-5.947-4.848-10.861-10.861-10.861H10.861C4.913,3.048,0,7.896,0,13.908v204.283C0,224.203,4.848,229.052,10.861,229.052z M188.574,207.395H36.848l75.895-75.895L188.574,207.395z M36.848,24.769h151.725l-75.83,75.83L36.848,24.769z M128.453,115.791 l75.895-75.895v151.79L128.453,115.791z M21.657,39.896l75.895,75.895l-75.895,75.895V39.896z"/> <path style="fill:#8f7661;" d="M293.172,168.349c-5.947,0-10.861,4.848-10.861,10.861c0,5.947,4.848,10.861,10.861,10.861h16.808 c5.947,0,10.861-4.848,10.861-10.861c0-5.947-4.848-10.861-10.861-10.861H293.172L293.172,168.349z"/> </g> </g>
</svg>