<svg id="_0481_computer_display" xmlns="http://www.w3.org/2000/svg" viewBox="0 0 500 500" data-imageid="computer-61" imageName="Computer" class="illustrations_image" style="width: 166px;"><defs><style>.cls-1_computer-61{fill:#fff;}.cls-2_computer-61{opacity:.19;}.cls-2_computer-61,.cls-3_computer-61,.cls-4_computer-61,.cls-5_computer-61,.cls-6_computer-61,.cls-7_computer-61,.cls-8_computer-61,.cls-9_computer-61,.cls-10_computer-61{fill:none;}.cls-11_computer-61{fill:#f4a28c;}.cls-12_computer-61{fill:#a5a5a5;}.cls-3_computer-61{opacity:.58;}.cls-13_computer-61{fill:#ce8172;}.cls-14_computer-61,.cls-15_computer-61{fill:#e6e6e6;}.cls-4_computer-61{opacity:.03;}.cls-5_computer-61{opacity:.73;}.cls-15_computer-61{opacity:.3;}.cls-6_computer-61{opacity:.08;}.cls-7_computer-61{opacity:.27;}.cls-8_computer-61{opacity:.31;}.cls-9_computer-61{opacity:.55;}.cls-16_computer-61{fill:#24285b;}.cls-17_computer-61{fill:#000001;}.cls-10_computer-61{opacity:.33;}.cls-18_computer-61{fill:#ffd200;}.cls-19_computer-61{fill:#68e1fd;}</style></defs><g id="bg_computer-61"><path class="cls-15_computer-61" d="m391.07,65.97c48.07,22.69,83.73,80.21,90.77,149.79,5.93,58.63-10.74,129.23-92.39,157.37-83.34,28.72-313.2,30.67-351.97-66.24C-1.29,209.99,12.6,89.63,101.73,52.25c62.48-26.21,195.46-30.58,289.35,13.73Z"/></g><g id="sd_computer-61" class="cls-4_computer-61"><ellipse class="cls-17_computer-61" cx="247.37" cy="446.12" rx="222.22" ry="21.33"/></g><g id="display_computer-61"><rect class="cls-12_computer-61" x="426.07" y="328.44" width="18.78" height="114.93"/><rect class="cls-12_computer-61" x="55.15" y="328.44" width="18.78" height="114.93"/><rect class="cls-12_computer-61" x="35.84" y="318.29" width="428.32" height="10.15"/><rect class="cls-14_computer-61" x="30.07" y="304.39" width="439.86" height="13.89"/><polygon class="cls-12_computer-61" points="377.71 272.12 373.28 300.28 402.85 300.28 396.05 272.12 377.71 272.12"/><rect class="cls-14_computer-61" x="366.53" y="295.35" width="41.59" height="9.05"/><rect class="cls-14_computer-61" x="318.6" y="194.36" width="135.26" height="87.88"/><rect class="cls-16_computer-61" x="323.45" y="198.92" width="124.97" height="70.39"/><circle class="cls-12_computer-61" cx="387.79" cy="275.36" r="2.56"/><polygon class="cls-12_computer-61" points="235.25 272.12 230.82 300.28 260.39 300.28 253.59 272.12 235.25 272.12"/><rect class="cls-14_computer-61" x="224.07" y="295.35" width="41.59" height="9.05"/><rect class="cls-14_computer-61" x="176.14" y="194.36" width="135.26" height="87.88"/><rect class="cls-16_computer-61" x="180.99" y="198.92" width="124.97" height="70.39"/><circle class="cls-12_computer-61" cx="245.34" cy="275.36" r="2.56"/><polygon class="cls-12_computer-61" points="92.8 272.12 88.36 300.28 117.93 300.28 111.13 272.12 92.8 272.12"/><rect class="cls-14_computer-61" x="81.61" y="295.35" width="41.59" height="9.05"/><rect class="cls-14_computer-61" x="33.68" y="194.36" width="135.26" height="87.88"/><rect class="cls-16_computer-61" x="38.53" y="198.92" width="124.97" height="70.39"/><circle class="cls-12_computer-61" cx="102.88" cy="275.36" r="2.56"/><rect class="cls-14_computer-61" x="247.37" y="106.47" width="135.26" height="87.88"/><rect class="cls-16_computer-61" x="252.22" y="111.03" width="124.97" height="70.39"/><circle class="cls-12_computer-61" cx="316.57" cy="187.48" r="2.56"/><rect class="cls-14_computer-61" x="104.91" y="106.47" width="135.26" height="87.88"/><rect class="cls-16_computer-61" x="109.76" y="111.03" width="124.97" height="70.39"/><circle class="cls-12_computer-61" cx="174.11" cy="187.48" r="2.56"/></g><g id="person_computer-61"><path class="cls-19_computer-61 targetColor" d="m328.02,228.67s-21.12.74-30.75,38.14c-6.3,24.48-88.25,27.25-88.25,27.25v8.91h88c11.85,0,23.18-5.48,30.03-15.15,1.13-1.59,2.15-3.3,2.98-5.11,5.81-12.67,18.05-47.22-2.01-54.04Z" style="fill: rgb(251, 203, 165);"/><g class="cls-6_computer-61"><path class="cls-17_computer-61" d="m328.02,228.67s-21.12.74-30.75,38.14c-6.3,24.48-88.25,27.25-88.25,27.25v8.91h88c11.85,0,23.18-5.48,30.03-15.15,1.13-1.59,2.15-3.3,2.98-5.11,5.81-12.67,18.05-47.22-2.01-54.04Z"/></g><path class="cls-19_computer-61 targetColor" d="m308.74,445.84s-.96,5.02-5.19,6.06c-4.24,1.04-4.7,5.42-.66,5.9s13.21-6.05,13.21-6.05l-1.6-7.81-5.75,1.89Z" style="fill: rgb(251, 203, 165);"/><path class="cls-19_computer-61 targetColor" d="m345.04,445.84s-.96,5.02-5.19,6.06c-4.24,1.04-4.7,5.42-.66,5.9s13.21-6.05,13.21-6.05l-1.6-7.81-5.75,1.89Z" style="fill: rgb(251, 203, 165);"/><rect class="cls-18_computer-61" x="370.62" y="378.85" width="12.48" height="67.26"/><g class="cls-6_computer-61"><rect class="cls-17_computer-61" x="370.62" y="378.85" width="12.48" height="67.26"/></g><g class="cls-6_computer-61"><polygon class="cls-17_computer-61" points="399.26 308.49 399.14 318.29 399.03 328.44 283.58 328.44 290.12 318.29 299.09 304.39 342.2 304.39 399.26 308.49"/></g><path class="cls-18_computer-61" d="m348.95,341.29s-13.79-91.57,18.39-107.33c32.19-15.76,84.08-1.19,60.43,112.05l-1.17,12.59c-1.57,16.84-15.7,29.72-32.62,29.72h-65.32c-11.98,0-15.65-16.41-4.73-21.35,3.36-1.52,7.23-2.83,11.69-3.78,6.83-1.46,11.91-7.21,12.58-14.17l.75-7.73Z"/><path class="cls-11_computer-61" d="m331.83,184.05s-.53,7.56.82,12.55c.55,2.03,2.67,3.24,4.69,2.66,2.51-.72,5.69-2.41,6.46-6.43l2.15-6.65s1.2-4.21-3.12-7.21c-4.32-3-10.92.46-11.01,5.08Z"/><polygon class="cls-11_computer-61" points="344.65 188.1 351.78 211.87 338.4 214.86 338.59 196.37 344.65 188.1"/><path class="cls-11_computer-61" d="m331.75,188.83l-2.06,2.95c-.51.73-.09,1.74.79,1.89l2.9.5-1.63-5.34Z"/><g class="cls-8_computer-61"><path class="cls-13_computer-61" d="m338.61,198.83s1.72-.37,4.72-3.33c0,0,.66,4.91-4.82,8.77l.1-5.44Z"/></g><path class="cls-18_computer-61" d="m342.58,187.35c.21.11.44.2.67.28.67.21,1.39.23,2.09.23.49,0,.99-.01,1.44-.22,1.79-.83,1.82-3.74,1.96-5.42.16-1.98.14-4.24-.93-5.98-2.4-3.93-14.98-7-17.56,1.71-1.65,5.57,3.67,6.56,7.73,6.54,1.36,0,2.28,1.25,3.32,2.02.41.31.84.61,1.29.84Z"/><path class="cls-11_computer-61" d="m339.28,188.43s0-2.92,2.2-2.73c2.19.19,2.21,4.4-.76,4.84l-1.44-2.12Z"/><path class="cls-19_computer-61 targetColor" d="m335.89,215.46l11.5-2.58s72.49-8.93,63.19,59.4c-8.73,64.14-15.11,80.88-15.11,80.88l-65.33,2.19s-3.64-54.36-14.15-68.02c-10.51-13.65-31.16-53.92,19.89-71.89Z" style="fill: rgb(251, 203, 165);"/><path class="cls-1_computer-61" d="m331.57,217.11s-4.78,65.46,15.83,94.52c0,0-1.17-68.97,16.54-98.73,0,0-16.54-4.56-32.37,4.2Z"/><path class="cls-16_computer-61" d="m327.38,329.04l-30.62,31.31c-12.6,12.88-15.92,32.22-8.35,48.57l17.22,37.2,8.87-2.16-8.53-33.43c-3.47-13.6,2.45-27.85,14.54-34.98l35.01-20.65-28.14-25.86Z"/><path class="cls-16_computer-61" d="m327.38,329.04l71.88,4.25s-.12,25.49-8.67,31.26c-4.74,3.2-22.36,9.53-37.12,14.54-12.08,4.1-18.58,17.17-14.54,29.27l11.86,35.58-10.06,2.66-21.72-42.63c-6.38-12.53-3.26-27.8,7.52-36.82l21.68-18.14-20.82-19.98Z"/><path class="cls-19_computer-61 targetColor" d="m370.29,239.57c-1.02-14.05,14.67-23.14,26.33-15.23,4.75,3.22,9.24,7.59,12.43,13.49,6.19,11.48,9.38,36.95,10.98,56.7,1.29,15.89-6.82,31.05-20.77,38.76l-42.36,23.41-6.11-7.97,32.15-25.1c8.41-6.57,10.89-18.27,5.77-27.64-7.48-13.68-16.85-34.71-18.43-56.43Z" style="fill: rgb(251, 203, 165);"/><g class="cls-2_computer-61"><path class="cls-1_computer-61" d="m370.29,239.57c-1.02-14.05,14.67-23.14,26.33-15.23,4.75,3.22,9.24,7.59,12.43,13.49,6.19,11.48,9.38,36.95,10.98,56.7,1.29,15.89-6.82,31.05-20.77,38.76l-42.36,23.41-6.11-7.97,32.15-25.1c8.41-6.57,10.89-18.27,5.77-27.64-7.48-13.68-16.85-34.71-18.43-56.43Z"/></g><path class="cls-11_computer-61" d="m350.79,348.74s-14.6,8.03-6.52,12.32c8.08,4.29,11.24-6.16,11.24-6.16l-4.72-6.16Z"/><g class="cls-7_computer-61"><path class="cls-1_computer-61" d="m331.57,217.11l-13.03,36.88,10.36,17.85-3.84,17.21,22.34,22.58s-18.5-16.59-15.83-94.52Z"/></g><path class="cls-16_computer-61" d="m338.55,214.56c.08-1.89,1.31-1.53,3.12-2.06,1.6-.46,3.67-2.53,5.24-.79,3.02,3.36-2.33,9.69-2.33,9.69h-4.94s-1.2-4.14-1.09-6.84Z"/><path class="cls-16_computer-61" d="m339.64,221.4h4.94s.46,38.34,3.73,61l-.92,29.23s-10.67-14.24-12.36-32.49c0,0,.5-35.89,4.6-57.73Z"/><path class="cls-19_computer-61 targetColor" d="m331.57,217.11l6.05,4.3,4.84-7.03,5.06,6.28,16.42-7.75s-19.86-8.05-32.37,4.2Z" style="fill: rgb(251, 203, 165);"/><g class="cls-9_computer-61"><path class="cls-1_computer-61" d="m331.57,217.11l6.05,4.3,4.84-7.03,5.06,6.28,16.42-7.75s-19.86-8.05-32.37,4.2Z"/></g><g class="cls-7_computer-61"><path class="cls-1_computer-61" d="m363.94,212.9l2.74,48.77-12.81,7.64,7.55,15.88-14.03,26.44s-.86-69.35,16.54-98.73Z"/></g><path class="cls-11_computer-61" d="m209.02,296.03s-14.1-2.54-12.79,6.94h12.79v-6.94Z"/><polygon class="cls-18_computer-61" points="370.62 435.39 383.11 435.39 403.24 457.83 352.38 457.83 370.62 435.39"/><g class="cls-10_computer-61"><polygon class="cls-1_computer-61" points="370.62 435.39 383.11 435.39 403.24 457.83 352.38 457.83 370.62 435.39"/></g></g><g id="plant_computer-61"><g class="cls-3_computer-61"><path class="cls-19_computer-61 targetColor" d="m114.17,426.08s-12.73-3.48-15.5-15.33c0,0,19.73-3.99,20.29,16.37l-4.79-1.05Z" style="fill: rgb(251, 203, 165);"/></g><g class="cls-5_computer-61"><path class="cls-19_computer-61 targetColor" d="m115.74,424.82s-8.89-14.06-1.07-27.21c0,0,15,9.53,8.33,27.24l-7.27-.03Z" style="fill: rgb(251, 203, 165);"/></g><path class="cls-19_computer-61 targetColor" d="m118.03,424.83s4.7-14.85,18.91-17.66c0,0,2.66,9.64-9.2,17.7l-9.71-.04Z" style="fill: rgb(251, 203, 165);"/><polygon class="cls-16_computer-61" points="108.79 424.49 111.37 442.15 127.63 442.22 130.02 424.58 108.79 424.49"/></g></svg>