<svg id="_0070_notes" xmlns="http://www.w3.org/2000/svg" viewBox="0 0 500 500" data-imageid="notes-37" imageName="Notes" class="illustrations_image" style="width: 166px;"><defs><style>.cls-1_notes-37{fill:#fff;}.cls-2_notes-37{fill:#f4a28c;}.cls-3_notes-37{opacity:.46;}.cls-3_notes-37,.cls-4_notes-37,.cls-5_notes-37,.cls-6_notes-37,.cls-7_notes-37,.cls-8_notes-37,.cls-9_notes-37,.cls-10_notes-37{fill:none;}.cls-11_notes-37{fill:#a5a5a5;}.cls-4_notes-37{opacity:.42;}.cls-5_notes-37{opacity:.58;}.cls-6_notes-37{opacity:.4;}.cls-12_notes-37{fill:#e6e6e6;}.cls-7_notes-37{opacity:.03;}.cls-8_notes-37{opacity:.73;}.cls-9_notes-37{opacity:.08;}.cls-10_notes-37{opacity:.2;}.cls-13_notes-37{fill:#24285b;}.cls-14_notes-37{fill:#000001;}.cls-15_notes-37{fill:#ffd200;}.cls-16_notes-37{fill:#68e1fd;}</style></defs><g id="board_notes_notes-37"><rect class="cls-12_notes-37" x="101.52" y="51.31" width="305.71" height="261.21"/><rect class="cls-13_notes-37" x="221.89" y="101.34" width="61.83" height="61.83"/><g class="cls-6_notes-37"><rect class="cls-1_notes-37" x="245.36" y="91.66" width="11.82" height="22.17"/></g><rect class="cls-15_notes-37" x="320.57" y="102.62" width="61.83" height="61.83"/><g class="cls-4_notes-37"><rect class="cls-1_notes-37" x="319.04" y="201.17" width="61.83" height="61.83"/></g><g class="cls-4_notes-37"><rect class="cls-1_notes-37" x="221.89" y="201.17" width="61.83" height="61.83"/></g><rect class="cls-1_notes-37" x="125.9" y="201.17" width="61.83" height="61.83"/><g class="cls-6_notes-37"><rect class="cls-1_notes-37" x="344.04" y="92.94" width="11.82" height="22.17"/></g><rect class="cls-15_notes-37" x="127.43" y="102.62" width="61.83" height="61.83"/><g class="cls-6_notes-37"><rect class="cls-1_notes-37" x="150.91" y="92.94" width="11.82" height="22.17"/></g><rect class="cls-1_notes-37" x="235.26" y="278.09" width="35.09" height="9"/><g class="cls-9_notes-37"><path class="cls-14_notes-37" d="m157.42,208.74l-34.79.94-11.47,102.85h49.8s0,0,0,0c2.8-9.53,11.09-16.44,20.98-17.3,38.69-3.33,131.24-9.08,113.45-117.65-2-12.22-7.35-13.84-7.35-13.84l-47.36,55.2-46.74,24.4-36.53-34.58Z"/></g><g class="cls-6_notes-37"><rect class="cls-1_notes-37" x="141.02" y="127.42" width="34.67" height="6.12"/></g><g class="cls-6_notes-37"><rect class="cls-1_notes-37" x="354.14" y="150.31" width="22.03" height="6.12"/></g><rect class="cls-15_notes-37" x="252.8" y="150.31" width="22.03" height="6.12"/><g class="cls-6_notes-37"><rect class="cls-1_notes-37" x="141.02" y="141.18" width="34.67" height="6.12"/></g><rect class="cls-1_notes-37" x="332.41" y="278.09" width="35.09" height="9"/><circle class="cls-11_notes-37" cx="259" cy="49.62" r="15.44"/></g><g id="sd_notes-37" class="cls-7_notes-37"><ellipse class="cls-14_notes-37" cx="255.55" cy="436.34" rx="217.32" ry="29.48"/></g><g id="plant_notes-37"><g class="cls-5_notes-37"><path class="cls-16_notes-37 targetColor" d="m345.76,416.32s-14.19-3.88-17.28-17.09c0,0,21.99-4.45,22.62,18.26l-5.34-1.17Z" style="fill: rgb(251, 203, 165);"/></g><g class="cls-8_notes-37"><path class="cls-16_notes-37 targetColor" d="m347.5,414.91s-9.92-15.68-1.19-30.34c0,0,16.72,10.62,9.29,30.37l-8.1-.03Z" style="fill: rgb(251, 203, 165);"/></g><path class="cls-16_notes-37 targetColor" d="m350.06,414.92s5.24-16.56,21.08-19.69c0,0,2.97,10.75-10.26,19.74l-10.82-.05Z" style="fill: rgb(251, 203, 165);"/><polygon class="cls-13_notes-37" points="339.77 414.55 342.64 434.24 360.76 434.31 363.44 414.65 339.77 414.55"/></g><g id="person_notes-37"><polygon class="cls-2_notes-37" points="100.73 158.58 106.38 175.53 92.97 184.05 88.14 154.67 100.73 158.58"/><path class="cls-2_notes-37" d="m83.53,138.29c2.88-7.04,12.26-8.48,17.46-2.93,5.71,6.09,12.59,15.79,4.81,21.06-11.92,8.08-22.85-7.01-22.85-7.01,0,0-1.6-5.78.59-11.12Z"/><path class="cls-2_notes-37" d="m92.25,148.68s-3.05-2.55-4.44,1.07c-1.38,3.63,4.01,5.38,5.62,3.55,1.61-1.83-1.18-4.62-1.18-4.62Z"/><path class="cls-16_notes-37 targetColor" d="m81.56,184.21s-48.01,29.07-54.33,97.31c-1.09,11.73,6.48,22.53,17.93,25.29l56.28,13.57-19.88-136.17Z" style="fill: rgb(251, 203, 165);"/><g class="cls-10_notes-37"><path class="cls-1_notes-37" d="m81.56,184.21s-48.01,29.07-54.33,97.31c-1.09,11.73,6.48,22.53,17.93,25.29l56.28,13.57-19.88-136.17Z"/></g><rect class="cls-15_notes-37" x="35.35" y="281.52" width="81.19" height="53.1" transform="translate(-121.72 59.87) rotate(-24.68)"/><path class="cls-13_notes-37" d="m93.93,144.28s6.34,18.14-4.71,17c-11.05-1.14-4.99-8.92-10.47-17-5.48-8.07-2.6-13.52,5.77-20.6,3.84-3.25,6.42-4.76,7.96-6.48,2.92-3.26,8.29-2.64,9.95,1.41,2.85,6.96,2.88,16.28-8.49,25.67Z"/><path class="cls-16_notes-37 targetColor" d="m70.47,198.49c4.56-10.25,13.48-17.92,24.22-21.15,20.53-6.17,59.51-19.11,71.03.09,15.77,26.29-8.5,129.49-8.5,129.49l-68.98,5.36s-37.95-68.45-17.77-113.79Z" style="fill: rgb(251, 203, 165);"/><polygon class="cls-13_notes-37" points="157.22 306.92 148.14 425.52 133.79 425.52 120.99 333.38 89.27 312.28 157.22 306.92"/><polygon class="cls-13_notes-37" points="89.27 312.28 69.48 425.52 84.86 425.52 118.08 331.44 89.27 312.28"/><g class="cls-9_notes-37"><path class="cls-14_notes-37" d="m100.65,175.54s-32.27,103.93,60.91,110.82l-4.35,20.56-68.98,5.36s-24.31-38.17-23.28-91.78c0,0,.59-26.51,19.25-38.23,0,0,7.12-5.25,16.45-6.74Z"/></g><path class="cls-16_notes-37 targetColor" d="m72.27,425.52l-9.54,7.03c-1.63,1.2-.78,3.79,1.24,3.79h15.99c1.16,0,2.1-.94,2.1-2.1v-8.72h-9.79Z" style="fill: rgb(251, 203, 165);"/><path class="cls-16_notes-37 targetColor" d="m147.74,425.52l8.98,7.03c1.59,1.24.71,3.79-1.31,3.79h-11.38c-3.36,0-6.08-2.72-6.08-6.08v-4.74h9.79Z" style="fill: rgb(251, 203, 165);"/><path class="cls-2_notes-37" d="m286.74,166.14s6.97-11.06-.98-14.07c-7.95-3.02-7.27,11.66-7.27,11.66l8.25,2.42Z"/><path class="cls-16_notes-37 targetColor" d="m288.84,166.76l-10.35-3.03-45.37,39.43h0c-6.8,5.91-16.24,7.74-24.75,4.77-9.46-3.31-21.29-10.04-29.73-23.72-16.32-26.45-44.02-16.88-44.02-16.88,0,0-20.87,20.57,20.49,55.86,24.69,21.07,49.97,22.39,66.34,20.03,2-.29,4.01-.33,6.03-.39,1.8-.05,3.68-.45,5.6-1.26,2.11-.89,4.26-1.96,6.43-3.19h0s0,0,0,0c16.77-9.58,34.87-30.11,49.32-71.61Z" style="fill: rgb(251, 203, 165);"/><g class="cls-10_notes-37"><path class="cls-1_notes-37" d="m288.84,166.76l-10.35-3.03-45.37,39.43h0c-6.8,5.91-16.24,7.74-24.75,4.77-9.46-3.31-21.29-10.04-29.73-23.72-16.32-26.45-44.02-16.88-44.02-16.88,0,0-20.87,20.57,20.49,55.86,24.69,21.07,49.97,22.39,66.34,20.03,2-.29,4.01-.33,6.03-.39,1.8-.05,3.68-.45,5.6-1.26,2.11-.89,4.26-1.96,6.43-3.19h0s0,0,0,0c16.77-9.58,34.87-30.11,49.32-71.61Z"/></g></g><g id="coffee_notes-37"><rect class="cls-11_notes-37" x="389.27" y="393.7" width="52.05" height="6.69"/><polygon class="cls-12_notes-37" points="387.12 335.09 380.56 436.34 387.12 436.34 401.06 335.09 387.12 335.09"/><polygon class="cls-12_notes-37" points="441.22 335.09 447.78 436.34 441.22 436.34 427.29 335.09 441.22 335.09"/><rect class="cls-11_notes-37" x="380.56" y="322.14" width="67.21" height="15.94"/><path class="cls-15_notes-37" d="m433.6,316.62h-13.39v-2.95h13.39c1.96,0,3.56-1.6,3.56-3.56v-9.58c0-1.96-1.6-3.56-3.56-3.56h-13.39v-2.95h13.39c3.59,0,6.51,2.92,6.51,6.51v9.58c0,3.59-2.92,6.51-6.51,6.51Z"/><g class="cls-3_notes-37"><path class="cls-1_notes-37" d="m433.6,316.62h-13.39v-2.95h13.39c1.96,0,3.56-1.6,3.56-3.56v-9.58c0-1.96-1.6-3.56-3.56-3.56h-13.39v-2.95h13.39c3.59,0,6.51,2.92,6.51,6.51v9.58c0,3.59-2.92,6.51-6.51,6.51Z"/></g><rect class="cls-15_notes-37" x="401.76" y="287.31" width="26.07" height="35.03"/><g class="cls-9_notes-37"><ellipse class="cls-14_notes-37" cx="415.11" cy="304.26" rx="7.8" ry="8.72"/></g><g class="cls-7_notes-37"><path class="cls-14_notes-37" d="m405.55,287.52s-2.82-9.39,4.69-10.33,17.84.94,13.99-10.33c-3.85-11.26-8.92-8.82-3.29-21.59,5.63-12.77,20.46,9.95,25.91-2.07,5.44-12.02,12.95-7.88,20.46-1.97,7.51,5.91,9.01,24.31-5.82,27.13-14.83,2.82-17.84,6.03-20.84,14.28-3,8.25-18.21,4.87-18.21,4.87h-16.9Z"/></g></g></svg>