<svg id="_0062_office_work" xmlns="http://www.w3.org/2000/svg" viewBox="0 0 500 500" data-imageid="office-work-81" imageName="Office Work" class="illustrations_image" style="width: 166px;"><defs><style>.cls-1_office-work-81{fill:#fff;}.cls-2_office-work-81{fill:#f4a28c;}.cls-3_office-work-81{opacity:.46;}.cls-3_office-work-81,.cls-4_office-work-81,.cls-5_office-work-81,.cls-6_office-work-81,.cls-7_office-work-81,.cls-8_office-work-81{fill:none;}.cls-9_office-work-81{fill:#a5a5a5;}.cls-4_office-work-81{opacity:.58;}.cls-10_office-work-81{fill:#e6e6e6;}.cls-5_office-work-81{opacity:.03;}.cls-6_office-work-81{opacity:.73;}.cls-7_office-work-81{opacity:.08;}.cls-8_office-work-81{opacity:.28;}.cls-11_office-work-81{fill:#24285b;}.cls-12_office-work-81{fill:#000001;}.cls-13_office-work-81{fill:#ffd200;}.cls-14_office-work-81{fill:#68e1fd;}</style></defs><g id="sd_office-work-81" class="cls-5_office-work-81"><ellipse class="cls-12_office-work-81" cx="250" cy="442.62" rx="208.33" ry="35.25"/></g><g id="clock_office-work-81"><circle class="cls-9_office-work-81" cx="388.36" cy="67.17" r="45.05"/><circle class="cls-10_office-work-81" cx="388.36" cy="67.17" r="30.31"/><path class="cls-9_office-work-81" d="m396.74,75.27c-.23,0-.46-.08-.65-.24l-8.38-7.1c-.22-.19-.35-.47-.35-.76v-20.97c0-.55.45-1,1-1s1,.45,1,1v20.51l8.03,6.8c.42.36.47.99.12,1.41-.2.23-.48.35-.76.35Z"/></g><g id="worker_office-work-81"><path class="cls-14_office-work-81 targetColor" d="m308.58,357.59s2.71,7.41-2.08,12.14c-4.78,4.73-1.93,10.89,3.79,8.34,5.72-2.55,12.69-18.47,12.69-18.47l-6.54-7.15-7.87,5.14Z" style="fill: rgb(251, 203, 165);"/><g class="cls-7_office-work-81"><path class="cls-12_office-work-81" d="m308.58,357.59s2.71,7.41-2.08,12.14c-4.78,4.73-1.93,10.89,3.79,8.34,5.72-2.55,12.69-18.47,12.69-18.47l-6.54-7.15-7.87,5.14Z"/></g><polygon class="cls-11_office-work-81" points="277.08 322.12 307.03 358.8 315.6 352.58 286.73 292.56 277.08 304.89 277.08 322.12"/><g class="cls-7_office-work-81"><polyline class="cls-12_office-work-81" points="277.08 304.89 277.08 322.12 307.03 358.8"/></g><path class="cls-14_office-work-81 targetColor" d="m313.66,351.73s2.71,7.41-2.08,12.14c-4.78,4.73-1.93,10.89,3.79,8.34,5.72-2.55,12.69-18.47,12.69-18.47l-6.54-7.15-7.87,5.14Z" style="fill: rgb(251, 203, 165);"/><path class="cls-11_office-work-81" d="m387.91,255.56s4.1,25.07-12.38,29.33c-10.72,2.77-41.62,3.74-61.93,4.08-8.73.15-14.37,9.29-10.56,17.15l19.74,40.72-9.23,7.39-35.64-43.63c-11.96-14.64-6.62-36.66,10.72-44.2l24.93-10.84h74.37Z"/><path class="cls-2_office-work-81" d="m240.38,211.4s-20.53-4.33-17.12,7.19l23.66.3-6.54-7.49Z"/><g class="cls-7_office-work-81"><path class="cls-12_office-work-81" d="m240.38,211.4s-20.53-4.33-17.12,7.19l23.66.3-6.54-7.49Z"/></g><path class="cls-14_office-work-81 targetColor" d="m284.11,118.37c-17.25-6.24-34.04,10.58-27.69,27.79.09.24.18.48.27.72,9.44,24.24,58.87,53.83,58.87,53.83l-66.74,11.33,3.15,15.43s70.52,13.54,96.33-7.56c23.7-19.37-9.39-81.73-64.2-101.55Z" style="fill: rgb(251, 203, 165);"/><g class="cls-7_office-work-81"><path class="cls-12_office-work-81" d="m284.11,118.37c-17.25-6.24-34.04,10.58-27.69,27.79.09.24.18.48.27.72,9.44,24.24,58.87,53.83,58.87,53.83l-66.74,11.33,3.15,15.43s70.52,13.54,96.33-7.56c23.7-19.37-9.39-81.73-64.2-101.55Z"/></g><g class="cls-8_office-work-81"><rect class="cls-10_office-work-81" x="118.19" y="215.98" width="51.58" height="9.75"/></g><g class="cls-8_office-work-81"><rect class="cls-10_office-work-81" x="118.19" y="206.23" width="33.68" height="9.75"/></g><path class="cls-2_office-work-81" d="m213.66,100.5s3.35,12.19,8.25,19.3c1.99,2.88,6,3.62,8.86,1.59,3.55-2.52,7.61-6.95,6.61-13.7l-.3-11.66s-.44-7.3-8.9-9.63c-8.46-2.33-16.93,6.78-14.51,14.1Z"/><polygon class="cls-2_office-work-81" points="225.09 92.62 262.64 110.08 251.54 130.09 229.25 109.87 225.09 92.62"/><path class="cls-11_office-work-81" d="m212.9,100.52c.83,1.03,2.62-.22,3.88-.61,2.11-.66,5.9-2.08,10.61-4.89,0,0-1.79,6.53,4.02,10.84,5.81,4.31,9.07-5.17,9.07-5.17l-4-10.38-.35-2.93c-.43-3.67.16-7.33,1.11-10.91.31-1.15.09-2.67-1.47-4.53-3.9-4.64-7.77-2.96-11.99,3.07-4.21,6.03-7.06-5.33-12.74-1.79-5.68,3.53.55,7.95-3.64,10.35-4.19,2.4-12.16,3.73-8.26,9.59,1.75,2.63,4.07,3.4,6.08,3.45,2.92.07,5.7,1.32,7.47,3.65.07.09.14.18.2.26Z"/><path class="cls-2_office-work-81" d="m230.01,105.97s-1.6-4.59,1.95-5.51c3.56-.92,5.91,5.7,1.49,8.05l-3.44-2.53Z"/><path class="cls-14_office-work-81 targetColor" d="m254.06,117.04l2.67-2.67c10.31-10.32,24.5-15.9,39.06-15.12,17.05.92,39.35,6.5,56.87,26.13,32.97,36.95,45.47,79.58,35.24,130.17h-74.37s-6.35-31.26-36.48-36.95c-30.13-5.68-53.4-61.03-23-101.57Z" style="fill: rgb(251, 203, 165);"/><g class="cls-4_office-work-81"><path class="cls-14_office-work-81 targetColor" d="m109.41,207s-15.77-4.24-19.26-18.88c0,0,24.39-5.04,25.19,20.15l-5.93-1.27Z" style="fill: rgb(251, 203, 165);"/></g><g class="cls-6_office-work-81"><path class="cls-14_office-work-81 targetColor" d="m111.34,205.43s-11.08-17.35-1.46-33.66c0,0,18.61,11.71,10.45,33.66h-8.99Z" style="fill: rgb(251, 203, 165);"/></g><path class="cls-14_office-work-81 targetColor" d="m114.17,205.43s5.74-18.4,23.3-21.95c0,0,3.35,11.92-11.29,21.95h-12.01Z" style="fill: rgb(251, 203, 165);"/><polygon class="cls-11_office-work-81" points="102.75 205.06 106.03 226.9 126.14 226.9 129.02 205.06 102.75 205.06"/><g class="cls-7_office-work-81"><path class="cls-12_office-work-81" d="m254.06,117.04s24.66-7.65,51.28,18.3c75.17,73.28-7.87,93.1-7.87,93.1,0,0,14.03,13.06,16.07,27.12h74.37s15.09-54.94-16.68-105.27c0,0-26.15-50.45-75.43-51.03,0,0-23.59-2.5-41.73,17.79Z"/></g><path class="cls-2_office-work-81" d="m216.17,108.07l-1.61,5.79c-.4,1.43.83,2.79,2.29,2.54l4.85-.83-5.53-7.5Z"/><path class="cls-14_office-work-81 targetColor" d="m295.2,115.05c-17.25-6.24-34.04,10.58-27.69,27.79.09.24.18.48.27.72,9.44,24.24,58.87,53.83,58.87,53.83l-66.74,11.33,3.15,15.43s70.52,13.54,96.33-7.56c23.7-19.37-9.39-81.73-64.2-101.55Z" style="fill: rgb(251, 203, 165);"/><g class="cls-3_office-work-81"><path class="cls-1_office-work-81" d="m295.2,115.05c-17.25-6.24-34.04,10.58-27.69,27.79.09.24.18.48.27.72,9.44,24.24,58.87,53.83,58.87,53.83l-66.74,11.33,3.15,15.43s70.52,13.54,96.33-7.56c23.7-19.37-9.39-81.73-64.2-101.55Z"/></g><path class="cls-2_office-work-81" d="m261.76,211.1s-21.05-6.66-22.94.84c-1.89,7.49,23.97,10.88,23.97,10.88l-1.03-11.72Z"/><rect class="cls-10_office-work-81" x="90.16" y="225.73" width="196.57" height="18.75"/><polygon class="cls-13_office-work-81" points="254.52 225.73 253.6 218.97 179.81 218.04 146.89 152.81 138.37 155.37 170.77 225.73 254.52 225.73"/><rect class="cls-13_office-work-81" x="355.43" y="312.11" width="10.8" height="133.11"/><g class="cls-7_office-work-81"><rect class="cls-12_office-work-81" x="355.43" y="312.11" width="10.8" height="133.11"/></g><path class="cls-13_office-work-81" d="m355.43,422.67h10.8l24.21,15.01c3.49,2.16,1.96,7.54-2.15,7.54h-50.4c-3.9,0-5.58-4.96-2.47-7.32l20.01-15.23Z"/><rect class="cls-13_office-work-81" x="320.91" y="281.42" width="81.69" height="30.69"/><rect class="cls-10_office-work-81" x="90.16" y="244.48" width="186.92" height="197.78"/><g class="cls-7_office-work-81"><path class="cls-12_office-work-81" d="m236.71,105.49l17.35,11.55,8.58-6.96-22.59-10.5-3.57-9.26s-1.47-7.48.76-13.84c0,0-7.35,3.73-4.8,14.1,2.56,10.37,3.77,13.86,4.26,14.92Z"/></g><g class="cls-7_office-work-81"><path class="cls-12_office-work-81" d="m272.82,119.84s25.49-.49,46.38,25.72c20.89,26.22,40.29,41.14,31.55,56.7-8.74,15.56-48.18,26.05-48.18,26.05,0,0,53.97,2.84,62.69-19.71,0,0,7.47-14.28-7.46-40.79,0,0-22.23-40.24-62.6-52.77,0,0-13.34-5.37-22.38,4.8Z"/></g><g class="cls-7_office-work-81"><path class="cls-12_office-work-81" d="m147.59,225.73s-38.37,96.8,0,148.32c38.37,51.52,77.5,68.21,77.5,68.21H90.16v-216.53h57.43Z"/></g><rect class="cls-10_office-work-81" x="112.26" y="93.59" width="51.08" height="29.92"/><polygon class="cls-10_office-work-81" points="133.85 123.51 137.92 135.65 141.71 123.51 133.85 123.51"/><circle class="cls-9_office-work-81" cx="126.5" cy="107.37" r="3.45"/><circle class="cls-9_office-work-81" cx="137.78" cy="107.37" r="3.45"/><circle class="cls-9_office-work-81" cx="149.1" cy="107.37" r="3.45"/></g></svg>