<svg id="_0001_analysis" xmlns="http://www.w3.org/2000/svg" xmlns:xlink="http://www.w3.org/1999/xlink" viewBox="0 0 500 500" data-imageid="team-presentation-9-97" imageName="Team Presentation 9" class="illustrations_image" style="width: 166px;"><defs><style>.cls-1_team-presentation-9-97{fill:url(#linear-gradient);}.cls-1_team-presentation-9-97,.cls-2_team-presentation-9-97,.cls-3_team-presentation-9-97,.cls-4_team-presentation-9-97,.cls-5_team-presentation-9-97,.cls-6_team-presentation-9-97,.cls-7_team-presentation-9-97,.cls-8_team-presentation-9-97,.cls-9_team-presentation-9-97,.cls-10_team-presentation-9-97,.cls-11_team-presentation-9-97,.cls-12_team-presentation-9-97,.cls-13_team-presentation-9-97,.cls-14_team-presentation-9-97,.cls-15_team-presentation-9-97,.cls-16_team-presentation-9-97,.cls-17_team-presentation-9-97,.cls-18_team-presentation-9-97,.cls-19_team-presentation-9-97,.cls-20_team-presentation-9-97,.cls-21_team-presentation-9-97,.cls-22_team-presentation-9-97,.cls-23_team-presentation-9-97,.cls-24_team-presentation-9-97,.cls-25_team-presentation-9-97,.cls-26_team-presentation-9-97,.cls-27_team-presentation-9-97,.cls-28_team-presentation-9-97,.cls-29_team-presentation-9-97,.cls-30_team-presentation-9-97,.cls-31_team-presentation-9-97,.cls-32_team-presentation-9-97,.cls-33_team-presentation-9-97,.cls-34_team-presentation-9-97,.cls-35_team-presentation-9-97,.cls-36_team-presentation-9-97,.cls-37_team-presentation-9-97,.cls-38_team-presentation-9-97,.cls-39_team-presentation-9-97{stroke-width:0px;}.cls-2_team-presentation-9-97{fill:url(#linear-gradient-29-team-presentation-9-97);}.cls-3_team-presentation-9-97{fill:url(#linear-gradient-30-team-presentation-9-97);}.cls-4_team-presentation-9-97{fill:url(#linear-gradient-31-team-presentation-9-97);}.cls-5_team-presentation-9-97{fill:url(#linear-gradient-28-team-presentation-9-97);}.cls-6_team-presentation-9-97{fill:url(#linear-gradient-25-team-presentation-9-97);}.cls-7_team-presentation-9-97{fill:url(#linear-gradient-11-team-presentation-9-97);}.cls-8_team-presentation-9-97{fill:url(#linear-gradient-12-team-presentation-9-97);}.cls-9_team-presentation-9-97{fill:url(#linear-gradient-13-team-presentation-9-97);}.cls-10_team-presentation-9-97{fill:url(#linear-gradient-10-team-presentation-9-97);}.cls-11_team-presentation-9-97{fill:url(#linear-gradient-17-team-presentation-9-97);}.cls-12_team-presentation-9-97{fill:url(#linear-gradient-16-team-presentation-9-97);}.cls-13_team-presentation-9-97{fill:url(#linear-gradient-19-team-presentation-9-97);}.cls-14_team-presentation-9-97{fill:url(#linear-gradient-15-team-presentation-9-97);}.cls-15_team-presentation-9-97{fill:url(#linear-gradient-23-team-presentation-9-97);}.cls-16_team-presentation-9-97{fill:url(#linear-gradient-21-team-presentation-9-97);}.cls-17_team-presentation-9-97{fill:url(#linear-gradient-18-team-presentation-9-97);}.cls-18_team-presentation-9-97{fill:url(#linear-gradient-14-team-presentation-9-97);}.cls-19_team-presentation-9-97{fill:url(#linear-gradient-22-team-presentation-9-97);}.cls-20_team-presentation-9-97{fill:url(#linear-gradient-20-team-presentation-9-97);}.cls-21_team-presentation-9-97{fill:url(#linear-gradient-27-team-presentation-9-97);}.cls-22_team-presentation-9-97{fill:url(#linear-gradient-24-team-presentation-9-97);}.cls-23_team-presentation-9-97{fill:url(#linear-gradient-26-team-presentation-9-97);}.cls-24_team-presentation-9-97,.cls-25_team-presentation-9-97,.cls-35_team-presentation-9-97{isolation:isolate;}.cls-24_team-presentation-9-97,.cls-25_team-presentation-9-97,.cls-35_team-presentation-9-97,.cls-39_team-presentation-9-97{fill:#68e1fd;}.cls-24_team-presentation-9-97,.cls-40_team-presentation-9-97{opacity:.8;}.cls-25_team-presentation-9-97{opacity:.4;}.cls-26_team-presentation-9-97{fill:url(#linear-gradient-4-team-presentation-9-97);}.cls-27_team-presentation-9-97{fill:url(#linear-gradient-2-team-presentation-9-97);}.cls-28_team-presentation-9-97{fill:url(#linear-gradient-3-team-presentation-9-97);}.cls-29_team-presentation-9-97{fill:url(#linear-gradient-8-team-presentation-9-97);}.cls-30_team-presentation-9-97{fill:url(#linear-gradient-9-team-presentation-9-97);}.cls-31_team-presentation-9-97{fill:url(#linear-gradient-7-team-presentation-9-97);}.cls-32_team-presentation-9-97{fill:url(#linear-gradient-5-team-presentation-9-97);}.cls-33_team-presentation-9-97{fill:url(#linear-gradient-6-team-presentation-9-97);}.cls-35_team-presentation-9-97{opacity:.27;}.cls-36_team-presentation-9-97{fill:#c14834;}.cls-37_team-presentation-9-97{fill:#fff;}.cls-38_team-presentation-9-97{fill:#ffb4a3;}</style><linearGradient id="linear-gradient-team-presentation-9-97" x1="-87.24" y1="-1251.1" x2="-87.24" y2="-1107.46" gradientTransform="translate(389.89 1490.09)" gradientUnits="userSpaceOnUse"><stop offset="0" stop-color="#231f20" stop-opacity="0"/><stop offset="1" stop-color="#231f20"/></linearGradient><linearGradient id="linear-gradient-2-team-presentation-9-97" x1="-112.8" y1="-1081.85" x2="-107.38" y2="-1060.03" xlink:href="#linear-gradient-team-presentation-9-97"/><linearGradient id="linear-gradient-3-team-presentation-9-97" x1="-81.44" y1="-1081.9" x2="-69.79" y2="-1056.16" xlink:href="#linear-gradient-team-presentation-9-97"/><linearGradient id="linear-gradient-4-team-presentation-9-97" x1="-139.28" y1="-1238.73" x2="68.63" y2="-1270.21" xlink:href="#linear-gradient-team-presentation-9-97"/><linearGradient id="linear-gradient-5-team-presentation-9-97" x1="-70.92" y1="-1257.51" x2="-40.1" y2="-1281.56" xlink:href="#linear-gradient-team-presentation-9-97"/><linearGradient id="linear-gradient-6-team-presentation-9-97" x1="-61.81" y1="-1083.55" x2="-66.83" y2="-1066.93" xlink:href="#linear-gradient-team-presentation-9-97"/><linearGradient id="linear-gradient-7-team-presentation-9-97" x1="296.02" y1="291.56" x2="296.35" y2="303.78" gradientTransform="translate(0 502) scale(1 -1)" xlink:href="#linear-gradient-team-presentation-9-97"/><linearGradient id="linear-gradient-8-team-presentation-9-97" x1="-295.36" y1="-1110.08" x2="-311.54" y2="-1131.5" gradientTransform="translate(409 1524.65)" xlink:href="#linear-gradient-team-presentation-9-97"/><linearGradient id="linear-gradient-9-team-presentation-9-97" x1="-299.72" y1="-1084.61" x2="-297.73" y2="-1098.05" gradientTransform="translate(409 1524.65)" xlink:href="#linear-gradient-team-presentation-9-97"/><linearGradient id="linear-gradient-10-team-presentation-9-97" x1="-232" y1="-1067.96" x2="-233.3" y2="-1053.64" xlink:href="#linear-gradient-team-presentation-9-97"/><linearGradient id="linear-gradient-11-team-presentation-9-97" x1="-192.47" y1="-1073.43" x2="-189.1" y2="-1059.9" xlink:href="#linear-gradient-team-presentation-9-97"/><linearGradient id="linear-gradient-12-team-presentation-9-97" x1="-230.08" y1="-1197.09" x2="-255.31" y2="-1192.96" xlink:href="#linear-gradient-team-presentation-9-97"/><linearGradient id="linear-gradient-13-team-presentation-9-97" x1="-222.11" y1="-1195.27" x2="-258.19" y2="-1162.27" xlink:href="#linear-gradient-team-presentation-9-97"/><linearGradient id="linear-gradient-14-team-presentation-9-97" x1="-244.4" y1="-1190.97" x2="-325.62" y2="-1185.44" xlink:href="#linear-gradient-team-presentation-9-97"/><linearGradient id="linear-gradient-15-team-presentation-9-97" x1="-198.74" y1="-1184.68" x2="-202.84" y2="-1168.44" xlink:href="#linear-gradient-team-presentation-9-97"/><linearGradient id="linear-gradient-16-team-presentation-9-97" x1="-264.54" y1="-1195.97" x2="-324.41" y2="-1197.92" xlink:href="#linear-gradient-team-presentation-9-97"/><linearGradient id="linear-gradient-17-team-presentation-9-97" x1="-143.83" y1="-1093.11" x2="-296.66" y2="-1123.93" xlink:href="#linear-gradient-team-presentation-9-97"/><linearGradient id="linear-gradient-18-team-presentation-9-97" x1="-258.07" y1="-1233.11" x2="-266.43" y2="-1231.55" xlink:href="#linear-gradient-team-presentation-9-97"/><linearGradient id="linear-gradient-19-team-presentation-9-97" x1="-214.36" y1="-1123.68" x2="-244.97" y2="-1104.45" xlink:href="#linear-gradient-team-presentation-9-97"/><linearGradient id="linear-gradient-20-team-presentation-9-97" x1="-36.51" y1="-1195.82" x2="-36.84" y2="-1169.25" xlink:href="#linear-gradient-team-presentation-9-97"/><linearGradient id="linear-gradient-21-team-presentation-9-97" x1="-1.38" y1="-1123.28" x2="-17.56" y2="-1144.7" gradientTransform="translate(409 1524.65)" xlink:href="#linear-gradient-team-presentation-9-97"/><linearGradient id="linear-gradient-22-team-presentation-9-97" x1="-5.73" y1="-1097.78" x2="-3.74" y2="-1111.23" gradientTransform="translate(409 1524.65)" xlink:href="#linear-gradient-team-presentation-9-97"/><linearGradient id="linear-gradient-23-team-presentation-9-97" x1="16.75" y1="-1194.75" x2="-33.75" y2="-1177.04" xlink:href="#linear-gradient-team-presentation-9-97"/><linearGradient id="linear-gradient-24-team-presentation-9-97" x1="-24.34" y1="-1263.03" x2="-23.58" y2="-1252.15" gradientTransform="translate(409 1524.65)" xlink:href="#linear-gradient-team-presentation-9-97"/><linearGradient id="linear-gradient-25-team-presentation-9-97" x1="78.61" y1="-1135.21" x2="-30.92" y2="-1136.53" xlink:href="#linear-gradient-team-presentation-9-97"/><linearGradient id="linear-gradient-26-team-presentation-9-97" x1="-34.83" y1="-1073.32" x2="-35.7" y2="-1059.99" xlink:href="#linear-gradient-team-presentation-9-97"/><linearGradient id="linear-gradient-27-team-presentation-9-97" x1="-32.85" y1="-1258.28" x2="-28.88" y2="-1258.28" gradientTransform="translate(409 1524.65)" xlink:href="#linear-gradient-team-presentation-9-97"/><linearGradient id="linear-gradient-28-team-presentation-9-97" x1="-140.12" y1="-1216.31" x2="-142.09" y2="-1160.56" gradientTransform="translate(409 1524.65)" xlink:href="#linear-gradient-team-presentation-9-97"/><linearGradient id="linear-gradient-29-team-presentation-9-97" x1="-140.94" y1="-1198.52" x2="-140.74" y2="-1183.03" gradientTransform="translate(409 1524.65)" xlink:href="#linear-gradient-team-presentation-9-97"/><linearGradient id="linear-gradient-30-team-presentation-9-97" x1="-230.65" y1="-1097.04" x2="-228.03" y2="-1211.81" gradientTransform="translate(409 1524.65)" xlink:href="#linear-gradient-team-presentation-9-97"/><linearGradient id="linear-gradient-31-team-presentation-9-97" x1="-56.44" y1="-1113.65" x2="-53.82" y2="-1201.54" gradientTransform="translate(409 1524.65)" xlink:href="#linear-gradient-team-presentation-9-97"/></defs><path id="background_team-presentation-9-97" class="cls-35_team-presentation-9-97 targetColor" d="M274.7,107.61s42.68-5.18,58.86,35.56c16.18,40.74,37.88,48.8,63.09,56.58,25.22,7.78,63.3,53.23,46.22,136.08-17.09,82.85-4.2,82.3-4.2,82.3l-341.83,20.71s-59.09-38.82-26.4-155.73c14.07-50.33,14.99-80.96,11.46-99.53-6.92-36.41,7.7-73.74,38.52-94.35,34.65-23.11,85.78-32.25,154.29,18.37h-.01Z" style="fill: rgb(251, 203, 165);"/><g id="data_graphic_team-presentation-9-97"><rect class="cls-25_team-presentation-9-97 targetColor" x="39.79" y="58.54" width="238.63" height="179.87" style="fill: rgb(251, 203, 165);"/><rect class="cls-25_team-presentation-9-97 targetColor" x="17.54" y="205.38" width="93.49" height="83.96" style="fill: rgb(251, 203, 165);"/><path class="cls-25_team-presentation-9-97 targetColor" d="M56.98,172.55h203.73c1.9,0,3.45,1.54,3.45,3.45h0c0,1.9-1.54,3.45-3.45,3.45H56.98c-1.9,0-3.45-1.54-3.45-3.45h0c0-1.9,1.54-3.45,3.45-3.45Z" style="fill: rgb(251, 203, 165);"/><path class="cls-25_team-presentation-9-97 targetColor" d="M56.98,185.68h203.73c1.9,0,3.45,1.54,3.45,3.45h0c0,1.9-1.54,3.45-3.45,3.45H56.98c-1.9,0-3.45-1.54-3.45-3.45h0c0-1.9,1.54-3.45,3.45-3.45Z" style="fill: rgb(251, 203, 165);"/><rect class="cls-25_team-presentation-9-97 targetColor" x="53.53" y="79.33" width="210.62" height="82.46" style="fill: rgb(251, 203, 165);"/><rect class="cls-24_team-presentation-9-97 targetColor" x="198.53" y="99.42" width="55.84" height="2.92" style="fill: rgb(251, 203, 165);"/><rect class="cls-24_team-presentation-9-97 targetColor" x="198.53" y="119.09" width="55.84" height="2.92" style="fill: rgb(251, 203, 165);"/><rect class="cls-24_team-presentation-9-97 targetColor" x="198.53" y="123.99" width="55.84" height="2.92" style="fill: rgb(251, 203, 165);"/><rect class="cls-24_team-presentation-9-97 targetColor" x="198.53" y="104.58" width="40.03" height="2.92" style="fill: rgb(251, 203, 165);"/><rect class="cls-37_team-presentation-9-97" x="69.68" y="94.96" width="4.46" height="48.1"/><rect class="cls-37_team-presentation-9-97" x="78.44" y="111.63" width="4.46" height="31.44"/><rect class="cls-37_team-presentation-9-97" x="87.03" y="107.5" width="4.46" height="35.56"/><rect class="cls-37_team-presentation-9-97" x="95.79" y="112.46" width="4.46" height="30.6"/><g class="cls-40_team-presentation-9-97"><path class="cls-24_team-presentation-9-97 targetColor" d="M100.25,125.67c-.26,0-.52-.09-.72-.26l-10.32-8.15-7.51,6.45-12.95-16.91c-.39-.51-.3-1.24.22-1.64s1.24-.3,1.64.22l11.45,15,7.09-6.09,11.83,9.32c.51.39.6,1.13.21,1.63-.22.29-.57.45-.93.45v-.02h0Z" style="fill: rgb(251, 203, 165);"/></g><path class="cls-24_team-presentation-9-97 targetColor" d="M188.39,121.3c0,15.81-12.82,28.63-28.63,28.63s-28.63-12.82-28.63-28.63,12.82-28.63,28.63-28.63h0v28.63h28.62Z" style="fill: rgb(251, 203, 165);"/><path class="cls-24_team-presentation-9-97 targetColor" d="M192.21,116.66h-28.63v-28.63c15.81,0,28.62,12.8,28.63,28.61v.02Z" style="fill: rgb(251, 203, 165);"/></g><path id="floor_team-presentation-9-97" class="cls-35_team-presentation-9-97 targetColor" d="M78.9,439.39c-21.45,3.01-43.1,6.06-63.61,12.95,11.93,3.74,24.74,2.88,37.27,2.17,142.83-8.23,287.86,5.82,427.94-23.3,4.29-.89,9.5-2.81,9.88-7.17.51-5.82-7.62-7.78-13.49-7.52l-107.27,4.58,6.72-4.66c-38.93-.19-77.85.38-116.77,1.71-13.15.44-24.09,4.41-36.67,6.6-15.08,2.62-31.73,1.37-47.06,2.7-32.49,2.89-64.73,7.41-96.95,11.94h0Z" style="fill: rgb(251, 203, 165);"/><g id="character_2_team-presentation-9-97"><path class="cls-36_team-presentation-9-97" d="M283.7,418.6c.21.38.5.7.84.97.58.33,1.26.42,1.91.27,1.77-.3,3.17-.07,4.19-1.54s1.74-4.66,2.18-6.35c.76-2.99-.47-4.3-3.33-4.83-1.91-.35-4-.63-5.74.43,0,0-1.95,8.07-.05,11.05h0Z"/><path class="cls-36_team-presentation-9-97" d="M313.04,416.56c-.2.7.2,1.44.91,1.64.19.06.4.07.6.03,1.95.07,3.9.08,5.82,0,.2,0,.4-.03.58-.1.48-.22.54-.85.54-1.37v-9.32c.02-.2-.02-.41-.09-.59-.24-.44-.87-.44-1.39-.38-1.74.23-6.38,0-7.06,1.64-.41,1,0,3.12,0,4.2,0,1.44-.01,2.85.09,4.25h0Z"/><path class="cls-39_team-presentation-9-97 targetColor" d="M281.05,278.8s-.75,7.36-.75,14.92v116.82h13.74l7.83-93.8,9.07,93.8h13.19s1.91-106.17,0-115.79c-1.91-9.62-2.63-18.26-2.63-18.26l-40.45,2.31h0Z" style="fill: rgb(251, 203, 165);"/><path class="cls-1_team-presentation-9-97" d="M281.4,278.5c-.7,4.83-1.06,9.69-1.09,14.57v116.82h13.74l7.83-93.8,9.07,93.8h13.19s1.91-106.17,0-115.79c-1.91-9.62-2.63-18.26-2.63-18.26l-40.1,2.66h0Z"/><path class="cls-39_team-presentation-9-97 targetColor" d="M281.63,415.6c-.89.3-1.75.65-2.6,1.05l-8.93,4.06c-.89.3-1.66.88-2.21,1.64-.46,1.04-.35,2.25.3,3.18,1.03,1.57,2.61,2.71,4.43,3.19,1.8.47,3.66.67,5.52.61,3.87.01,7.73-.22,11.57-.71.55-.01,1.09-.2,1.54-.52.29-.31.51-.68.63-1.08,1.01-2.79,1.37-5.77,1.04-8.71-.05-.77-.28-1.52-.68-2.19-.94-1.37-3.31-1.01-4.76-1.08-1.96-.16-3.94.04-5.84.57h-.01Z" style="fill: rgb(251, 203, 165);"/><path class="cls-27_team-presentation-9-97" d="M281.63,415.6c-.89.3-1.75.65-2.6,1.05l-8.93,4.06c-.89.3-1.66.88-2.21,1.64-.46,1.04-.35,2.25.3,3.18,1.03,1.57,2.61,2.71,4.43,3.19,1.8.47,3.66.67,5.52.61,3.87.01,7.73-.22,11.57-.71.55-.01,1.09-.2,1.54-.52.29-.31.51-.68.63-1.08,1.01-2.79,1.37-5.77,1.04-8.71-.05-.77-.28-1.52-.68-2.19-.94-1.37-3.31-1.01-4.76-1.08-1.96-.16-3.94.04-5.84.57h-.01Z"/><path class="cls-39_team-presentation-9-97 targetColor" d="M313.34,416.76c-2.23.13-4.28,1.25-5.6,3.04-.77,1.51-1.1,3.2-.94,4.88,0,1.27.08,2.53.14,3.8-.05.69.17,1.38.62,1.91.52.36,1.15.52,1.78.44,5.25-.06,10.45-1.06,15.34-2.96.2-.05.38-.18.5-.35.06-.15.09-.32.07-.48-.07-2.11-.22-4.22-.47-6.31-.05-.67-.21-1.33-.48-1.95-1.82-3.6-7.89-2.43-10.96-2.03h0Z" style="fill: rgb(251, 203, 165);"/><path class="cls-28_team-presentation-9-97" d="M313.34,416.76c-2.23.13-4.28,1.25-5.6,3.04-.77,1.51-1.1,3.2-.94,4.88,0,1.27.08,2.53.14,3.8-.05.69.17,1.38.62,1.91.52.36,1.15.52,1.78.44,5.25-.06,10.45-1.06,15.34-2.96.2-.05.38-.18.5-.35.06-.15.09-.32.07-.48-.07-2.11-.22-4.22-.47-6.31-.05-.67-.21-1.33-.48-1.95-1.82-3.6-7.89-2.43-10.96-2.03h0Z"/><path class="cls-39_team-presentation-9-97 targetColor" d="M252.78,220.17c-12.39-8.92-12.57-19.5-24.72-28.75-3.11,2.09-5.99,4.5-8.6,7.19-.56.48-.97,1.12-1.16,1.83-.07.84.14,1.69.59,2.4,5.14,10.21,11.43,19.81,18.74,28.59,1.48,1.96,3.28,3.65,5.32,5.01,3.28,1.97,7.33,2.24,11.15,1.91,10.47-.86,20.65-3.83,29.93-8.74.8-.41,2.03-3.05,2.53-3.8,1.64-2.45,9.32-17.65,6.08-18.73-3.24-1.08-38.8,13.86-39.87,13.08h.01Z" style="fill: rgb(251, 203, 165);"/><path class="cls-34_team-presentation-9-97" d="M226.87,192.28l1.23-.86c.07,1.44-.08,2.87-.44,4.26-.55,1.16-2.03,5.45-9.32,5.39-.02,0-.97-1.97,8.53-8.79h0Z"/><path class="cls-39_team-presentation-9-97 targetColor" d="M281.17,213.37c2.45-3.8,7.07-5.58,11.52-6.34s5.82-3.2,13.98-3.21c7.21,0,8.28,4.46,10.58,8.64,2.29,4.18,2.89,9.05,3.37,13.8,1.43,14.1,2.21,28.26,2.33,42.47,0,2.68,0,5.51-1.44,7.77-1.95,3.09-5.82,4.23-9.4,4.9-6.3,1.2-12.71,1.73-19.13,1.58-2.73.08-5.44-.39-7.99-1.37-3.94-1.77-6.6-5.66-7.89-9.78-1.08-4.18-1.53-8.5-1.33-12.81,0-10.47.36-20.93,1.07-31.39.28-5.03,1.77-9.92,4.33-14.26h0Z" style="fill: rgb(251, 203, 165);"/><path class="cls-26_team-presentation-9-97" d="M281.17,213.37c2.45-3.8,7.07-5.58,11.52-6.34s5.82-3.2,13.98-3.21c7.21,0,8.28,4.46,10.58,8.64,2.29,4.18,2.89,9.05,3.37,13.8,1.43,14.1,2.21,28.26,2.33,42.47,0,2.68,0,5.51-1.44,7.77-1.95,3.09-5.82,4.23-9.4,4.9-6.3,1.2-12.71,1.73-19.13,1.58-2.73.08-5.44-.39-7.99-1.37-3.94-1.77-6.6-5.66-7.89-9.78-1.08-4.18-1.53-8.5-1.33-12.81,0-10.47.36-20.93,1.07-31.39.28-5.03,1.77-9.92,4.33-14.26h0Z"/><path class="cls-39_team-presentation-9-97 targetColor" d="M312.77,205.6c8.69,8.47,21.65,19.3,27.26,30.07,1.26,2.42,2.33,5.09,2.02,7.79-.56,4.39-4.66,7.36-8.57,9.45-6.12,3.09-12.44,5.78-18.92,8.04-.57.29-1.22.37-1.84.22-.52-.28-.93-.74-1.16-1.28-1.89-3.37-3.6-6.84-5.11-10.4-.22-.4-.31-.85-.24-1.3.2-.47.56-.85,1.02-1.06,5.09-2.99,11.65-3.81,15.43-8.39-6.61-2.97-11.71-8.55-14.08-15.4-2.69-7.92-2.64-14.61,4.2-17.74h-.01Z" style="fill: rgb(251, 203, 165);"/><path class="cls-32_team-presentation-9-97" d="M312.77,205.6c8.69,8.47,21.65,19.3,27.26,30.07,1.26,2.42,2.33,5.09,2.02,7.79-.56,4.39-4.66,7.36-8.57,9.45-6.12,3.09-12.44,5.78-18.92,8.04-.57.29-1.22.37-1.84.22-.52-.28-.93-.74-1.16-1.28-1.89-3.37-3.6-6.84-5.11-10.4-.22-.4-.31-.85-.24-1.3.2-.47.56-.85,1.02-1.06,5.09-2.99,11.65-3.81,15.43-8.39-6.61-2.97-11.71-8.55-14.08-15.4-2.69-7.92-2.64-14.61,4.2-17.74h-.01Z"/><path class="cls-34_team-presentation-9-97" d="M306.18,248.18s3.81.8,5.04,3.83,1.49,9.15,1.49,9.15c0,0-2.2.17-2.67-1.7-.47-1.88-5.61-8.15-3.87-11.29h.01Z"/><path class="cls-36_team-presentation-9-97" d="M226.45,197.9c-.64.95-1.66,1.59-2.8,1.74-1.74.13-3.17-1.25-4.36-2.52-2.6-2.8-5.28-5.68-6.63-9.26-.47-1.32-.84-2.67-1.11-4.04-.59-2.2-.79-4.5-.57-6.77.33-2.25,2.97-7.12,6.56-7.12.21,0,2.95,6.92,3.17,7.24l2.6,3.61c1.06-.94,1.91-2.08,2.52-3.35.7.97,1,2.18.85,3.37-.08,1.16-.43,2.33-.63,3.49-.41,2.42-.24,4.91.51,7.24.3.97,1.22,2.17,1.27,3.17-.16,1.17-.64,2.27-1.39,3.19h.01Z"/><path class="cls-36_team-presentation-9-97" d="M302.05,249.68c-.38-.08-.78-.08-1.16,0-.39.09-.7.38-.83.76-.17.64.4,1.16.85,1.69.1.09.17.21.2.34,0,.28-.31.43-.58.5l-6.45,1.64c-.23.03-.45.13-.62.29-.11.13-.18.29-.21.45-.17.63-.2,1.29-.08,1.93.12.26.12.56,0,.82-.09.14-.27.2-.38.31-.34.42-.39,1-.14,1.47.93,2.43,3.28,4.01,5.88,3.97,1.35-.14,2.68-.46,3.96-.93.94-.27,1.9-.48,2.87-.63,1.43-.22,3.04-.37,4.02-1.46.98-1.08,3.12-2.66,3.11-3.31,0-1.01-.96-5.99-1.77-6.59-1.54.04-3.08-.08-4.59-.37-1.32-.46-2.68-.75-4.07-.89h-.01Z"/><path class="cls-39_team-presentation-9-97 targetColor" d="M319.06,408.47c-.75-.31-1.53-.52-2.33-.63-1.5-.01-2.91.72-3.76,1.96-.83,1.22-1.45,2.58-1.84,4.01-.3.68-.39,1.44-.27,2.18.37.89,1.06,1.61,1.93,2.03,4.4,2.72,8.94,5.22,13.6,7.47,2.24,1.29,4.77,2,7.35,2.07.49,0,.97-.13,1.37-.4.28-.25.5-.54.68-.87,1.4-2.49,2.55-5.12,3.42-7.84.74-1.33.33-3.01-.94-3.86-2.33-2.24-5.21-4.47-8.48-5.03-3.52-.62-7.24.08-10.74-1.08h0Z" style="fill: rgb(251, 203, 165);"/><path class="cls-33_team-presentation-9-97" d="M319.06,408.47c-.75-.31-1.53-.52-2.33-.63-1.5-.01-2.91.72-3.76,1.96-.83,1.22-1.45,2.58-1.84,4.01-.3.68-.39,1.44-.27,2.18.37.89,1.06,1.61,1.93,2.03,4.4,2.72,8.94,5.22,13.6,7.47,2.24,1.29,4.77,2,7.35,2.07.49,0,.97-.13,1.37-.4.28-.25.5-.54.68-.87,1.4-2.49,2.55-5.12,3.42-7.84.74-1.33.33-3.01-.94-3.86-2.33-2.24-5.21-4.47-8.48-5.03-3.52-.62-7.24.08-10.74-1.08h0Z"/><path class="cls-36_team-presentation-9-97" d="M301.85,204.92c.11,1.39-.11,2.78-.64,4.06-1.11,2.2-3.82,3.09-6.28,3.19-1.17.17-2.36-.16-3.27-.92-.58-.75-.92-1.67-.94-2.62-.12-.99-.2-1.99-.24-2.98-.06-.61-.03-1.22.09-1.82.2-.73.54-1.42,1-2.03,1.91-2.64,4.73-4.49,7.92-5.17,1.9-.41,2.33.08,2.33,1.93.08,2.12.03,4.23.03,6.35h0Z"/><path class="cls-31_team-presentation-9-97" d="M301.85,204.92c.11,1.39-.11,2.78-.64,4.06-1.11,2.2-3.82,3.09-6.28,3.19-1.17.17-2.36-.16-3.27-.92-.58-.75-.92-1.67-.94-2.62-.12-.99-.2-1.99-.24-2.98-.06-.61-.03-1.22.09-1.82.2-.73.54-1.42,1-2.03,1.91-2.64,4.73-4.49,7.92-5.17,1.9-.41,2.33.08,2.33,1.93.08,2.12.03,4.23.03,6.35h0Z"/><path class="cls-36_team-presentation-9-97" d="M305.26,181.35c.4-1.13,1.07-2.14,1.96-2.94.15-.14.35-.22.56-.22.2.04.38.14.51.29,1.1,1.03,1.82,2.41,2.04,3.9.2,1.5-.27,3.02-1.27,4.16-.44.53-1.07.88-1.76.98-.99,0-1.89-.57-2.33-1.46-.42-.89-.63-1.85-.64-2.83-.06-1.06,0-2.33.98-2.87"/><path class="cls-36_team-presentation-9-97" d="M274.37,197.65c1.18,2.85,3.18,5.28,5.75,6.99,2.34,1.2,4.94,1.8,7.57,1.74,3.21.19,6.41-.41,9.34-1.74,3.53-1.93,6.23-5.09,7.59-8.88,1.33-3.74,2-7.68,1.97-11.65.1-4.47-.27-9.18-2.73-12.91-2.84-3.94-7.31-6.37-12.16-6.62-6.76-.51-19.27,2.63-21.35,10.28-.77,2.83.12,6.07.45,8.9.41,4.79,1.61,9.48,3.55,13.87l.02.02Z"/><path class="cls-34_team-presentation-9-97" d="M266.08,174.75c.01.15.04.3.09.45.21.6.71,1.06,1.23,1.44.81.59,1.73,1.04,2.69,1.34.28-1.32.65-2.62,1.11-3.89.2-.57.44-1.15.87-1.57,1.01-1,2.72-1.08,3.92-.56,1.64.71,3.26,1,5.04.96,1.01-.02,2-.33,2.85-.87.57-.47,1.1-.97,1.61-1.5,2.33-2.08,5.92-2.02,8.89-1.02,1.51.42,2.87,1.25,3.93,2.4,1.08,1.3,1.53,3.07,2.68,4.31.69.72,1.62,1.3,1.9,2.26.09.57.09,1.16,0,1.74-.11,1.44.15,2.88.76,4.18-.01-.03,1.11-3.24,1.23-3.53.54-1.26,1.12-1.6,2.27-2.38-.47-2.69-.71-5.43-.7-8.16,0-.51.02-1.05.34-1.45.26-.32.66-.48,1.02-.68.51-.28.98-.65,1.36-1.09.65-.75,1.06-1.82.67-2.73s-1.81-1.3-2.4-.51c1.16-.97,1.37-2.88.47-4.09s-2.8-1.53-4.05-.7c0-1.61-1.13-3.16-2.66-3.67s-3.36.07-4.32,1.36c-.72-1.82-2.86-2.77-4.81-2.62s-3.73,1.16-5.32,2.3c-.68-1.43-2.65-1.66-4.19-1.3-3.12.74-5.78,3.18-6.78,6.22-1.23-1.36-3.45-.83-5.17-.19-.46.17-.97.39-1.14.85-.16.44.05.91.21,1.35.43,1.19.71,3.18.02,4.34s-1.86.78-2.85,1.68c-.46.42-.58,1.13-.42,1.74s.55,1.13.97,1.59c-.81.28-1.35,1.17-1.29,2.02l-.03-.02Z"/></g><g id="character_1_team-presentation-9-97"><rect class="cls-39_team-presentation-9-97 targetColor" x="86.53" y="368.98" width="48.94" height="16.83" rx="7.26" ry="7.26" style="fill: rgb(251, 203, 165);"/><rect class="cls-39_team-presentation-9-97 targetColor" x="105.76" y="385.82" width="8.53" height="47.93" style="fill: rgb(251, 203, 165);"/><rect class="cls-29_team-presentation-9-97" x="105.76" y="385.82" width="8.53" height="47.93"/><path class="cls-39_team-presentation-9-97 targetColor" d="M100.54,431.47h18.95c2.01,0,3.63,1.63,3.63,3.63h0c0,2.01-1.63,3.63-3.63,3.63h-18.95c-2.01,0-3.63-1.63-3.63-3.63h0c0-2.01,1.63-3.63,3.63-3.63Z" style="fill: rgb(251, 203, 165);"/><path class="cls-30_team-presentation-9-97" d="M100.54,431.47h18.95c2.01,0,3.63,1.63,3.63,3.63h0c0,2.01-1.63,3.63-3.63,3.63h-18.95c-2.01,0-3.63-1.63-3.63-3.63h0c0-2.01,1.63-3.63,3.63-3.63Z"/><polygon class="cls-38_team-presentation-9-97" points="157.3 413.35 154.38 425.5 145.62 424.29 145.62 412.7 157.3 413.35"/><path class="cls-39_team-presentation-9-97 targetColor" d="M145.62,424.29l-3.95,9.46,16.95,5.01h12.94s-1.37-6.71-6.18-7.21-11-6.01-11-6.01l-8.76-1.25h0Z" style="fill: rgb(251, 203, 165);"/><polygon class="cls-38_team-presentation-9-97" points="184.1 411.84 186.33 425.5 193.72 423.27 193.72 410.56 184.1 411.84"/><path class="cls-39_team-presentation-9-97 targetColor" d="M186.39,425.5v10.31l21.78-4.3,7.26-6.01s-2.47-6.36-8.82-4.12-11.02,2.57-11.93,1.89-2.71,0-2.71,0l-5.58,2.24h0Z" style="fill: rgb(251, 203, 165);"/><path class="cls-10_team-presentation-9-97" d="M145.62,424.29l-3.95,9.46,16.95,5.01h12.94s-1.37-6.71-6.18-7.21-11-6.01-11-6.01l-8.76-1.25h0Z"/><path class="cls-7_team-presentation-9-97" d="M186.39,425.5v10.31l21.78-4.3,7.26-6.01s-2.47-6.36-8.82-4.12-11.02,2.57-11.93,1.89-2.71,0-2.71,0l-5.58,2.24h0Z"/><path class="cls-39_team-presentation-9-97 targetColor" d="M144.37,264.7l20.48,39.33,27.95,5.46.78,8.84-29.99,3.56s-3.82,1.62-10.75-7.21c-4.03-5.12-9.62-15.47-9.62-15.47l1.15-34.52h0Z" style="fill: rgb(251, 203, 165);"/><path class="cls-8_team-presentation-9-97" d="M193.57,318.33l-29.99,3.56s-3.82,1.62-10.75-7.21c-4.03-5.12-9.62-15.47-9.62-15.47l1.16-34.52,2.69,5.17,17.79,34.16,27.95,5.46.44,5.98.33,2.87Z"/><path class="cls-9_team-presentation-9-97" d="M193.23,315.47h-26.56s-3.82,1.62-10.76-7.21c-4.02-5.12-9.62-15.47-9.62-15.47l.77-22.92,17.79,34.16,27.95,5.46.43,5.98h0Z"/><path class="cls-39_team-presentation-9-97 targetColor" d="M123.58,253.17c-3.11,3.75-11.57,13.98-12.61,18.69-3.44,15.53-6.87,31.06-10.28,46.59-.95,3.61-1.47,7.33-1.53,11.07.28,12.14,11.52,22.95,23.66,22.75,4.08-.01,8.07-1.28,11.4-3.63,4.23-3.11,6.78-7.98,8.81-12.81,2.8-6.66-1.16-11.41.59-18.4,2.96-11.8,6.93-33.57,3.49-45.25-7.82-26.87-23.53-19-23.53-19h0Z" style="fill: rgb(251, 203, 165);"/><path class="cls-18_team-presentation-9-97" d="M123.58,253.17c-3.11,3.75-11.57,13.98-12.61,18.69-3.44,15.53-6.87,31.06-10.28,46.59-.95,3.61-1.47,7.33-1.53,11.07.28,12.14,11.52,22.95,23.66,22.75,4.08-.01,8.07-1.28,11.4-3.63,4.23-3.11,6.78-7.98,8.81-12.81,2.8-6.66-1.16-11.41.59-18.4,2.96-11.8,7.17-30.5,4.19-42.3-2.98-11.8-11.65-37.17-24.23-21.94v-.02Z"/><path class="cls-38_team-presentation-9-97" d="M141.4,246.27c-.86,3.97-2.76,9.5-1.29,14.77.59,2.12-12.46-3.33-14.21-6.29-2.11-3.55,4.38-3.9-.22-12.46-1.96-3.65,11.04,4.04,15.14,4.66"/><path class="cls-38_team-presentation-9-97" d="M201.78,309.77c1.42-.18,2.87,0,4.2.54,1.24.74,2.22,1.84,2.81,3.16,1.11,1.96,1.52,4.25,1.16,6.48-.05.41-.24.8-.52,1.11-.5.35-1.12.5-1.72.4l-6.72-.21c-1.65.1-3.3-.26-4.75-1.05-.92-.62-1.64-1.6-2.73-1.85-.71-.11-1.44-.07-2.13.1-1.4.22-2.82.22-4.22,0-.36-.02-.71-.17-.98-.41-.19-.26-.3-.57-.31-.9-.41-3.05-.19-5.94,2.98-6.77,3.93-1.03,8.92-.42,12.93-.59h0Z"/><path class="cls-14_team-presentation-9-97" d="M192.79,309.47s-5.82.42-6.99,3.2.22,6.53.94,6.45,4.72-.71,4.72-.71c0,0-4.1,1.3-4.26-1.48-.16-2.78-.69-5.47,5.59-7.47h0Z"/><path class="cls-39_team-presentation-9-97 targetColor" d="M115.7,263.26s-18.71,28.49-18.19,36.22c.51,7.73,39.25,27.55,39.25,27.55l5.91-8.95-20.7-22.47,10.38-21.4s.64-19.5-16.64-10.96h-.01Z" style="fill: rgb(251, 203, 165);"/><path class="cls-12_team-presentation-9-97" d="M139.07,324.02l-2.33,3.02s-38.73-19.8-39.25-27.55,18.19-36.22,18.19-36.22c4.85-2.39,6.99-2,9.56-1.16-1.16,1.96-17.19,28.04-16.7,35.47.37,5.59,19.6,19.17,30.53,26.45h0Z"/><path class="cls-38_team-presentation-9-97" d="M138.74,318.52c-2.19.86-3.5,3.1-3.19,5.43.42,1.46,1.26,2.76,2.41,3.75,1.47,1.46,3.07,2.78,4.79,3.94.79.59,1.69,1.02,2.64,1.28,3.38.77,6.41-2.33,9.84-2.74.63-.01,1.25-.11,1.85-.29,1.22-.63,1.82-2.03,1.44-3.34-.42-1.27-1.29-2.34-2.45-3.02-1.34-.87-2.86-1.42-4.45-1.58-1.33,0-2.65-.16-3.94-.48-1.55-.56-2.15-2.06-3.65-2.71-1.67-.77-3.58-.86-5.31-.23h.02Z"/><path class="cls-39_team-presentation-9-97 targetColor" d="M100.25,335.72s-7.92,20.34-2.76,28.49,45.72,15.4,45.72,15.4l-.64,36.86,16.9,1.54,4.79-44.7s.47-4.86-6.7-8.29c0,0,12.16,3.61,14.91,12.54s10.18,38.93,10.18,38.93l13.28-3.8s-2.21-48.01-10.09-57.28c-7.87-9.27-42.76-19.57-42.76-19.57l-42.83-.12Z" style="fill: rgb(251, 203, 165);"/><path class="cls-11_team-presentation-9-97" d="M195.87,412.69l-13.28,3.8-.13-.54c0-.17-.1-.38-.16-.64,0-.04,0-.09,0-.13-.07-.29-.15-.64-.26-1.04s-.23-.91-.36-1.43c-2.08-8.34-7.09-28.18-9.24-35.15-2.33-7.69-11.71-11.44-14.26-12.32h-.13l-.38-.13h-.1c7.13,3.44,6.66,8.28,6.66,8.28l-4.73,44.71-16.9-1.54.64-36.86s-40.58-7.34-45.75-15.49,2.76-28.5,2.76-28.5l27.95.07h14.87c1.06.31,34.94,10.41,42.73,19.56,7.79,9.14,10.05,57.35,10.05,57.35h.02Z"/><path class="cls-38_team-presentation-9-97" d="M153.1,229.52c1.83,4.31,2.73,9.46.47,13.55-1.44,2.42-3.66,4.28-6.29,5.28-2.57,1.12-5.36,1.64-8.15,1.51-6.76-.55-14.16-9.41-15.3-12.36-.86-1.97-1.46-4.05-1.77-6.18-.39-4.32,1.5-8.54,4.99-11.12,4.66-3.4,10.89-3.12,16.38-3.67,3.62-.36,3.91,1.01,5.32,4.09s3.07,5.86,4.37,8.91h-.02Z"/><path class="cls-34_team-presentation-9-97" d="M139.2,222.51c-2.03.26-4.03.71-5.98,1.35-1.97.68-3.45,2.33-3.9,4.37-.28,2.12,1.07,4.3.43,6.34l-3.49-3.6c-2.51,1.41-3.41,4.59-2.01,7.1.55.98,1.4,1.76,2.43,2.22.5.22,1.09.43,1.28.94.09.39.04.8-.13,1.16l-1.72,5.02c-5.86-6.04-9.84-13.67-11.44-21.93-.39-1.57-.43-3.2-.1-4.79.35-1.61,1.56-2.89,3.14-3.33.74-.03,1.48-.17,2.18-.43.48-.33.87-.76,1.16-1.26,2.78-4.04,7.52-6.39,12.35-7.31,3.91-.76,13.81-2.33,16.31,2.15,3.41,6.03-5.98,11.09-10.51,12h0Z"/><path class="cls-39_team-presentation-9-97 targetColor" d="M126.35,250.38l-2.77,2.78s4.66,7.55,11.65,9.52c6.99,1.97,4.92-1.64,4.92-1.64,0,0-9.42-2.21-10.66-5.82-.52-1.9-1.61-3.58-3.13-4.83h0Z" style="fill: rgb(251, 203, 165);"/><path class="cls-17_team-presentation-9-97" d="M126.35,250.38l-2.77,2.78s4.66,7.55,11.65,9.52c6.99,1.97,4.92-1.64,4.92-1.64,0,0-9.42-2.21-10.66-5.82-.52-1.9-1.61-3.58-3.13-4.83h0Z"/><path class="cls-13_team-presentation-9-97" d="M195.87,412.69l-13.28,3.8-.13-.54c0-.17-.09-.38-.16-.64,0-.04,0-.09,0-.13-.07-.29-.15-.64-.26-1.04s-.23-.91-.36-1.43c-2.08-8.34-7.09-28.18-9.24-35.15-2.33-7.69-11.71-11.44-14.26-12.32h-.13l-.38-.13h-.1l-8.68-6.08s-20.67-15.14-19.04-22.96l13.24-.14h0c1.06.31,34.94,10.41,42.73,19.56,7.79,9.14,10.04,57.2,10.04,57.2h.01Z"/></g><g id="character_3_team-presentation-9-97"><path class="cls-39_team-presentation-9-97 targetColor" d="M375.79,269.87l-12.81,28.05-28.73-13.53-6.81,11.11,30.66,20.06s16.71,8.92,20.19-13.13c3.47-22.05-2.48-32.55-2.48-32.55h-.02Z" style="fill: rgb(251, 203, 165);"/><path class="cls-20_team-presentation-9-97" d="M375.79,269.87l-12.81,28.05-28.73-13.53-6.81,11.11,30.66,20.06s16.71,8.92,20.19-13.13c3.47-22.05-2.48-32.55-2.48-32.55h-.02Z"/><path class="cls-38_team-presentation-9-97" d="M346.91,357.82c4.53,1.51,8.93,3.39,13.16,5.61-5.83,14.91-11.97,29.7-18.41,44.37-.2.9-1.1,1.47-2,1.27-.11-.03-.22-.06-.33-.11-2.57-.4-5.65-1.23-6.34-3.75-.19-.9-.19-1.82,0-2.71.65-4.44,13.12-44.95,13.92-44.68h0Z"/><path class="cls-38_team-presentation-9-97" d="M358.02,362.75c4.77.2,9.53.77,14.21,1.71-1.44,15.95-3.2,31.87-5.28,47.75-.01.37-.12.72-.31,1.04-.43.43-1.01.68-1.62.69-2.59.33-5.82.4-7.13-1.83-.43-.81-.68-1.7-.75-2.62-.61-4.39.02-46.76.87-46.74h.01Z"/><path class="cls-38_team-presentation-9-97" d="M353.57,309.62c-2.04-.34-13.09-2.33-14.87-1.32-2.4,1.42-6.06,13.29-3.95,13.59,8.13.93,16.33.93,24.46,0,.51-.06,1.16-.27,1.16-.79-.03-.28-.16-.54-.37-.73-5.6-6.55,2.55-9.26-6.43-10.75h0Z"/><rect class="cls-39_team-presentation-9-97 targetColor" x="380.52" y="355.79" width="48.94" height="16.83" rx="7.26" ry="7.26" style="fill: rgb(251, 203, 165);"/><rect class="cls-39_team-presentation-9-97 targetColor" x="399.75" y="372.63" width="8.53" height="47.93" style="fill: rgb(251, 203, 165);"/><rect class="cls-16_team-presentation-9-97" x="399.75" y="372.63" width="8.53" height="47.93"/><path class="cls-39_team-presentation-9-97 targetColor" d="M394.53,418.28h18.95c2.01,0,3.63,1.63,3.63,3.63h0c0,2.01-1.63,3.63-3.63,3.63h-18.95c-2.01,0-3.63-1.63-3.63-3.63h0c0-2.01,1.63-3.63,3.63-3.63Z" style="fill: rgb(251, 203, 165);"/><path class="cls-19_team-presentation-9-97" d="M394.53,418.28h18.95c2.01,0,3.63,1.63,3.63,3.63h0c0,2.01-1.63,3.63-3.63,3.63h-18.95c-2.01,0-3.63-1.63-3.63-3.63h0c0-2.01,1.63-3.63,3.63-3.63Z"/><path class="cls-38_team-presentation-9-97" d="M378.27,266.06c-.08.38,1.57-.68,1.85-.41.25.21.56.34.89.37l2.33.49c1.51.44,3.12.5,4.66.17,2.27-.88,3.78-3.06,3.81-5.5-.02-2.39-.78-4.71-2.18-6.65-.48-.9-1.2-1.64-2.08-2.14-.79-.31-1.64-.44-2.49-.4-2.33,0-9.07.35-7.83,2.95,1.5,3.5,1.87,7.39,1.05,11.11h-.01Z"/><path class="cls-38_team-presentation-9-97" d="M364.27,236.28c-.58.48-1.02,1.09-1.28,1.79-.28,1.22.87,2.25,1.57,3.31,1.77,2.7.65,6.5,2.13,9.38s5.07,3.95,8.26,4.66c1.58.46,3.22.66,4.87.61,5.01-.44,8.23-5.38,10.48-9.88,1.55-3.09,3.04-6.3,3.26-9.75.24-3.76-1.04-7.45-2.48-10.94-.65-1.96-1.78-3.71-3.3-5.11-1.93-1.27-4.2-1.91-6.51-1.82-3.84-.14-8.01.41-10.79,3.06-4.15,4.02-2.57,10.75-6.22,14.69h0Z"/><path class="cls-39_team-presentation-9-97 targetColor" d="M379.39,264.62c-4.66,3.84-4.8,9.91-4.66,15.33.4,14.7.9,29.81,7.92,43.33,2.24,4.32,5.4,8.64,10.48,10.76,3.11,1.16,6.4,1.72,9.71,1.68,7.22.13,14.92-1.36,19.8-5.72,6.7-5.91,6.37-15.14,4.39-23-2.98-12.23-24.13-61.88-47.65-42.37h0Z" style="fill: rgb(251, 203, 165);"/><path class="cls-15_team-presentation-9-97" d="M379.39,264.62c-4.66,3.84-4.8,9.91-4.66,15.33.4,14.7.9,29.81,7.92,43.33,2.24,4.32,5.4,8.64,10.48,10.76,3.11,1.16,6.4,1.72,9.71,1.68,7.22.13,14.92-1.36,19.8-5.72,6.7-5.91,6.37-15.14,4.39-23-2.98-12.23-24.13-61.88-47.65-42.37h0Z"/><polygon class="cls-39_team-presentation-9-97 targetColor" points="383.73 259.47 376.63 263.29 376.15 268.95 380.12 265.65 384.45 268.31 393.61 260.46 392.26 256.78 383.73 259.47" style="fill: rgb(251, 203, 165);"/><polygon class="cls-22_team-presentation-9-97" points="383.73 259.47 376.63 263.29 376.15 268.95 380.12 265.65 384.45 268.31 393.61 260.46 392.26 256.78 383.73 259.47"/><path class="cls-39_team-presentation-9-97 targetColor" d="M381.75,280.35c.03-6.87,4.91-12.76,11.65-14.06,3.86-.68,7.77-.24,10.2,2.99,4.22,5.61-2.52,27.1-7.22,40.22-2.35,6.52-8.24,11.11-15.14,11.8-3.1.31-6.23.55-8.54.55-6.53,0-20.45-.3-20.45-.3l.93-15.57s20.66,1.16,25.09-3.49c2.7-2.83,3.37-13.87,3.48-22.13h0Z" style="fill: rgb(251, 203, 165);"/><path class="cls-39_team-presentation-9-97 targetColor" d="M415.95,359.61c-8.91,7.58-22.28,4.32-33.93,5.37-8.43.77-2.71,8.22-9.32,13.56-5.82-8.27-19.07-12.02-26.98-18.33,5.32-13.08,16.83-23.87,30.97-26.67,6.99-1.39,14.12-1.4,21.2-1.56,3.94-.09,7.87-.15,11.8-.52,2.64-.26,8.36-2.52,10.73-1.86,8.51,2.34.96,25.41-4.47,30.03v-.02Z" style="fill: rgb(251, 203, 165);"/><path class="cls-6_team-presentation-9-97" d="M415.95,359.61c-8.91,7.58-22.28,4.32-33.93,5.37-8.43.77-2.71,8.22-9.32,13.56-5.82-8.27-19.07-12.02-26.98-18.33,5.32-13.08,16.83-23.87,30.97-26.67,6.99-1.39,14.12-1.4,21.2-1.56,3.94-.09,7.87-.15,11.8-.52,2.64-.26,8.36-2.52,10.73-1.86,8.51,2.34.96,25.41-4.47,30.03v-.02Z"/><path class="cls-34_team-presentation-9-97" d="M330.34,407.93c.18-1.16.49-2.3.92-3.39.45-.98,1.07-1.88,1.83-2.66,2.63,1.65,5.43,3.02,8.35,4.09.3.12.65.27.73.56.03.18,0,.37-.09.54-.99,2.56-2.1,5.07-3.31,7.54-.13.27-.3.56-.59.62-.21.02-.43-.02-.62-.13-2.07-.89-4.76-1.68-6.57-2.98-1.81-1.3-1.03-2.28-.65-4.18h0Z"/><path class="cls-34_team-presentation-9-97" d="M357.08,415.74c-.16-1.16-.21-2.33-.13-3.49.13-1.05.43-2.07.91-3.02,2.79.89,5.68,1.47,8.6,1.74.31,0,.66.08.82.35.08.17.1.35.07.54-.16,2.71-.45,5.42-.85,8.15,0,.29-.13.57-.36.75-.19.06-.39.06-.58,0-2.1-.3-4.74-.37-6.71-1.16s-1.55-1.92-1.76-3.84v-.02Z"/><path class="cls-39_team-presentation-9-97 targetColor" d="M346.47,419.21c-.77-.09-1.56-.09-2.33,0-1.45.41-2.59,1.51-3.06,2.94-.45,1.41-.66,2.88-.64,4.36-.37,1.57.6,3.13,2.17,3.5.2.05.4.07.6.08,4.98,1.39,10.04,2.5,15.14,3.35,2.51.61,5.14.59,7.64-.07.45-.13.86-.4,1.16-.76.2-.31.34-.66.4-1.02.66-2.79,1.02-5.63,1.09-8.49.1-.81-.05-1.62-.45-2.33-.4-.5-.92-.9-1.51-1.16-2.9-1.48-6.27-2.83-9.55-2.46-3.6.5-6.99,2.2-10.66,2.07h0Z" style="fill: rgb(251, 203, 165);"/><path class="cls-23_team-presentation-9-97" d="M346.47,419.21c-.77-.09-1.56-.09-2.33,0-1.45.41-2.59,1.51-3.06,2.94-.45,1.41-.66,2.88-.64,4.36-.37,1.57.6,3.13,2.17,3.5.2.05.4.07.6.08,4.98,1.39,10.04,2.5,15.14,3.35,2.51.61,5.14.59,7.64-.07.45-.13.86-.4,1.16-.76.2-.31.34-.66.4-1.02.66-2.79,1.02-5.63,1.09-8.49.1-.81-.05-1.62-.45-2.33-.4-.5-.92-.9-1.51-1.16-2.9-1.48-6.27-2.83-9.55-2.46-3.6.5-6.99,2.2-10.66,2.07h0Z"/><path class="cls-38_team-presentation-9-97" d="M331.04,282.09l1.82,4.52-4.86,7.98s-8.44-6.06-10.3-8.56c-1.85-2.5-7.22-9.19-4.04-11.71s12.63,6.03,12.63,6.03c0,0-1.7-5.68,1.16-4.5.77.33,3.59,6.23,3.59,6.23h0Z"/><path class="cls-34_team-presentation-9-97" d="M364.79,217.7c-.53,2.26-.58,4.61-.15,6.9.03.98.32,1.93.83,2.76.66.74,1.52,1.27,2.47,1.55,3.39,1.26,6.96,1.97,10.58,2.08.71-.07,1.42.13,1.99.55.58.55.58,1.47.99,2.15.84,1.47,2.94,1.39,4.66,1.11.39,8.94-2.16,17.77-7.26,25.12,5.46,2.26,11.74,1.17,16.12-2.8-.58,1.75,1.79,3.27,3.49,2.69,1.7-.58,2.8-2.33,3.69-3.91l.85,2.08c3.12-2.51,5.23-6.06,5.93-10.01.67-3.93.75-7.94.22-11.89-.27-4.33-1.21-8.6-2.77-12.65-1.6-4.08-4.62-7.44-8.5-9.47-3.31-1.57-7.08-1.77-10.74-1.83-6.29-.06-19.84-2.6-22.4,5.56h0Z"/><polygon class="cls-21_team-presentation-9-97" points="380.12 265.65 377.07 263.8 376.15 268.95 380.12 265.65"/></g><g id="table_team-presentation-9-97"><rect class="cls-39_team-presentation-9-97 targetColor" x="163.58" y="321.91" width="209.15" height="13.81" style="fill: rgb(251, 203, 165);"/><rect class="cls-5_team-presentation-9-97" x="163.58" y="321.91" width="209.15" height="13.81"/><rect class="cls-2_team-presentation-9-97" x="163.58" y="330.67" width="209.15" height="5.06"/><rect class="cls-39_team-presentation-9-97 targetColor" x="174.31" y="335.72" width="9.8" height="108.85" style="fill: rgb(251, 203, 165);"/><rect class="cls-3_team-presentation-9-97" x="174.31" y="335.72" width="9.8" height="108.85"/><rect class="cls-39_team-presentation-9-97 targetColor" x="348.29" y="335.72" width="9.8" height="108.85" style="fill: rgb(251, 203, 165);"/><rect class="cls-4_team-presentation-9-97" x="348.29" y="335.72" width="9.8" height="108.85"/></g></svg>