<svg version="1.1" id="Layer_1" xmlns="http://www.w3.org/2000/svg" xmlns:xlink="http://www.w3.org/1999/xlink" x="0px" y="0px" viewBox="0 0 500 500" style="width: 166px;" xml:space="preserve" data-imageid="team-presentation-1-99" imageName="Team Presentation 1" class="illustrations_image">
<style type="text/css">
	.st0_team-presentation-1-99{fill:#FFFFFF;}
	.st1_team-presentation-1-99{fill:#D1D3D4;}
	.st2_team-presentation-1-99{fill:#231F20;}
	.st3_team-presentation-1-99{fill:#68E1FD;}
	.st4_team-presentation-1-99{fill:none;}
</style>
<g id="Board_team-presentation-1-99">
	<rect x="99.4" y="72.1" class="st0_team-presentation-1-99" width="301.1" height="144.4"/>
	<path class="st1_team-presentation-1-99" d="M400.6,217.3H99.4c-0.4,0-0.8-0.4-0.8-0.8V72.1c0-0.4,0.4-0.8,0.8-0.8l0,0h301.1c0.4,0,0.8,0.4,0.8,0.8v0&#10;&#9;&#9;v144.4C401.4,216.9,401,217.3,400.6,217.3z M100.2,215.7h299.5V72.9H100.2V215.7z"/>
	<path class="st1_team-presentation-1-99" d="M250,205.1H114.2c-0.4,0-0.8-0.4-0.8-0.8V87.1c0-0.4,0.4-0.8,0.8-0.8H250c0.4,0,0.8,0.4,0.8,0.8v117.1&#10;&#9;&#9;C250.8,204.7,250.5,205.1,250,205.1z M115,203.4h134.2V88H115V203.4z"/>
	<path class="st1_team-presentation-1-99" d="M370.7,93.1h-96.9c-0.5,0-0.8-0.4-0.8-0.8s0.4-0.8,0.8-0.8h96.9c0.5,0,0.8,0.4,0.8,0.8S371.2,93.1,370.7,93.1z&#10;&#9;&#9;"/>
	<path class="st1_team-presentation-1-99" d="M370.7,110.6h-96.9c-0.5,0-0.8-0.4-0.8-0.8s0.4-0.8,0.8-0.8h96.9c0.5,0,0.8,0.4,0.8,0.8&#10;&#9;&#9;S371.2,110.6,370.7,110.6z"/>
	<path class="st1_team-presentation-1-99" d="M370.7,128h-96.9c-0.5,0-0.8-0.4-0.8-0.8s0.4-0.8,0.8-0.8h96.9c0.5,0,0.8,0.4,0.8,0.8S371.2,128,370.7,128z"/>
	<path class="st1_team-presentation-1-99" d="M361.7,145.5h-87.9c-0.5,0-0.8-0.4-0.8-0.8s0.4-0.8,0.8-0.8h87.9c0.5,0,0.8,0.4,0.8,0.8&#10;&#9;&#9;S362.2,145.5,361.7,145.5z"/>
	<path class="st1_team-presentation-1-99" d="M306.2,201.4h-32.3c-0.4,0-0.8-0.3-0.8-0.8c0,0,0,0,0,0v-15.7c0-0.4,0.4-0.8,0.8-0.8h32.3&#10;&#9;&#9;c0.4,0,0.8,0.4,0.8,0.8c0,0,0,0,0,0v15.7C307,201,306.6,201.4,306.2,201.4C306.2,201.4,306.2,201.4,306.2,201.4z M274.7,199.8h30.7&#10;&#9;&#9;v-14.1h-30.7V199.8z"/>
</g>
<path id="Floor_team-presentation-1-99" class="st1_team-presentation-1-99" d="M431.6,362.1H68.3c-0.4,0-0.8-0.3-0.8-0.8c0-0.4,0.3-0.8,0.8-0.8h363.3c0.4,0,0.8,0.3,0.8,0.8&#10;&#9;C432.4,361.8,432.1,362.1,431.6,362.1z"/>
<g id="Character_Female_team-presentation-1-99">
	<path class="st0_team-presentation-1-99" d="M333.4,178.3l-13.4,9.4l-4.2-42.9c0,0,6-6.2,4.2-7.6s-5.1,3-5.1,3s-3.6-16-5.4-16.2s-2.5,1.8-2.2,3.1&#10;&#9;&#9;s1.6,8.1,1.6,8.1s-6.9,4.2-8.1,7.1s3.6,7.5,3.6,7.5s-2.5,58.3,4.9,63.9s31.3-15.2,31.3-15.2"/>
	<path class="st2_team-presentation-1-99" d="M312.5,215.4c-1.3,0.1-2.6-0.3-3.7-1.1c-1.2-0.9-4.9-3.7-5.5-34.6c-0.3-13.9,0.2-27.4,0.3-29.6&#10;&#9;&#9;c-1-1.1-4.7-5.1-3.5-8.1c1-2.8,6.3-6.2,7.9-7.2c-0.3-1.6-1.3-6.4-1.5-7.6c-0.2-1.2,0.1-2.3,0.9-3.2c0.6-0.6,1.4-0.9,2.2-0.7&#10;&#9;&#9;c1.5,0.2,3.4,5.4,5.7,15.4c1.3-1.4,3.5-3.3,5.2-2c0.4,0.3,0.6,0.7,0.6,1.2c0.2,2.1-3.3,6-4.5,7.2l4,41.4l12.4-8.7&#10;&#9;&#9;c0.3-0.3,0.8-0.2,1,0.1s0.2,0.8-0.1,1c0,0-0.1,0.1-0.1,0.1l-13.4,9.4c-0.2,0.2-0.5,0.2-0.7,0.1c-0.2-0.1-0.4-0.3-0.4-0.6l-4.2-42.9&#10;&#9;&#9;c0-0.2,0-0.4,0.2-0.6c1.8-1.9,4.4-5.2,4.3-6.4c-0.8-0.7-3,1.2-4.2,2.8c-0.2,0.2-0.5,0.3-0.7,0.3c-0.3-0.1-0.5-0.3-0.5-0.6&#10;&#9;&#9;c-1.6-7-3.9-15-4.9-15.7c-0.3,0-0.6,0.1-0.8,0.3c-0.4,0.6-0.6,1.3-0.5,2c0.2,1.3,1.5,8,1.6,8c0.1,0.3-0.1,0.6-0.3,0.8&#10;&#9;&#9;c-1.9,1.1-6.9,4.5-7.8,6.8c-0.8,2.1,2.2,5.6,3.4,6.8c0.1,0.1,0.2,0.4,0.2,0.6c-0.7,16.1-1.2,58.9,4.6,63.3s23.9-9.5,30.4-15.2&#10;&#9;&#9;c0.3-0.3,0.7-0.2,1,0.1c0.2,0.3,0.2,0.7-0.1,1c-4.1,3.5-8.5,6.8-13,9.8C321.4,213.2,316.2,215.4,312.5,215.4z"/>
	<path class="st0_team-presentation-1-99" d="M355.6,366.5c0.2,1.3-1.1,16.1-1.1,16.1s-18.2,3.1-18.3,1.9s-5.5-6.8-5.5-6.8l7.3-3.4l0.6-18L355.6,366.5z"/>
	<path class="st2_team-presentation-1-99" d="M337.8,385.5c-0.6,0.1-1.3,0-1.9-0.3c-0.2-0.2-0.3-0.4-0.3-0.6c-0.2-0.7-2.9-3.8-5.3-6.3c-0.3-0.3-0.3-0.8,0-1&#10;&#9;&#9;c0.1-0.1,0.1-0.1,0.2-0.1l6.9-3.2l0.6-17.5c0-0.3,0.1-0.5,0.4-0.6c0.2-0.1,0.5-0.1,0.7,0l16.9,10c0.2,0.1,0.3,0.3,0.4,0.5&#10;&#9;&#9;c0.2,1.3-0.9,13.8-1.1,16.3c0,0.3-0.3,0.6-0.6,0.7C348.5,384.4,341.2,385.5,337.8,385.5z M336.9,384.1c1.6,0.2,9.6-0.8,17-2.1&#10;&#9;&#9;c0.5-5.3,1.1-13.3,1.1-15.1l-15.5-9.2l-0.6,16.7c0,0.3-0.2,0.5-0.4,0.6l-6.4,3C333.9,380,336.3,382.7,336.9,384.1z"/>
	<polygon class="st0_team-presentation-1-99" points="410.8,367.8 413.4,386.1 401.4,386.1 394.3,366.5 &#9;"/>
	<path class="st2_team-presentation-1-99" d="M413.4,386.9h-12c-0.3,0-0.6-0.2-0.7-0.5l-7-19.7c-0.1-0.2,0-0.5,0.1-0.7c0.2-0.2,0.4-0.3,0.6-0.3l16.4,1.3&#10;&#9;&#9;c0.3,0,0.6,0.3,0.7,0.6l2.6,18.4c0,0.2,0,0.4-0.2,0.6C413.8,386.7,413.6,386.8,413.4,386.9z M401.9,385.4h10.7l-2.5-17l-14.8-1.1&#10;&#9;&#9;L401.9,385.4z"/>
	<path class="st0_team-presentation-1-99" d="M370.5,118.6c0.4-0.1,0.8-0.1,1.2-0.1c0.7,0,5.8,1.7,5.6,1.9c2.9-2,6.9-1.7,10.3-0.4s7.9,3.8,9.8,7.1&#10;&#9;&#9;c3.5,6.1,4.2,13.9,9.1,19c2.3,2.4,5.4,4,7.9,6.2c3.8,3.4,6.3,8,6.9,13.1c0.4,2.4,0.1,4.8-0.8,7c-1.1,2.2-2.8,4.2-4.9,5.6&#10;&#9;&#9;c-8.5,6.6-19.3,9.1-29.8,11.5c-4.2,1-8.5,1.9-12.7,1.2c-2.9-0.5-5.7-1.6-8.3-3.2c-3.2-1.7-6-4.2-8-7.3c-3.9-6.4-1.8-16.6-1.1-23.7&#10;&#9;&#9;c0.9-8.8,0.7-18.2,4.5-26.5c1.4-2.9,3.5-7.3,5.8-9.6C367.3,119.3,368.8,118.7,370.5,118.6z"/>
	<path class="st2_team-presentation-1-99" d="M376.1,191.6c-1,0-2.1-0.1-3.1-0.2c-3-0.6-5.9-1.7-8.5-3.3c-3.3-1.8-6.2-4.4-8.2-7.5c-3.4-5.7-2.4-14-1.6-20.7&#10;&#9;&#9;c0.1-1.2,0.3-2.3,0.4-3.4c0.2-2,0.3-3.9,0.5-5.9c0.5-7,1-14.2,4-20.7c2.2-4.7,4.2-8,6-9.8c1.3-1.2,3-1.9,4.8-2.1l0,0&#10;&#9;&#9;c0.4,0,0.9-0.1,1.3-0.1c1.9,0.4,3.8,1,5.6,1.8c3.6-2.2,8.1-1.2,10.5-0.3c3.6,1.3,8.2,4,10.2,7.4c1.3,2.5,2.4,5.2,3.3,7.9&#10;&#9;&#9;c1.5,4.1,2.8,8,5.7,11c1.4,1.3,2.8,2.5,4.4,3.5c1.2,0.8,2.4,1.7,3.5,2.6c4,3.5,6.5,8.3,7.2,13.5c0.4,2.5,0.1,5-0.9,7.3&#10;&#9;&#9;c-1.2,2.4-3,4.4-5.1,5.9c-8.8,6.8-20.1,9.4-30.1,11.7C382.7,191,379.4,191.5,376.1,191.6z M370.5,119.3c-1.5,0.1-2.9,0.7-4,1.6&#10;&#9;&#9;c-1.7,1.7-3.6,4.9-5.7,9.4c-2.9,6.3-3.4,13.4-3.9,20.2c-0.1,2-0.3,4-0.5,6c-0.1,1.1-0.2,2.2-0.4,3.4c-0.8,6.5-1.8,14.6,1.4,19.8&#10;&#9;&#9;c2,2.9,4.6,5.3,7.7,7c2.5,1.5,5.2,2.6,8,3.1c4.1,0.7,8.5-0.4,12.4-1.2c9.8-2.3,21-4.8,29.5-11.4c2-1.4,3.6-3.2,4.7-5.4&#10;&#9;&#9;c0.9-2.1,1.1-4.4,0.8-6.6c-0.6-4.9-2.9-9.4-6.6-12.6c-1-0.9-2.2-1.7-3.4-2.5c-1.7-1.1-3.2-2.3-4.6-3.7c-3.1-3.2-4.6-7.4-6-11.5&#10;&#9;&#9;c-0.8-2.6-1.9-5.2-3.2-7.6c-1.8-3.1-6-5.6-9.5-6.8c-2.2-0.8-6.5-1.8-9.6,0.4c-0.3,0.2-0.7,0.2-0.9-0.1c-1.7-0.7-3.4-1.2-5.1-1.7&#10;&#9;&#9;C371.4,119.2,371,119.2,370.5,119.3L370.5,119.3z"/>
	<polygon class="st0_team-presentation-1-99" points="346.9,231.1 359.1,166.8 394.4,169.6 394.3,224.8 &#9;"/>
	<path class="st2_team-presentation-1-99" d="M346.9,231.9c-0.2,0-0.4-0.1-0.5-0.2c-0.2-0.2-0.2-0.4-0.2-0.6l12.3-64.4c0.1-0.4,0.4-0.6,0.8-0.6l35.3,2.8&#10;&#9;&#9;c0.4,0,0.7,0.4,0.7,0.7l-0.2,55.2c0,0.4-0.3,0.7-0.6,0.7l-47.4,6.4L346.9,231.9z M359.7,167.6l-12,62.7l45.8-6.1l0.1-53.9&#10;&#9;&#9;L359.7,167.6z"/>
	<path class="st2_team-presentation-1-99" d="M399.3,222.2c0,0,9.8,107.2,14.1,146.5l-19,3c0,0-9.8-46.7-22-82.1l-11.8,82.1l-24.4-2.7l6.5-144.2&#10;&#9;&#9;L399.3,222.2z"/>
	<path class="st3_team-presentation-1-99 targetColor" d="M424.1,199.7c0,0-1.5-7.5-10.6-19.9c-9-12.2-30.8-14.1-31.3-14.1c0.5,0,9.4,0.9-16.2-1.5&#10;&#9;&#9;c-15-1.4-37,14.1-37,14.1l8.3,24.9l6.5-4.8l-4.7,39.6l65.5,4.2l-2.2-36.4L424.1,199.7z M374.2,203.3c-7.5-26.7-8.2-30.9-8.2-31.2&#10;&#9;&#9;l20.1,0.8L374.2,203.3z" style="fill: rgb(251, 203, 165);"/>
	<path class="st0_team-presentation-1-99" d="M368.9,160.7l-2.3,12.5c0,0-0.1,7.2,7.9,6.6c4.8-0.4,9.2-2.9,11.9-6.9l2.5-15.4c0.9-5.7,2.5-11.7,2.8-17.5&#10;&#9;&#9;c-6,1.9-13.5-5.7-15.3-10.6c-1,3.1-0.2,6.5,1.9,8.9c-3.4-1.2-6-3.9-7.1-7.4c-0.1-0.2-4.6,4-5,4.5c-1.3,1.9-2.3,4-3,6.1&#10;&#9;&#9;c-1.2,3.9-2.2,9.6-0.2,13.4C365.5,159.8,368.9,160.7,368.9,160.7z"/>
	<path class="st2_team-presentation-1-99" d="M373.5,180.6c-2,0.1-3.9-0.6-5.4-1.9c-1.4-1.5-2.2-3.5-2.3-5.5c1.5-8,2-10.9,2.2-12c-2.5-1.3-4.5-3.4-5.7-5.9&#10;&#9;&#9;c-2.3-4.5-0.6-11.2,0.2-13.9c0.7-2.3,1.7-4.4,3.1-6.3c0-0.1,4.8-4.9,5.7-4.8c0.3,0.1,0.5,0.3,0.6,0.5c0.7,2.4,2.3,4.4,4.3,5.8&#10;&#9;&#9;c-1.1-2.3-1.3-4.9-0.5-7.3c0.1-0.3,0.4-0.5,0.7-0.5c0.3,0,0.6,0.2,0.7,0.5c1.8,4.6,8.9,12,14.4,10.2c0.2-0.1,0.5,0,0.7,0.1&#10;&#9;&#9;c0.2,0.1,0.3,0.4,0.3,0.6c-0.3,4.1-0.9,8.1-1.8,12.1c-0.4,1.8-0.7,3.7-1,5.5l-2.6,15.4c0,0.1-0.1,0.2-0.1,0.3&#10;&#9;&#9;c-2.8,4.2-7.4,6.9-12.5,7.3C374.2,180.6,373.9,180.6,373.5,180.6z M367.3,173.3c0,3.2,2.5,5.9,5.8,5.9c0.5,0,0.9,0,1.4-0.1&#10;&#9;&#9;c4.5-0.4,8.6-2.8,11.3-6.5l2.5-15.3c0.3-1.8,0.7-3.7,1-5.5c0.8-3.6,1.4-7.2,1.7-10.9c-5.5,0.9-11.5-4.6-14.2-9.3&#10;&#9;&#9;c-0.1,2.3,0.6,4.5,2.1,6.2c0.2,0.2,0.2,0.6,0.1,0.9c-0.2,0.3-0.5,0.4-0.8,0.3c-3.3-1.2-5.9-3.7-7.2-6.9c-1.2,1.1-3.7,3.4-4,3.8&#10;&#9;&#9;c-1.3,1.8-2.3,3.8-2.9,5.9c-0.8,2.5-2.3,8.9-0.3,12.8c2.4,4.5,5.4,5.4,5.4,5.4c0.4,0.1,0.6,0.5,0.5,0.8&#10;&#9;&#9;C369.6,161,367.3,173.1,367.3,173.3L367.3,173.3z"/>
	<path class="st0_team-presentation-1-99" d="M388.4,148.5c0.4-0.9,1-1.6,1.9-2.1c0.8-0.4,1.7-0.7,2.6-0.8c0.5-0.1,1-0.1,1.5,0c0.3,0.1,0.6,0.3,0.9,0.5&#10;&#9;&#9;c0.7,0.5,1.1,1.2,1.3,2c0.1,0.7,0,1.3-0.2,1.9c-0.2,0.7-0.5,1.4-0.9,2c-1.6,2.5-4.9,3.3-7.5,1.7c0,0,0,0-0.1,0"/>
	<path class="st2_team-presentation-1-99" d="M390.9,155.1c-1.2,0-2.3-0.4-3.3-1c-0.3-0.2-0.3-0.5-0.2-0.8c0,0,0,0,0,0c0.2-0.3,0.5-0.3,0.8-0.2&#10;&#9;&#9;c1.1,0.7,2.4,0.9,3.7,0.7c1.2-0.3,2.3-1.1,3-2.1c0.3-0.6,0.6-1.2,0.8-1.8c0.2-0.5,0.3-1.1,0.2-1.7c-0.2-0.7-0.6-1.2-1.1-1.6&#10;&#9;&#9;c-0.2-0.2-0.4-0.3-0.7-0.4c-0.4-0.1-0.8-0.1-1.2,0c-0.8,0.1-1.6,0.3-2.4,0.7c-0.7,0.4-1.3,1.1-1.6,1.8c-0.1,0.3-0.5,0.4-0.8,0.3&#10;&#9;&#9;c-0.3-0.1-0.4-0.4-0.3-0.7c0,0,0,0,0,0c0.4-1,1.2-1.8,2.1-2.4c0.9-0.4,1.8-0.7,2.7-0.9c0.6-0.1,1.2-0.1,1.7,0&#10;&#9;&#9;c0.4,0.1,0.8,0.3,1.1,0.6c0.8,0.6,1.4,1.4,1.6,2.4c0.1,0.7,0,1.5-0.2,2.2c-0.2,0.7-0.5,1.4-0.9,2.1c-0.9,1.4-2.2,2.3-3.8,2.6&#10;&#9;&#9;C391.7,155,391.3,155.1,390.9,155.1z"/>
	<path class="st2_team-presentation-1-99" d="M368.2,165.7c0,0,4.9,2.4,8.8-0.3s4.1-6.2,4.1-6.2s-7.4,3.7-12.2,1.8L368.2,165.7z"/>
	<path class="st2_team-presentation-1-99" d="M372.6,167.4c-1.6,0-3.3-0.4-4.8-1.1c-0.3-0.1-0.4-0.4-0.4-0.7l0.7-4.7c0-0.2,0.2-0.4,0.3-0.5&#10;&#9;&#9;c0.2-0.1,0.4-0.1,0.6,0c4.5,1.7,11.6-1.8,11.7-1.8c0.2-0.1,0.5-0.1,0.7,0c0.2,0.1,0.3,0.4,0.3,0.6c0,0.2-0.3,3.9-4.4,6.8&#10;&#9;&#9;C376,166.9,374.3,167.4,372.6,167.4z M368.9,165.2c1.2,0.5,4.7,1.6,7.6-0.4c1.6-1.1,2.9-2.6,3.5-4.4c-2.2,0.9-6.9,2.5-10.7,1.5&#10;&#9;&#9;L368.9,165.2z"/>
	<path class="st0_team-presentation-1-99" d="M370.6,140.8c0,0-5.2,5.2-4.5,6.4s3.6,1.1,3.6,1.1"/>
	<path class="st2_team-presentation-1-99" d="M369.4,148.9c-0.9,0-3-0.1-3.8-1.4s2-4.7,4.6-7.2c0.3-0.3,0.7-0.3,0.9,0s0.3,0.7,0,0.9&#10;&#9;&#9;c-2.4,2.4-4.5,5.1-4.4,5.7c0.4,0.6,2.2,0.8,3,0.7c0.4,0,0.7,0.3,0.7,0.6c0,0.4-0.3,0.7-0.6,0.7c0,0,0,0,0,0L369.4,148.9z"/>
	<ellipse transform="matrix(0.4002 -0.9164 0.9164 0.4002 95.7633 431.1249)" class="st2_team-presentation-1-99" cx="377.2" cy="142.4" rx="1.4" ry="1"/>
	<ellipse transform="matrix(0.4002 -0.9164 0.9164 0.4002 90.9388 419.7988)" class="st2_team-presentation-1-99" cx="366.2" cy="140.4" rx="1.4" ry="1"/>
	<path class="st0_team-presentation-1-99" d="M364.2,150.3c0,0,2.5,6.1,9.9,2.2"/>
	<path class="st2_team-presentation-1-99" d="M369.6,154.5c-0.8,0-1.5-0.1-2.2-0.4c-1.7-0.6-3-1.9-3.8-3.5c-0.1-0.3,0-0.7,0.3-0.8s0.7,0,0.8,0.3&#10;&#9;&#9;c0.6,1.3,1.7,2.3,3,2.8c1.7,0.6,3.7,0.3,6-0.9c0.3-0.2,0.7,0,0.9,0.3c0.2,0.3,0,0.7-0.3,0.9l0,0C373,153.9,371.3,154.4,369.6,154.5&#10;&#9;&#9;z"/>
	<line class="st4_team-presentation-1-99" x1="404.7" y1="242.4" x2="401.9" y2="182.4"/>
	<path class="st2_team-presentation-1-99" d="M404.7,243.1c-0.4,0-0.7-0.3-0.7-0.7l-2.8-60c0-0.4,0.3-0.7,0.7-0.8c0.4,0,0.7,0.3,0.8,0.7l2.8,60&#10;&#9;&#9;C405.4,242.7,405.1,243.1,404.7,243.1L404.7,243.1z"/>
	<path class="st2_team-presentation-1-99" d="M399.2,378.2c0,0,10.8-6,15.4,0c2.8,4,4.6,8.7,5,13.6c0,0-22.7,3.8-22.9,0S399.2,378.2,399.2,378.2z"/>
	<path class="st2_team-presentation-1-99" d="M334.3,372.9l4.8,8l19-1.6l-0.3,9.8c0,0-40.5,3.6-41.6-1S334.3,372.9,334.3,372.9z"/>
	<polygon class="st0_team-presentation-1-99" points="377.7,208.8 345.2,214.7 353.5,253.8 387.8,252 &#9;"/>
	<path class="st2_team-presentation-1-99" d="M353.5,254.5c-0.3,0-0.6-0.2-0.7-0.6l-8.3-39c0-0.2,0-0.4,0.1-0.6c0.1-0.2,0.3-0.3,0.4-0.3l32.6-6&#10;&#9;&#9;c0.4-0.1,0.8,0.2,0.8,0.5l10,43.2c0,0.2,0,0.4-0.1,0.6c-0.1,0.2-0.3,0.3-0.5,0.3L353.5,254.5L353.5,254.5z M346,215.3l8,37.7&#10;&#9;&#9;l32.9-1.7l-9.7-41.7L346,215.3z"/>
	<path class="st0_team-presentation-1-99" d="M405.2,205.2c0,0,5.4,21.4,4.2,22.6s-23.4-1.9-23.4-1.9s-3.4-8.2-5-7.3s0,6.6,0,6.6s-9.9-4.4-10.5-1.6&#10;&#9;&#9;s-0.6,9.7,0,11.5s48.9,15.7,55.1,7.4s-4.3-41.9-4.3-41.9"/>
	<path class="st2_team-presentation-1-99" d="M416.1,245.7c-4.7-0.1-9.4-0.6-14.1-1.4c-12.4-2.1-31.5-7.2-32.1-9.1s-0.6-8.9,0-11.8c0.1-0.5,0.5-1,1-1.2&#10;&#9;&#9;c1.9-1,6.7,0.7,9.2,1.7c-0.4-2-0.8-5.1,0.7-6c0.3-0.2,0.7-0.2,1-0.1c1.7,0.6,3.9,5.4,4.8,7.4c9.8,1.4,20.5,2.5,22.3,2&#10;&#9;&#9;c0.3-1.8-2-12.3-4.4-21.8c-0.1-0.4,0.2-0.8,0.6-0.8c0.4-0.1,0.7,0.1,0.8,0.5c3.7,14.4,5,22.3,4,23.2c-1.2,1.2-13.7-0.3-24-1.7&#10;&#9;&#9;c-0.3,0-0.5-0.2-0.6-0.4c-1.5-3.5-3.4-6.8-4.1-7c-0.4,0.3-0.2,3.1,0.5,5.7c0.1,0.3,0,0.6-0.2,0.8c-0.2,0.2-0.5,0.2-0.8,0.1&#10;&#9;&#9;c-3.1-1.4-8-3-9.3-2.3c-0.1,0.1-0.2,0.1-0.2,0.2c-0.6,3.6-0.6,7.4-0.1,11c2.3,1.6,33.4,10.8,47.8,9.5c3.1-0.3,5.2-1,6.1-2.2&#10;&#9;&#9;c6-7.9-4.3-40.9-4.4-41.2c-0.1-0.4,0.1-0.8,0.5-0.9c0.4-0.1,0.7,0.1,0.9,0.5c0.4,1.4,10.6,34.1,4.2,42.6&#10;&#9;&#9;C424.9,244.7,421.5,245.7,416.1,245.7z"/>
</g>
<g id="Desk_team-presentation-1-99">
	<rect x="385.2" y="282" class="st0_team-presentation-1-99" width="13.7" height="117.2"/>
	<path class="st2_team-presentation-1-99" d="M399,400h-13.8c-0.4,0-0.7-0.3-0.7-0.7V282c0-0.4,0.3-0.7,0.7-0.7H399c0.4,0,0.7,0.3,0.7,0.7v117.2&#10;&#9;&#9;C399.7,399.6,399.4,400,399,400C399,400,399,400,399,400z M386,398.5h12.3V282.8H386V398.5z"/>
	<rect x="80.8" y="282" class="st0_team-presentation-1-99" width="103.6" height="117.2"/>
	<path class="st2_team-presentation-1-99" d="M184.4,400H80.8c-0.4,0-0.7-0.3-0.7-0.7V282c0-0.4,0.3-0.7,0.7-0.7h103.6c0.4,0,0.7,0.3,0.7,0.7l0,0v117.2&#10;&#9;&#9;C185.1,399.6,184.8,400,184.4,400C184.4,400,184.4,400,184.4,400z M81.5,398.5h102.1V282.8H81.5V398.5z"/>
	<path class="st1_team-presentation-1-99" d="M175.4,320.6H90.3c-0.4,0-0.8-0.4-0.8-0.8v-27.5c0-0.4,0.4-0.8,0.8-0.8h0h85.1c0.4,0,0.8,0.4,0.8,0.8l0,0v27.5&#10;&#9;&#9;C176.2,320.2,175.8,320.6,175.4,320.6C175.4,320.6,175.4,320.6,175.4,320.6z M91.1,319h83.5v-25.9H91.1V319z"/>
	<path class="st1_team-presentation-1-99" d="M175.4,355.2H90.3c-0.4,0-0.8-0.4-0.8-0.8v-27.5c0-0.4,0.4-0.8,0.8-0.8h0h85.1c0.4,0,0.8,0.4,0.8,0.8l0,0v27.5&#10;&#9;&#9;C176.2,354.8,175.8,355.2,175.4,355.2C175.4,355.2,175.4,355.2,175.4,355.2z M91.1,353.6h83.5v-25.9H91.1V353.6z"/>
	<path class="st1_team-presentation-1-99" d="M175.4,389.8H90.3c-0.4,0-0.8-0.4-0.8-0.8v-27.5c0-0.4,0.4-0.8,0.8-0.8h0h85.1c0.4,0,0.8,0.4,0.8,0.8l0,0V389&#10;&#9;&#9;C176.2,389.4,175.8,389.8,175.4,389.8C175.4,389.8,175.4,389.8,175.4,389.8z M91.1,388.2h83.5v-25.9H91.1V388.2z"/>
	<rect x="72.2" y="268.5" class="st0_team-presentation-1-99" width="346.6" height="13.5"/>
	<path class="st2_team-presentation-1-99" d="M418.8,282.8H72.2c-0.4,0-0.7-0.3-0.7-0.7v-13.5c0-0.4,0.3-0.7,0.7-0.7h346.6c0.4,0,0.7,0.3,0.7,0.7V282&#10;&#9;&#9;C419.6,282.4,419.2,282.8,418.8,282.8z M73,281.3h345.1v-12.1H73V281.3z"/>
</g>
<g id="Character_Male_team-presentation-1-99">
	<path class="st0_team-presentation-1-99" d="M279.9,216.7c-2.5-1.6-11.4,8.5-12.3,8.2s2.9-5.6,0.9-6.7s-10.8,13.4-10.8,13.4l-31,25.1l-12.8-13.6L194.4,258&#10;&#9;&#9;c0,0,21.9,29,28.7,28c8.5-1.3,43.6-45.8,43.6-45.8s13.9-12.1,15-16.1S282.4,218.2,279.9,216.7z"/>
	<path class="st2_team-presentation-1-99" d="M222.8,286.7c-7.4,0-26.7-25.4-28.9-28.3c-0.2-0.3-0.2-0.8,0.1-1l19.4-14.8c0.3-0.2,0.7-0.2,1,0.1l12.4,13.1&#10;&#9;&#9;l30.4-24.6c4.1-6.9,9.5-14.8,11.6-13.6c1.8,1,0.7,3.6-0.1,5.6c0,0.1,0,0.1-0.1,0.2c0.5-0.4,1.1-1,1.7-1.5c4.5-4,8-7,10-5.8l0,0&#10;&#9;&#9;c2.8,1.8,3.3,3.9,2.1,8.2c-1.1,4.1-13.8,15.2-15.2,16.4c-1.3,1.7-35.3,44.6-44,46C223.1,286.7,222.9,286.7,222.8,286.7z&#10;&#9;&#9; M195.5,258.1c8.7,11.5,23,27.9,27.5,27.1c6.7-1.1,33.4-33.2,43.2-45.6c3.9-3.4,14-12.7,14.9-15.8c1.1-4.1,0.4-5.4-1.5-6.6l0,0&#10;&#9;&#9;c-1.2-0.7-6.1,3.7-8.2,5.6c-2.6,2.3-3.2,2.9-3.9,2.7c-0.2-0.1-0.4-0.3-0.6-0.5c-0.3-0.6,0-1.3,0.6-2.6c0.5-1.1,1.4-3.4,0.8-3.7&#10;&#9;&#9;c-1.2,0.1-6,6.9-9.8,13.2c-0.1,0.1-0.1,0.1-0.2,0.2l-31,25.1c-0.3,0.3-0.7,0.2-1-0.1l-12.4-13.1L195.5,258.1z"/>
	<path class="st0_team-presentation-1-99" d="M183,186c0,0,9.1,5.7,8.4,7.4s-5,1.6-5,1.6"/>
	<path class="st2_team-presentation-1-99" d="M186.7,195.7h-0.4c-0.4,0-0.7-0.2-0.8-0.6c0-0.4,0.2-0.7,0.6-0.8c0.1,0,0.1,0,0.2,0c1.5,0,4-0.3,4.3-1.1&#10;&#9;&#9;c-0.1-0.8-3.8-3.8-8.1-6.5c-0.3-0.2-0.4-0.6-0.2-1s0.6-0.4,1-0.2l0,0c4.4,2.7,9.4,6.4,8.7,8.2S188,195.7,186.7,195.7z"/>
	<path class="st0_team-presentation-1-99" d="M178.4,172.2c0,0,10.4,17.4,9.6,27.4s-13.1,9.2-13.1,9.2l1.7,12.4c0,0-16.3,0.7-16.3,0s-6.1-31.3-5.7-39.7&#10;&#9;&#9;S173.6,169.9,178.4,172.2z"/>
	<path class="st2_team-presentation-1-99" d="M165.1,222.2c-4.8,0-5.1-0.3-5.3-0.5c-0.1-0.2-0.2-0.4-0.2-0.6c0-0.2-0.3-1.6-0.6-3.4&#10;&#9;&#9;c-1.6-8.8-5.4-29.5-5.1-36.3c0.1-2.7,1.9-5.1,5.1-7c6.2-3.6,16.2-4.6,19.7-2.9c0.1,0.1,0.2,0.2,0.3,0.3c0.4,0.7,10.5,17.7,9.7,27.8&#10;&#9;&#9;c-0.7,9-10.1,9.8-13.1,9.9l1.6,11.5c0,0.2,0,0.4-0.2,0.6c-0.1,0.2-0.3,0.3-0.5,0.3C171.2,222.1,167.5,222.2,165.1,222.2z&#10;&#9;&#9; M160.9,220.6c1.7,0.2,8.5,0.1,14.8-0.1l-1.6-11.6c0-0.2,0-0.4,0.2-0.6c0.2-0.2,0.4-0.2,0.6-0.2c0.5,0,11.7,0.6,12.4-8.5&#10;&#9;&#9;s-8.3-24.8-9.4-26.7c-3-1.3-12.3-0.5-18.2,2.9c-1.9,1.1-4.3,3.1-4.4,5.8c-0.3,6.7,3.6,28,5,36C160.6,219.2,160.8,220.1,160.9,220.6&#10;&#9;&#9;L160.9,220.6z"/>
	<path class="st0_team-presentation-1-99" d="M143.9,182.4c0-0.3,0-0.6,0-0.9c0-2.1,1-3.7,2.4-5.3c0.7-0.8,4-4.3,5.3-3.9c-3-1-6.3-0.7-9.1,0.8&#10;&#9;&#9;c0.6-1.5,1.8-2.8,3.3-3.5c4.3-2.6,9.3-4.1,14.4-4.1c-1.9-0.7-3.9-1.2-6-1.4c5.4-4.5,26.2-6.2,26.9,4.4c0.3,4.4-4.6,6-7.8,7.6&#10;&#9;&#9;c-3.7,1.8-2.8,7.4-0.9,17.9s-2.9,14.3-2.9,14.3c-1.6,1.2-6.4,1.4-8.3,1.7c-2.6,0.4-8.7,0.8-10.3-1.7c-1.3-2.1,1.1-3.8,1-5.8&#10;&#9;&#9;s-2.5-4.6-3.4-6.4C146.1,191.8,144.2,187.1,143.9,182.4z"/>
	<path class="st2_team-presentation-1-99" d="M157,211c-2.6,0-5.7-0.4-6.9-2.4c-0.9-1.6-0.3-3,0.3-4.1c0.4-0.6,0.6-1.3,0.6-2c-0.1-1.2-1.1-2.7-2.1-4.1&#10;&#9;&#9;c-0.5-0.7-0.9-1.4-1.3-2.1c-1.8-3.4-4.1-8.6-4.4-13.9l0,0c0-0.3,0-0.6,0-0.9c0.1-2.2,1-4.3,2.6-5.8c1-1.2,2.1-2.3,3.4-3.2&#10;&#9;&#9;c-2.2-0.2-4.4,0.2-6.3,1.2c-0.3,0.1-0.6,0.1-0.8-0.1c-0.2-0.2-0.3-0.5-0.2-0.8c0.7-1.7,2-3.1,3.6-3.9c3.3-2,6.9-3.3,10.7-3.9&#10;&#9;&#9;c-0.6-0.1-1.3-0.2-2-0.3c-0.3,0-0.5-0.2-0.6-0.5c-0.1-0.3,0-0.6,0.2-0.8c4.2-3.4,15.9-5.1,22.6-2.1c3.4,1.5,5.2,3.9,5.4,7.1&#10;&#9;&#9;c0.3,4.3-3.7,6.2-6.9,7.7l-1.3,0.6c-3.1,1.6-2.4,6.4-0.5,17.1s-3,14.9-3.2,15c-1.3,1.1-4.3,1.4-6.7,1.6c-0.8,0.1-1.5,0.1-2,0.2&#10;&#9;&#9;C159.7,210.9,158.4,211,157,211z M144.6,182.3c0.3,5,2.6,10,4.3,13.3c0.4,0.7,0.8,1.3,1.2,1.9c1,1.5,2.2,3.2,2.3,4.8&#10;&#9;&#9;c0,1-0.2,1.9-0.7,2.8c-0.5,1.1-0.9,1.9-0.3,2.8c1.2,1.9,6.3,2,9.5,1.4c0.5-0.1,1.2-0.2,2.1-0.3c2-0.2,4.9-0.5,5.9-1.3&#10;&#9;&#9;c0.2-0.1,4.4-3.7,2.7-13.6c-1.9-10.7-2.9-16.6,1.3-18.7c0.4-0.2,0.9-0.4,1.4-0.6c2.9-1.4,6.3-3,6.1-6.3c-0.2-2.6-1.7-4.6-4.6-5.8&#10;&#9;&#9;c-5.8-2.5-15-1.3-19.5,0.9c1.4,0.3,2.8,0.6,4.2,1.1c0.4,0.1,0.6,0.5,0.4,0.9c-0.1,0.3-0.4,0.5-0.7,0.5c-4.9,0.1-9.8,1.4-14,4&#10;&#9;&#9;c-0.7,0.4-1.3,0.8-1.8,1.4c2.4-0.7,5.1-0.7,7.5,0.1l0,0c0.4,0.1,0.6,0.5,0.5,0.9s-0.5,0.6-0.9,0.5c-0.6-0.1-2.8,1.8-4.5,3.7&#10;&#9;&#9;c-1.3,1.5-2.2,2.9-2.2,4.8L144.6,182.3L144.6,182.3z"/>
	<path class="st0_team-presentation-1-99" d="M175.2,191.1c-1.6-1.5-3.4-3.1-5.6-3.5s-4.8,1.1-4.9,3.3c0,0.7,0.2,1.3,0.5,1.9c1.9,4.2,5.6,7.3,10.1,8.2"/>
	<path class="st2_team-presentation-1-99" d="M175.4,201.8h-0.1c-4.7-1-8.7-4.2-10.6-8.7c-0.3-0.7-0.5-1.4-0.6-2.2c0-1.1,0.5-2.2,1.4-2.9&#10;&#9;&#9;c1.2-1,2.8-1.4,4.3-1.1c2.5,0.4,4.4,2.2,5.9,3.7c0.3,0.3,0.3,0.7,0,1c-0.3,0.3-0.7,0.3-1,0c-1.4-1.3-3.1-2.9-5.2-3.3&#10;&#9;&#9;c-1.1-0.2-2.2,0.1-3.1,0.8c-0.5,0.4-0.9,1-0.9,1.7c0,0.6,0.2,1.1,0.4,1.6c1.8,4,5.3,6.9,9.6,7.8c0.4,0.1,0.6,0.5,0.5,0.9&#10;&#9;&#9;C176,201.5,175.7,201.8,175.4,201.8L175.4,201.8z"/>
	<path class="st2_team-presentation-1-99" d="M181.4,401.3c-0.3,2.3,0.2,4.6,1.4,6.6c2,2.9,1.5,11.4,1.5,11.4h-18c0,0-0.5-10.3,0.6-11.8s1.6-0.2,1.9-2&#10;&#9;&#9;s-0.9-6.2-0.9-6.2L181.4,401.3z"/>
	<path class="st2_team-presentation-1-99" d="M184.3,420h-18c-0.4,0-0.7-0.3-0.7-0.7c-0.1-2.5-0.4-10.7,0.8-12.3c0.4-0.5,0.9-0.9,1.5-1.1&#10;&#9;&#9;c0.1,0,0.2-0.1,0.3-0.6c0.2-1.3-0.6-4.7-0.9-5.9c-0.1-0.2,0-0.5,0.1-0.7c0.2-0.2,0.4-0.3,0.6-0.2l13.4,2c0.4,0.1,0.6,0.4,0.6,0.8&#10;&#9;&#9;c-0.2,2.1,0.2,4.3,1.3,6.1c2.1,3.1,1.6,11.5,1.6,11.9C185,419.7,184.7,420,184.3,420z M167,418.6h16.6c0.1-2.7,0-8.3-1.4-10.3&#10;&#9;&#9;c-1.2-1.9-1.7-4.2-1.6-6.4l-11.7-1.8c0.4,1.5,0.9,4.1,0.7,5.5c-0.2,1.2-0.6,1.5-1.2,1.7c-0.3,0.1-0.6,0.3-0.8,0.6&#10;&#9;&#9;C167,408.7,166.8,413.9,167,418.6z"/>
	<path class="st2_team-presentation-1-99" d="M234,399.9c0,0,0.9,5.7,2.7,6.8s10.9,2,11.6,4.1s0,6.8,0,6.8h-27.6v-19.4L234,399.9z"/>
	<path class="st2_team-presentation-1-99" d="M248.3,418.3h-27.7c-0.4,0-0.7-0.3-0.7-0.7v-19.4c0-0.2,0.1-0.4,0.2-0.5c0.2-0.1,0.4-0.2,0.6-0.2l13.4,1.8&#10;&#9;&#9;c0.3,0,0.6,0.3,0.6,0.6c0.3,2.1,1.2,5.6,2.4,6.3c1.3,0.5,2.7,0.9,4.2,1.2c4.3,1,7.2,1.8,7.7,3.3c0.7,2.2,0.1,6.9,0,7.1&#10;&#9;&#9;C248.9,418,248.7,418.3,248.3,418.3z M221.4,416.9h26.3c0.2-1.6,0.4-4.5,0-5.9c-0.3-0.9-4.4-1.8-6.7-2.3c-1.6-0.3-3.1-0.7-4.6-1.4&#10;&#9;&#9;c-1.8-1.1-2.7-5.2-2.9-6.8l-12.1-1.5V416.9z"/>
	<polygon class="st0_team-presentation-1-99" points="182.8,403.7 166.3,403.7 144.7,326.4 178.6,319.1 &#9;"/>
	<path class="st2_team-presentation-1-99" d="M182.8,404.4h-16.5c-0.3,0-0.6-0.2-0.7-0.5L144,326.5c-0.1-0.2,0-0.4,0.1-0.6c0.1-0.2,0.3-0.3,0.5-0.3&#10;&#9;&#9;l33.8-7.2c0.2,0,0.4,0,0.6,0.1c0.2,0.1,0.3,0.3,0.3,0.5l4.2,84.6c0,0.2-0.1,0.4-0.2,0.5C183.2,404.3,183,404.4,182.8,404.4z&#10;&#9;&#9; M166.9,402.9H182l-4.1-82.9l-32.2,6.9L166.9,402.9z"/>
	<path class="st0_team-presentation-1-99" d="M181.9,305.2c0,0,33.3,7.5,44.6,15.4c4.8,3.4,8.8,82.2,8.8,82.2l-14.7,1.8c0,0-13.3-64.3-18.4-66.4&#10;&#9;&#9;s-32.3-1.2-32.3-1.2S161,313.4,181.9,305.2z"/>
	<path class="st2_team-presentation-1-99" d="M220.6,405.3c-0.3,0-0.6-0.2-0.7-0.6c-5.1-24.7-14.5-64.5-18-65.9c-4.9-2-31.8-1.2-32-1.1&#10;&#9;&#9;c-0.3,0-0.6-0.2-0.7-0.5c-0.1-0.2-8.8-24.3,12.5-32.7c0.1,0,0.3,0,0.4,0c1.4,0.3,33.6,7.7,44.8,15.5c0.9,0.6,3.3,2.3,6.5,42.9&#10;&#9;&#9;c1.6,19.9,2.6,39.6,2.6,39.8c0,0.4-0.3,0.7-0.6,0.8L220.6,405.3L220.6,405.3z M182.3,336c7.9,0,17.2,0.3,20.1,1.5&#10;&#9;&#9;c5.1,2.1,16.2,54.1,18.7,66.3l13.4-1.6c-1.6-30.4-5.2-78.6-8.5-80.9c-10.5-7.4-41.2-14.6-44.1-15.2c-8.2,3.3-12.7,9.4-13.2,18.2&#10;&#9;&#9;c-0.2,4.1,0.3,8.1,1.6,12C171.9,336.1,176.8,336,182.3,336z"/>
	<path class="st3_team-presentation-1-99 targetColor" d="M141.2,214.6c0,0,40.8-5.4,51.7,0s33.5,39.5,33.5,39.5l-28.6,12.1l4.5,60.4c0,0-1.8,10.3-35,10.3&#10;&#9;&#9;s-33.4-4.1-33.4-4.1s-7.7-47.1-5-72.5l-15.9-5C113.1,255.3,121.8,224.1,141.2,214.6z" style="fill: rgb(251, 203, 165);"/>
	<path class="st0_team-presentation-1-99" d="M188,199.6c0,0-3.2,3-5.8-0.7"/>
	<path class="st2_team-presentation-1-99" d="M185.2,201.4h-0.4c-1.3-0.2-2.5-1-3.2-2.1c-0.2-0.3-0.2-0.7,0.1-1c0,0,0,0,0,0c0.3-0.2,0.7-0.2,1,0.1&#10;&#9;&#9;c0,0,0,0,0,0c0.5,0.8,1.3,1.4,2.2,1.5c0.9,0,1.8-0.4,2.5-1c0.3-0.3,0.7-0.3,1,0s0.3,0.7,0,1C187.6,200.9,186.4,201.4,185.2,201.4z"/>
	
		<ellipse transform="matrix(0.9659 -0.2588 0.2588 0.9659 -41.1345 52.5164)" class="st2_team-presentation-1-99" cx="178.9" cy="182.5" rx="0.9" ry="2.1"/>
</g>
<g id="Chair_team-presentation-1-99">
	<path class="st2_team-presentation-1-99" d="M200,348.4h-67.4c-3,0-5.4-2.4-5.4-5.5v-1.8c0-3,2.4-5.5,5.4-5.5H200c3,0,5.4,2.4,5.4,5.5v1.8&#10;&#9;&#9;C205.5,346,203,348.4,200,348.4z"/>
	<path class="st2_team-presentation-1-99" d="M200,349.1h-67.4c-3.4,0-6.1-2.7-6.1-6.1v-1.8c0-3.4,2.8-6.1,6.1-6.1H200c3.4,0,6.1,2.8,6.1,6.1v1.8&#10;&#9;&#9;C206.1,346.4,203.4,349.1,200,349.1z M132.6,336.4c-2.6,0-4.8,2.1-4.8,4.8l0,0v1.8c0,2.6,2.1,4.8,4.8,4.8l0,0H200&#10;&#9;&#9;c2.6,0,4.8-2.1,4.8-4.8l0,0v-1.8c0-2.6-2.1-4.8-4.8-4.8L132.6,336.4z"/>
	<polygon class="st2_team-presentation-1-99" points="197.9,344.6 205.4,428 199.7,428 188.8,342.1 &#9;"/>
	<path class="st2_team-presentation-1-99" d="M205.4,428.7h-5.7c-0.4,0-0.6-0.3-0.7-0.6l-10.9-86c0-0.2,0.1-0.5,0.2-0.6c0.2-0.2,0.4-0.2,0.6-0.1l9.1,2.6&#10;&#9;&#9;c0.3,0.1,0.5,0.3,0.5,0.6l7.6,83.5c0,0.2,0,0.4-0.2,0.5C205.8,428.7,205.6,428.7,205.4,428.7z M200.3,427.3h4.4l-7.4-82.1l-7.6-2.2&#10;&#9;&#9;L200.3,427.3z"/>
	<polygon class="st2_team-presentation-1-99" points="135.7,344.6 128.1,428 133.9,428 144.7,342.1 &#9;"/>
	<path class="st2_team-presentation-1-99" d="M133.9,428.7h-5.7c-0.2,0-0.4-0.1-0.5-0.2c-0.1-0.1-0.2-0.3-0.2-0.5l7.6-83.4c0-0.3,0.2-0.5,0.5-0.6l9.1-2.6&#10;&#9;&#9;c0.4-0.1,0.8,0.1,0.9,0.5c0,0.1,0,0.2,0,0.3l-10.9,86C134.5,428.5,134.2,428.7,133.9,428.7z M128.9,427.3h4.4l10.7-84.3l-7.6,2.1&#10;&#9;&#9;L128.9,427.3z"/>
	<path class="st2_team-presentation-1-99" d="M188.8,342.1c0,0,2.6-96.4-10-102.6s-76.6-8.1-80.7,0s14,80.7,29,101.7L188.8,342.1z"/>
	<path class="st2_team-presentation-1-99" d="M188.8,342.8L188.8,342.8l-61.6-0.9c-0.2,0-0.4-0.1-0.6-0.3c-15.4-21.7-33.2-94.2-29-102.5&#10;&#9;&#9;c2.9-5.7,29.6-5.9,37.8-5.8c16.2,0.2,36.9,2,43.8,5.4c5.5,2.7,8.9,21,10.1,54.3c0.9,24.6,0.2,48.8,0.2,49&#10;&#9;&#9;C189.6,342.5,189.3,342.8,188.8,342.8C188.9,342.8,188.9,342.8,188.8,342.8z M127.6,340.5l60.6,0.9c0.7-27.2,0.4-96.4-9.6-101.3&#10;&#9;&#9;c-12.1-6-76-7.9-79.7-0.3S112.7,319.1,127.6,340.5z"/>
</g>
</svg>