<?xml version="1.0" encoding="UTF-8"?>
<!DOCTYPE svg PUBLIC "-//W3C//DTD SVG 1.1//EN" "http://www.w3.org/Graphics/SVG/1.1/DTD/svg11.dtd">
<svg xmlns="http://www.w3.org/2000/svg" version="1.1" width="512px" height="512px" style="shape-rendering:geometricPrecision; text-rendering:geometricPrecision; image-rendering:optimizeQuality; fill-rule:evenodd; clip-rule:evenodd" xmlns:xlink="http://www.w3.org/1999/xlink">
<g><path style="opacity:0.965" fill="#000000" d="M 189.5,21.5 C 195.923,21.6319 202.257,22.4652 208.5,24C 221.397,28.7817 234.064,34.1151 246.5,40C 253.609,42.1579 260.609,41.8245 267.5,39C 279.947,32.2959 292.947,26.9626 306.5,23C 326.201,19.343 342.034,25.5097 354,41.5C 360.757,51.342 366.757,61.6753 372,72.5C 375.819,80.3182 381.986,85.1516 390.5,87C 404.437,89.2343 418.104,92.5676 431.5,97C 447.905,103.736 457.072,115.902 459,133.5C 458.333,152.168 457.666,170.835 457,189.5C 458.08,191.996 459.414,194.33 461,196.5C 469.704,205.536 478.038,214.869 486,224.5C 501.913,247.221 500.913,269.221 483,290.5C 473.205,299.955 464.538,310.289 457,321.5C 457.799,340.157 458.465,358.824 459,377.5C 456.566,396.269 446.399,408.769 428.5,415C 414.628,418.841 400.628,422.175 386.5,425C 381.822,426.676 377.989,429.509 375,433.5C 367.461,447.694 359.127,461.36 350,474.5C 336.67,488.052 320.837,492.219 302.5,487C 290.485,482.826 278.819,477.826 267.5,472C 263.578,470.526 259.578,469.359 255.5,468.5C 244.739,471.545 234.405,475.712 224.5,481C 214.698,485.767 204.365,488.601 193.5,489.5C 178.194,488.433 166.027,481.766 157,469.5C 150.601,459.426 144.601,449.092 139,438.5C 135.181,430.682 129.014,425.848 120.5,424C 106.61,421.556 92.9429,418.222 79.5,414C 63.0948,407.264 53.9282,395.098 52,377.5C 52.6667,358.833 53.3333,340.167 54,321.5C 52.9196,319.004 51.5862,316.67 50,314.5C 41.2958,305.464 32.9625,296.131 25,286.5C 9.66667,265.833 9.66667,245.167 25,224.5C 31.8672,216.121 39.2005,208.121 47,200.5C 49.583,197.003 51.9164,193.336 54,189.5C 53.3337,170.835 52.6671,152.168 52,133.5C 54.4341,114.731 64.6008,102.231 82.5,96C 95.0096,92.3645 107.676,89.3645 120.5,87C 128.287,85.5432 134.12,81.3766 138,74.5C 144.662,61.1683 152.328,48.5016 161,36.5C 168.978,28.4294 178.478,23.4294 189.5,21.5 Z M 190.5,57.5 C 194.247,57.3924 197.914,57.8924 201.5,59C 213.936,64.8849 226.603,70.2183 239.5,75C 250.167,78.3333 260.833,78.3333 271.5,75C 284.397,70.2183 297.064,64.8849 309.5,59C 315.635,56.1585 320.801,57.3252 325,62.5C 332.082,74.9985 339.415,87.3319 347,99.5C 354.47,109.658 364.304,116.492 376.5,120C 389.505,123.001 402.505,126.001 415.5,129C 422.09,130.992 425.09,135.492 424.5,142.5C 422.961,155.31 421.628,168.144 420.5,181C 420.329,193.155 423.496,204.322 430,214.5C 440.041,225.539 449.708,236.873 459,248.5C 461.174,251.546 461.841,254.88 461,258.5C 458.916,262.336 456.583,266.003 454,269.5C 445.629,278.203 437.629,287.203 430,296.5C 423.576,306.523 420.41,317.523 420.5,329.5C 421.587,342.527 422.92,355.527 424.5,368.5C 424.109,371.959 423.276,375.293 422,378.5C 419.03,380.401 415.864,381.901 412.5,383C 400.5,385.667 388.5,388.333 376.5,391C 364.304,394.508 354.47,401.342 347,411.5C 340.414,422.337 334.081,433.337 328,444.5C 325.872,447.63 323.372,450.463 320.5,453C 317.833,453.667 315.167,453.667 312.5,453C 301.668,448.722 291.001,444.056 280.5,439C 263.833,431.667 247.167,431.667 230.5,439C 220.067,444.217 209.401,448.883 198.5,453C 195.833,453.667 193.167,453.667 190.5,453C 186.618,448.786 183.118,444.286 180,439.5C 175.172,429.841 169.839,420.508 164,411.5C 156.53,401.342 146.696,394.508 134.5,391C 121.44,388.255 108.44,385.255 95.5,382C 88.9104,380.008 85.9104,375.508 86.5,368.5C 88.0388,355.69 89.3721,342.856 90.5,330C 90.712,315.969 86.5453,303.469 78,292.5C 69.2958,283.464 60.9625,274.131 53,264.5C 50.1954,260.909 49.1954,256.909 50,252.5C 52.0836,248.664 54.417,244.997 57,241.5C 65.3713,232.797 73.3713,223.797 81,214.5C 87.4238,204.477 90.5905,193.477 90.5,181.5C 89.4546,168.637 88.1213,155.804 86.5,143C 85.7417,135.838 88.7417,131.171 95.5,129C 109.559,125.921 123.559,122.588 137.5,119C 148.328,115.167 157.161,108.667 164,99.5C 169.839,90.4923 175.172,81.159 180,71.5C 183.266,66.6247 186.766,61.958 190.5,57.5 Z"/></g>
<g><path style="opacity:0.97" fill="#000000" d="M 126.5,198.5 C 132.275,197.775 137.608,198.941 142.5,202C 149.395,211.899 155.895,222.065 162,232.5C 162.333,225.167 162.667,217.833 163,210.5C 167.09,201.037 174.257,197.204 184.5,199C 190.333,200.833 194.167,204.667 196,210.5C 196.667,240.167 196.667,269.833 196,299.5C 192.444,309.699 185.278,313.866 174.5,312C 172.275,311.439 170.275,310.439 168.5,309C 161.605,299.101 155.105,288.935 149,278.5C 148.667,285.5 148.333,292.5 148,299.5C 144.468,309.689 137.302,313.855 126.5,312C 121.792,310.622 118.292,307.788 116,303.5C 114.356,272.561 114.023,241.561 115,210.5C 117.019,204.65 120.852,200.65 126.5,198.5 Z"/></g>
<g><path style="opacity:0.967" fill="#000000" d="M 222.5,198.5 C 241.836,198.333 261.17,198.5 280.5,199C 289.963,203.09 293.796,210.257 292,220.5C 290.167,226.333 286.333,230.167 280.5,232C 268.505,232.5 256.505,232.667 244.5,232.5C 244.5,234.5 244.5,236.5 244.5,238.5C 252.206,237.665 259.539,238.831 266.5,242C 273.339,249.548 274.172,257.715 269,266.5C 267.442,268.359 265.609,269.859 263.5,271C 257.258,272.37 250.925,272.87 244.5,272.5C 244.5,274.5 244.5,276.5 244.5,278.5C 256.505,278.333 268.505,278.5 280.5,279C 291.554,283.807 295.054,291.974 291,303.5C 288.708,307.788 285.208,310.622 280.5,312C 261.167,312.667 241.833,312.667 222.5,312C 216.667,310.167 212.833,306.333 211,300.5C 210.333,270.5 210.333,240.5 211,210.5C 213.019,204.65 216.852,200.65 222.5,198.5 Z"/></g>
<g><path style="opacity:0.97" fill="#000000" d="M 311.5,198.5 C 319.86,197.598 326.36,200.598 331,207.5C 332.273,219.763 332.94,232.097 333,244.5C 336.392,239.384 341.225,236.718 347.5,236.5C 353.327,236.83 358.16,239.164 362,243.5C 362.333,232.833 362.667,222.167 363,211.5C 366.556,201.301 373.722,197.134 384.5,199C 390.333,200.833 394.167,204.667 396,210.5C 396.667,240.5 396.667,270.5 396,300.5C 393.44,308.121 388.107,312.121 380,312.5C 375.043,312.404 370.71,310.737 367,307.5C 360.66,298.999 354.16,290.666 347.5,282.5C 340.38,291.242 333.38,300.076 326.5,309C 317.715,314.172 309.548,313.339 302,306.5C 300.725,304.283 299.725,301.949 299,299.5C 298.333,270.167 298.333,240.833 299,211.5C 300.682,204.653 304.849,200.32 311.5,198.5 Z"/></g>
</svg>
