<svg width="112" height="112" viewBox="0 0 112 112" fill="none" xmlns="http://www.w3.org/2000/svg">
<rect width="16" height="16" rx="4" fill="#525252"/>
<rect x="24" width="16" height="16" rx="4" fill="#525252"/>
<rect x="48" width="16" height="16" rx="4" fill="#525252"/>
<rect x="72" width="16" height="16" rx="4" fill="#525252"/>
<rect x="96" width="16" height="16" rx="4" fill="#525252"/>
<rect y="24" width="16" height="16" rx="4" fill="#525252"/>
<rect y="48" width="16" height="16" rx="4" fill="#525252"/>
<rect y="72" width="16" height="16" rx="4" fill="#525252"/>
<rect y="96" width="16" height="16" rx="4" fill="#525252"/>
<rect x="24" y="24" width="16" height="16" rx="4" fill="#525252"/>
<rect x="24" y="48" width="16" height="16" rx="4" fill="#525252"/>
<rect x="24" y="72" width="16" height="16" rx="4" fill="#525252"/>
<rect x="24" y="96" width="16" height="16" rx="4" fill="#525252"/>
<rect x="48" y="24" width="16" height="16" rx="4" fill="#525252"/>
<rect x="48" y="48" width="16" height="16" rx="4" fill="#525252"/>
<rect x="48" y="72" width="16" height="16" rx="4" fill="#525252"/>
<rect x="48" y="96" width="16" height="16" rx="4" fill="#525252"/>
<rect x="72" y="24" width="16" height="16" rx="4" fill="#525252"/>
<rect x="72" y="48" width="16" height="16" rx="4" fill="#525252"/>
<rect x="72" y="72" width="16" height="16" rx="4" fill="#525252"/>
<rect x="72" y="96" width="16" height="16" rx="4" fill="#525252"/>
<rect x="96" y="24" width="16" height="16" rx="4" fill="#525252"/>
<rect x="96" y="48" width="16" height="16" rx="4" fill="#525252"/>
<rect x="96" y="72" width="16" height="16" rx="4" fill="#525252"/>
<rect x="96" y="96" width="16" height="16" rx="4" fill="#525252"/>
</svg>
