<svg width="113" height="113" viewBox="0 0 113 113" fill="none" xmlns="http://www.w3.org/2000/svg">
<rect width="22" height="22" rx="6" fill="#525252"/>
<rect x="30" width="22" height="22" rx="6" fill="#525252"/>
<rect x="61" width="22" height="22" rx="6" fill="#525252"/>
<rect x="91" width="22" height="22" rx="6" fill="#525252"/>
<rect y="30" width="22" height="22" rx="6" fill="#525252"/>
<rect y="61" width="22" height="22" rx="6" fill="#525252"/>
<rect y="91" width="22" height="22" rx="6" fill="#525252"/>
<rect x="30" y="30" width="22" height="22" rx="6" fill="#525252"/>
<rect x="30" y="61" width="22" height="22" rx="6" fill="#525252"/>
<rect x="30" y="91" width="22" height="22" rx="6" fill="#525252"/>
<rect x="61" y="30" width="22" height="22" rx="6" fill="#525252"/>
<rect x="61" y="61" width="22" height="22" rx="6" fill="#525252"/>
<rect x="61" y="91" width="22" height="22" rx="6" fill="#525252"/>
<rect x="91" y="30" width="22" height="22" rx="6" fill="#525252"/>
<rect x="91" y="61" width="22" height="22" rx="6" fill="#525252"/>
<rect x="91" y="91" width="22" height="22" rx="6" fill="#525252"/>
</svg>
