<?xml version="1.0" encoding="utf-8"?>
<!-- Uploaded to: SVG Repo, www.svgrepo.com, Generator: SVG Repo Mixer Tools -->
<svg width="800px" height="800px" viewBox="-30.55 0 183.35 183.35" xmlns="http://www.w3.org/2000/svg">

<defs>

<style>.cls-1{fill:#ffffff;}</style>

</defs>

<g id="Layer_2" data-name="Layer 2">

<g id="Layer_1-2" data-name="Layer 1">

<path d="M99.78,91.33a16.67,16.67,0,0,1-14,.12c-4.71-1.89-9.5-3.6-14.3-5.41-2.92,3.45-3.33,7.33-3.71,10.87-.9,8.59-3.07,16.86-5.06,25.21-1.18,5-2,10.07-2.88,15.13-.61,3.64-2,6.49-5.8,7.73-1.7.54-3.24.92-5,.15-2.61-1.16-5.3-2.16-7.9-3.34-3.89-1.76-7.74-3.61-12-5.62a27.2,27.2,0,0,0-3,4.14,111,111,0,0,0-7.3,20.13c-1.4,5.54-3.2,11-4.89,16.44a18.66,18.66,0,0,1-1.65,3.94,5,5,0,0,1-9.2-1.39,17.15,17.15,0,0,1-.46-2.54c-1-12.26-3-24.45-2.57-36.83.3-9.44.13-18.88,1.45-28.29.92-6.51.93-13.14,1.48-19.71.26-3.09.09-6.33,1.95-9,2.92-1.81,5.71-1.09,8.3.25,4.06,2.11,8,4.53,12,6.68,3.22,1.72,6.11,4.26,10.63,4.57,1.5-6.13,2.93-12.19,4.46-18.22s3.24-12.17,4.82-18.27S48.2,46,49.72,40c5.07-1,8.83,1.26,12.6,3.15,4.6,2.31,9.05,4.92,13.6,7.35a36.22,36.22,0,0,0,3.43,1.42c1.48-2.36,2.75-4.52,4.16-6.59S86.61,41.15,88,39c7.95-11.9,16.87-23.14,23.9-35.66a12.18,12.18,0,0,1,1.51-2.07,4,4,0,0,1,5.44-.4c2,1.71,3.68,3.77,3.31,6.61-.79,5.95-1.22,12-2.76,17.78-2.59,9.66-6.09,19.08-8.94,28.68-3,10.16-5.7,20.41-8.57,30.6C101.25,87,100.4,89.39,99.78,91.33Zm6-59.88a16.73,16.73,0,0,0-2.34,2.35c-4.41,6.68-9,13.28-13,20.17C88,58.13,85,61.22,80.06,62.7c-3.41-1.9-6.85-3.92-10.37-5.79-3.91-2.08-7.62-4.66-12.28-5.81-.75,2.12-1.44,3.69-1.86,5.32-1.92,7.48-3.82,15-5.61,22.47-1.6,6.67-2.87,13.42-4.58,20.06-1.49,5.75-4.83,7.49-10.25,5.19-5-2.11-9.76-4.78-14.6-7.24-2.48-1.26-4.64-3.27-8.34-3.3-.13,3.88-.23,7.53-.37,11.17-.17,4,0,8.06-.63,12-1.69,10-1.14,20-.85,29.94,0,.88-.61,2.42,1.45,2.51,4.12-7.34,4.64-16.42,10.74-23.2,9.7.9,17.3,7.41,26.47,9.77A15.21,15.21,0,0,0,50,133.29c3.31-15.37,7.51-30.54,10.18-46.06A21.11,21.11,0,0,1,62.7,80a9,9,0,0,1,4.53-3.51c1.41-.48,3.36,0,4.89.58C78.25,79.33,84.31,81.75,90.2,84c.76-.81,1.35-1.16,1.5-1.64q7.5-24.15,14.89-48.34a3.87,3.87,0,0,0-.15-1.67C106.4,32.16,106.17,32,105.8,31.45Z"/>

<path class="cls-1" d="M105.8,31.45c.37.53.6.71.64.93a3.87,3.87,0,0,1,.15,1.67Q99.2,58.23,91.7,82.39c-.15.48-.74.83-1.5,1.64-5.89-2.28-12-4.7-18.08-6.93-1.53-.56-3.48-1.06-4.89-.58A9,9,0,0,0,62.7,80a21.11,21.11,0,0,0-2.49,7.2c-2.67,15.52-6.87,30.69-10.18,46.06A15.21,15.21,0,0,1,49,135.76c-9.17-2.36-16.77-8.87-26.47-9.77-6.1,6.78-6.62,15.86-10.74,23.2-2.06-.09-1.43-1.63-1.45-2.51-.29-10-.84-20,.85-29.94.66-3.91.46-8,.63-12,.14-3.64.24-7.29.37-11.17,3.7,0,5.86,2,8.34,3.3,4.84,2.46,9.61,5.13,14.6,7.24,5.42,2.3,8.76.56,10.25-5.19,1.71-6.64,3-13.39,4.58-20.06,1.79-7.51,3.69-15,5.61-22.47.42-1.63,1.11-3.2,1.86-5.32,4.66,1.15,8.37,3.73,12.28,5.81,3.52,1.87,7,3.89,10.37,5.79C85,61.22,88,58.13,90.44,54c4.06-6.89,8.61-13.49,13-20.17A16.73,16.73,0,0,1,105.8,31.45Z"/>

</g>

</g>

</svg>