<svg width="283" height="284" viewBox="0 0 283 284" fill="none" xmlns="http://www.w3.org/2000/svg">
<path d="M141.5 284C219.096 284 282 220.648 282 142.5C282 64.3517 219.096 1 141.5 1C63.904 1 1 64.3517 1 142.5C1 220.648 63.904 284 141.5 284Z" stroke="#858585" stroke-width="0.75" stroke-miterlimit="10"/>
<path d="M4 72.7261C7.37344 73.3706 10.8591 73.085 14.082 71.8999C17.305 70.7148 20.1434 68.675 22.2921 66C22.2921 66 20.8299 73.8424 29.0871 83.7742C29.0871 83.7742 16.3285 83.7742 10.8237 91.1873C10.8237 91.1873 14.7803 81.141 4 72.7261Z" fill="black"/>
</svg>
