<svg width="1440" height="358" viewBox="0 0 1440 358" fill="none" xmlns="http://www.w3.org/2000/svg">
<path d="M1466 94.4445C1425.34 149.036 1354.33 205.854 1263.25 211.014C1205.81 214.272 1150.02 195.5 1106.6 170.573C1067.08 147.882 1046.79 118.491 1014.97 91.8823C966.818 51.5993 900.567 24.5943 828.267 11.2107C775.412 1.42831 720.251 -1.31885 665.746 0.547812C589.387 3.18932 515.121 33.232 483.426 82.8571C464.623 112.301 460.931 145.373 464.359 177.221C469.929 228.994 496.936 278.073 448.379 324.528C408.807 362.39 336.52 362.619 277.376 351.939C226.072 342.667 201.056 308.732 151.352 295.718C84.9247 278.329 26.0461 305.201 -15 340.413" stroke="black" stroke-miterlimit="10" stroke-dasharray="10.02 10.02"/>
</svg>
