<svg width="1440" height="408" viewBox="0 0 1440 408" fill="none" xmlns="http://www.w3.org/2000/svg">
<path d="M1440 107.635C1400.47 169.851 1331.42 234.605 1242.86 240.485C1187.01 244.198 1132.77 222.804 1090.55 194.396C1052.13 168.536 1032.4 135.04 1001.46 104.715C954.637 58.8059 890.22 28.0293 819.921 12.7764C768.53 1.6278 714.896 -1.50305 661.9 0.624322C587.656 3.63475 515.445 37.8734 484.628 94.4293C466.345 127.986 462.755 165.676 466.088 201.972C471.504 260.976 497.764 316.91 450.551 369.854C412.074 413.003 341.788 413.264 284.282 401.092C234.398 390.525 210.075 351.851 161.747 337.02C97.1584 317.201 39.9098 347.827 0 387.956" stroke="black" stroke-miterlimit="10" stroke-dasharray="10.02 10.02"/>
</svg>
