<svg width="1440" height="494" viewBox="0 0 1440 494" fill="none" xmlns="http://www.w3.org/2000/svg">
<g clip-path="url(#clip0_246_6692)">
<path d="M1439.45 114.295C1438.61 116.113 1437.74 117.935 1436.85 119.761" stroke="black" stroke-miterlimit="10"/>
<path d="M1431.4 130.609C1392.32 205.755 1324.07 283.967 1236.53 291.069C1181.32 295.554 1127.7 269.713 1085.97 235.401C1047.99 204.167 1028.49 163.709 997.904 127.082C951.622 71.6311 887.946 34.4581 818.457 16.0352C767.657 2.5695 714.64 -1.21204 662.253 1.35747C588.863 4.99357 517.484 46.3481 487.021 114.658C468.949 155.189 465.4 200.713 468.695 244.552C474.048 315.819 500.006 383.378 453.336 447.325C415.303 499.442 345.825 499.757 288.981 485.055C239.671 472.293 215.627 425.581 167.855 407.667C104.01 383.729 47.4203 420.721 7.96973 469.19" stroke="black" stroke-miterlimit="10" stroke-dasharray="10.02 10.02"/>
<path d="M4.16648 473.905C2.92292 475.521 1.71167 477.137 0.532715 478.753" stroke="black" stroke-miterlimit="10"/>
</g>
<defs>
<clipPath id="clip0_246_6692">
<rect width="1440" height="494" fill="white"/>
</clipPath>
</defs>
</svg>
